NotoSansArabic-ExtraCondensedRegular.ufo
<glyph name="exclam" format="2">
  <advance width="210"/>
  <unicode hex="0021"/>
  <outline>
    <contour>
      <point x="74" y="204" type="line"/>
      <point x="137" y="204" type="line"/>
      <point x="145" y="714" type="line"/>
      <point x="66" y="714" type="line"/>
    </contour>
    <contour>
      <point x="104" y="-10" type="curve" smooth="yes"/>
      <point x="133" y="-10"/>
      <point x="149" y="10"/>
      <point x="149" y="46" type="curve" smooth="yes"/>
      <point x="149" y="82"/>
      <point x="133" y="101"/>
      <point x="104" y="101" type="curve" smooth="yes"/>
      <point x="77" y="101"/>
      <point x="60" y="82"/>
      <point x="60" y="46" type="curve" smooth="yes"/>
      <point x="60" y="10"/>
      <point x="77" y="-10"/>
    </contour>
  </outline>
</glyph>
<glyph name="parenleft" format="2">
  <advance width="315"/>
  <unicode hex="0028"/>
  <outline>
    <contour>
      <point x="193" y="-172" type="curve"/>
      <point x="255" y="-172" type="line"/>
      <point x="183" y="-25"/>
      <point x="147" y="135"/>
      <point x="147" y="309" type="curve" smooth="yes"/>
      <point x="147" y="470"/>
      <point x="180" y="640"/>
      <point x="255" y="785" type="curve"/>
      <point x="193" y="785" type="line"/>
      <point x="122" y="648"/>
      <point x="86" y="484"/>
      <point x="86" y="317" type="curve" smooth="yes"/>
      <point x="86" y="128"/>
      <point x="118" y="-29"/>
    </contour>
  </outline>
</glyph>
<glyph name="comma" format="2">
  <advance width="198"/>
  <unicode hex="002C"/>
  <outline>
    <contour>
      <point x="42" y="-133" type="curve"/>
      <point x="94" y="-133" type="line"/>
      <point x="118" y="-62"/>
      <point x="140" y="43"/>
      <point x="153" y="116" type="curve"/>
      <point x="150" y="128" type="line"/>
      <point x="84" y="128" type="line"/>
      <point x="75" y="50"/>
      <point x="62" y="-38"/>
    </contour>
  </outline>
</glyph>
<glyph name="hyphen" format="2">
  <advance width="256"/>
  <unicode hex="002D"/>
  <outline>
    <contour>
      <point x="26" y="233" type="line"/>
      <point x="230" y="233" type="line"/>
      <point x="230" y="307" type="line"/>
      <point x="26" y="307" type="line"/>
    </contour>
  </outline>
</glyph>
<glyph name="period" format="2">
  <advance width="198"/>
  <unicode hex="002E"/>
  <outline>
    <contour>
      <point x="99" y="-10" type="curve" smooth="yes"/>
      <point x="128" y="-10"/>
      <point x="145" y="9"/>
      <point x="145" y="45" type="curve" smooth="yes"/>
      <point x="145" y="81"/>
      <point x="128" y="101"/>
      <point x="99" y="101" type="curve" smooth="yes"/>
      <point x="72" y="101"/>
      <point x="53" y="81"/>
      <point x="53" y="45" type="curve" smooth="yes"/>
      <point x="53" y="9"/>
      <point x="72" y="-10"/>
    </contour>
  </outline>
</glyph>
<glyph name="colon" format="2">
  <advance width="199"/>
  <unicode hex="003A"/>
  <outline>
    <contour>
      <point x="100" y="432" type="curve" smooth="yes"/>
      <point x="130" y="432"/>
      <point x="146" y="451"/>
      <point x="146" y="488" type="curve" smooth="yes"/>
      <point x="146" y="524"/>
      <point x="130" y="543"/>
      <point x="100" y="543" type="curve" smooth="yes"/>
      <point x="70" y="543"/>
      <point x="53" y="524"/>
      <point x="53" y="488" type="curve" smooth="yes"/>
      <point x="53" y="451"/>
      <point x="70" y="432"/>
    </contour>
    <contour>
      <point x="100" y="-10" type="curve" smooth="yes"/>
      <point x="130" y="-10"/>
      <point x="146" y="10"/>
      <point x="146" y="46" type="curve" smooth="yes"/>
      <point x="146" y="82"/>
      <point x="130" y="101"/>
      <point x="100" y="101" type="curve" smooth="yes"/>
      <point x="70" y="101"/>
      <point x="53" y="82"/>
      <point x="53" y="46" type="curve" smooth="yes"/>
      <point x="53" y="10"/>
      <point x="70" y="-10"/>
    </contour>
  </outline>
</glyph>
<glyph name="guillemotleft" format="2">
  <advance width="400"/>
  <unicode hex="00AB"/>
  <outline>
    <contour>
      <point x="324" y="68" type="line"/>
      <point x="377" y="104" type="line"/>
      <point x="267" y="280" type="line"/>
      <point x="377" y="454" type="line"/>
      <point x="324" y="492" type="line"/>
      <point x="193" y="286" type="line"/>
      <point x="193" y="273" type="line"/>
    </contour>
    <contour>
      <point x="154" y="68" type="line"/>
      <point x="206" y="104" type="line"/>
      <point x="98" y="280" type="line"/>
      <point x="206" y="454" type="line"/>
      <point x="154" y="492" type="line"/>
      <point x="22" y="286" type="line"/>
      <point x="22" y="273" type="line"/>
    </contour>
  </outline>
</glyph>
<glyph name="guillemotright" format="2">
  <advance width="399"/>
  <unicode hex="00BB"/>
  <outline>
    <contour>
      <point x="246" y="68" type="line"/>
      <point x="377" y="274" type="line"/>
      <point x="377" y="287" type="line"/>
      <point x="246" y="492" type="line"/>
      <point x="193" y="454" type="line"/>
      <point x="302" y="280" type="line"/>
      <point x="193" y="105" type="line"/>
    </contour>
    <contour>
      <point x="76" y="68" type="line"/>
      <point x="207" y="274" type="line"/>
      <point x="207" y="287" type="line"/>
      <point x="76" y="492" type="line"/>
      <point x="23" y="454" type="line"/>
      <point x="132" y="280" type="line"/>
      <point x="23" y="105" type="line"/>
    </contour>
  </outline>
</glyph>
<glyph name="ray-ar" format="2">
  <advance width="770"/>
  <unicode hex="0608"/>
  <outline>
    <contour>
      <point x="399" y="-262" type="curve" smooth="yes"/>
      <point x="613" y="-262"/>
      <point x="708" y="-159"/>
      <point x="708" y="61" type="curve" smooth="yes"/>
      <point x="708" y="257"/>
      <point x="649" y="383"/>
      <point x="544" y="383" type="curve" smooth="yes"/>
      <point x="455" y="383"/>
      <point x="394" y="282"/>
      <point x="394" y="156" type="curve" smooth="yes"/>
      <point x="394" y="48"/>
      <point x="445" y="-7"/>
      <point x="560" y="-7" type="curve" smooth="yes"/>
      <point x="770" y="-7" type="line" smooth="yes"/>
      <point x="794" y="-7"/>
      <point x="808" y="13"/>
      <point x="808" y="36" type="curve" smooth="yes"/>
      <point x="808" y="58"/>
      <point x="798" y="79"/>
      <point x="774" y="79" type="curve" smooth="yes"/>
      <point x="678" y="79" type="line"/>
      <point x="637" y="77"/>
      <point x="598" y="72"/>
      <point x="555" y="72" type="curve" smooth="yes"/>
      <point x="486" y="72"/>
      <point x="454" y="101"/>
      <point x="454" y="171" type="curve" smooth="yes"/>
      <point x="454" y="245"/>
      <point x="487" y="304"/>
      <point x="542" y="304" type="curve" smooth="yes"/>
      <point x="610" y="304"/>
      <point x="644" y="222"/>
      <point x="644" y="63" type="curve" smooth="yes"/>
      <point x="644" y="-103"/>
      <point x="594" y="-176"/>
      <point x="410" y="-176" type="curve" smooth="yes"/>
      <point x="262" y="-176"/>
      <point x="203" y="-100"/>
      <point x="203" y="24" type="curve" smooth="yes"/>
      <point x="203" y="76"/>
      <point x="210" y="123"/>
      <point x="228" y="188" type="curve"/>
      <point x="186" y="212" type="line"/>
      <point x="12" y="144" type="line"/>
      <point x="23" y="71" type="line"/>
      <point x="174" y="131" type="line"/>
      <point x="163" y="150" type="line"/>
      <point x="146" y="92"/>
      <point x="141" y="46"/>
      <point x="141" y="3" type="curve" smooth="yes"/>
      <point x="141" y="-155"/>
      <point x="220" y="-262"/>
    </contour>
  </outline>
</glyph>
<glyph name="perthousand-ar" format="2">
  <advance width="577"/>
  <unicode hex="0609"/>
  <outline>
    <contour>
      <point x="498" y="-15" type="curve"/>
      <point x="550" y="49" type="line"/>
      <point x="534" y="74"/>
      <point x="513" y="101"/>
      <point x="490" y="123" type="curve"/>
      <point x="440" y="55" type="line"/>
      <point x="463" y="31"/>
      <point x="475" y="14"/>
    </contour>
    <component base="percent-ar"/>
  </outline>
</glyph>
<glyph name="pertenthousand-ar" format="2">
  <advance width="729"/>
  <unicode hex="060A"/>
  <outline>
    <contour>
      <point x="494" y="-15" type="curve"/>
      <point x="546" y="49" type="line"/>
      <point x="530" y="74"/>
      <point x="509" y="101"/>
      <point x="486" y="123" type="curve"/>
      <point x="435" y="55" type="line"/>
      <point x="458" y="31"/>
      <point x="471" y="14"/>
    </contour>
    <contour>
      <point x="651" y="-15" type="curve"/>
      <point x="702" y="49" type="line"/>
      <point x="687" y="74"/>
      <point x="666" y="101"/>
      <point x="643" y="123" type="curve"/>
      <point x="593" y="55" type="line"/>
      <point x="616" y="31"/>
      <point x="628" y="14"/>
    </contour>
    <component base="percent-ar"/>
  </outline>
</glyph>
<glyph name="comma-ar" format="2">
  <advance width="214"/>
  <unicode hex="060C"/>
  <outline>
    <contour>
      <point x="114" y="-4" type="curve" smooth="yes"/>
      <point x="142" y="-4"/>
      <point x="158" y="16"/>
      <point x="158" y="44" type="curve" smooth="yes"/>
      <point x="158" y="68"/>
      <point x="143" y="86"/>
      <point x="119" y="93" type="curve"/>
      <point x="122" y="136"/>
      <point x="139" y="180"/>
      <point x="167" y="228" type="curve"/>
      <point x="132" y="254" type="line"/>
      <point x="94" y="200"/>
      <point x="66" y="137"/>
      <point x="66" y="72" type="curve" smooth="yes"/>
      <point x="66" y="24"/>
      <point x="86" y="-4"/>
    </contour>
  </outline>
</glyph>
<glyph name="sadabove-ar" format="2">
  <unicode hex="0610"/>
  <anchor x="126" y="432" name="_top"/>
  <anchor x="132" y="736" name="top"/>
  <outline>
    <contour>
      <point x="29" y="469" type="curve"/>
      <point x="57" y="464" type="line"/>
      <point x="64" y="502"/>
      <point x="65" y="547"/>
      <point x="65" y="584" type="curve"/>
      <point x="55" y="585" type="line"/>
      <point x="61" y="562"/>
      <point x="84" y="548"/>
      <point x="138" y="548" type="curve" smooth="yes"/>
      <point x="206" y="548"/>
      <point x="244" y="573"/>
      <point x="244" y="632" type="curve" smooth="yes"/>
      <point x="244" y="678"/>
      <point x="221" y="707"/>
      <point x="185" y="707" type="curve" smooth="yes"/>
      <point x="135" y="707"/>
      <point x="98" y="641"/>
      <point x="72" y="587" type="curve"/>
      <point x="95" y="573" type="line"/>
      <point x="116" y="620"/>
      <point x="147" y="671"/>
      <point x="180" y="671" type="curve" smooth="yes"/>
      <point x="203" y="671"/>
      <point x="212" y="651"/>
      <point x="212" y="629" type="curve" smooth="yes"/>
      <point x="212" y="597"/>
      <point x="196" y="583"/>
      <point x="136" y="583" type="curve" smooth="yes"/>
      <point x="83" y="583"/>
      <point x="71" y="591"/>
      <point x="65" y="615" type="curve" smooth="yes"/>
      <point x="62" y="627"/>
      <point x="59" y="646"/>
      <point x="54" y="672" type="curve"/>
      <point x="26" y="665" type="line"/>
      <point x="32" y="633"/>
      <point x="37" y="601"/>
      <point x="37" y="568" type="curve" smooth="yes"/>
      <point x="37" y="545"/>
      <point x="36" y="506"/>
    </contour>
  </outline>
</glyph>
<glyph name="ainabove-ar" format="2">
  <unicode hex="0611"/>
  <anchor x="118" y="432" name="_top"/>
  <anchor x="124" y="736" name="top"/>
  <outline>
    <contour>
      <point x="29" y="469" type="curve"/>
      <point x="57" y="464" type="line"/>
      <point x="64" y="502"/>
      <point x="65" y="547"/>
      <point x="65" y="584" type="curve"/>
      <point x="55" y="585" type="line"/>
      <point x="61" y="562"/>
      <point x="87" y="548"/>
      <point x="139" y="548" type="curve" smooth="yes"/>
      <point x="160" y="548"/>
      <point x="194" y="555"/>
      <point x="221" y="569" type="curve"/>
      <point x="214" y="600" type="line"/>
      <point x="197" y="593"/>
      <point x="182" y="588"/>
      <point x="166" y="588" type="curve" smooth="yes"/>
      <point x="142" y="588"/>
      <point x="131" y="607"/>
      <point x="131" y="635" type="curve" smooth="yes"/>
      <point x="131" y="661"/>
      <point x="144" y="676"/>
      <point x="168" y="676" type="curve" smooth="yes"/>
      <point x="180" y="676"/>
      <point x="189" y="673"/>
      <point x="198" y="670" type="curve"/>
      <point x="202" y="701" type="line"/>
      <point x="191" y="707"/>
      <point x="179" y="710"/>
      <point x="166" y="710" type="curve" smooth="yes"/>
      <point x="126" y="710"/>
      <point x="102" y="681"/>
      <point x="102" y="634" type="curve" smooth="yes"/>
      <point x="102" y="597"/>
      <point x="115" y="578"/>
      <point x="134" y="570" type="curve"/>
      <point x="135" y="583" type="line"/>
      <point x="83" y="583"/>
      <point x="70" y="593"/>
      <point x="65" y="618" type="curve" smooth="yes"/>
      <point x="62" y="631"/>
      <point x="59" y="647"/>
      <point x="54" y="672" type="curve"/>
      <point x="26" y="665" type="line"/>
      <point x="32" y="633"/>
      <point x="37" y="603"/>
      <point x="37" y="568" type="curve" smooth="yes"/>
      <point x="37" y="545"/>
      <point x="36" y="506"/>
    </contour>
  </outline>
</glyph>
<glyph name="rehHahabove-ar" format="2">
  <unicode hex="0612"/>
  <anchor x="126" y="432" name="_top"/>
  <anchor x="127" y="730" name="top"/>
  <outline>
    <contour>
      <point x="19" y="486" type="curve"/>
      <point x="50" y="486" type="line"/>
      <point x="50" y="577"/>
      <point x="103" y="625"/>
      <point x="170" y="631" type="curve"/>
      <point x="170" y="664" type="line"/>
      <point x="124" y="666"/>
      <point x="92" y="698"/>
      <point x="52" y="698" type="curve" smooth="yes"/>
      <point x="38" y="698"/>
      <point x="26" y="695"/>
      <point x="16" y="689" type="curve"/>
      <point x="15" y="658" type="line"/>
      <point x="26" y="662"/>
      <point x="34" y="664"/>
      <point x="48" y="664" type="curve" smooth="yes"/>
      <point x="77" y="664"/>
      <point x="99" y="649"/>
      <point x="134" y="636" type="curve"/>
      <point x="135" y="654" type="line"/>
      <point x="55" y="632"/>
      <point x="19" y="569"/>
    </contour>
    <contour>
      <point x="161" y="490" type="curve" smooth="yes"/>
      <point x="217" y="490"/>
      <point x="249" y="527"/>
      <point x="249" y="593" type="curve" smooth="yes"/>
      <point x="249" y="625"/>
      <point x="242" y="655"/>
      <point x="232" y="684" type="curve"/>
      <point x="202" y="675" type="line"/>
      <point x="211" y="646"/>
      <point x="218" y="620"/>
      <point x="218" y="593" type="curve" smooth="yes"/>
      <point x="218" y="545"/>
      <point x="198" y="525"/>
      <point x="158" y="525" type="curve" smooth="yes"/>
      <point x="147" y="525"/>
      <point x="140" y="526"/>
      <point x="130" y="528" type="curve"/>
      <point x="128" y="496" type="line"/>
      <point x="137" y="492"/>
      <point x="149" y="490"/>
    </contour>
  </outline>
</glyph>
<glyph name="rehDadabove-ar" format="2">
  <unicode hex="0613"/>
  <anchor x="166" y="432" name="_top"/>
  <anchor x="168" y="736" name="top"/>
  <outline>
    <contour>
      <point x="243" y="490" type="curve" smooth="yes"/>
      <point x="299" y="490"/>
      <point x="331" y="527"/>
      <point x="331" y="593" type="curve" smooth="yes"/>
      <point x="331" y="625"/>
      <point x="324" y="655"/>
      <point x="314" y="684" type="curve"/>
      <point x="284" y="675" type="line"/>
      <point x="293" y="646"/>
      <point x="300" y="620"/>
      <point x="300" y="593" type="curve" smooth="yes"/>
      <point x="300" y="545"/>
      <point x="280" y="525"/>
      <point x="240" y="525" type="curve" smooth="yes"/>
      <point x="229" y="525"/>
      <point x="222" y="526"/>
      <point x="212" y="528" type="curve"/>
      <point x="210" y="496" type="line"/>
      <point x="219" y="492"/>
      <point x="231" y="490"/>
    </contour>
    <contour>
      <point x="82" y="703" type="curve" smooth="yes"/>
      <point x="92" y="703"/>
      <point x="100" y="714"/>
      <point x="100" y="726" type="curve" smooth="yes"/>
      <point x="100" y="740"/>
      <point x="92" y="750"/>
      <point x="82" y="750" type="curve" smooth="yes"/>
      <point x="71" y="750"/>
      <point x="63" y="740"/>
      <point x="63" y="726" type="curve" smooth="yes"/>
      <point x="63" y="714"/>
      <point x="71" y="703"/>
    </contour>
    <component base="sadabove-ar" xOffset="-5"/>
  </outline>
</glyph>
<glyph name="takhallusabove-ar" format="2">
  <unicode hex="0614"/>
  <anchor x="178" y="432" name="_top"/>
  <anchor x="178" y="678" name="top"/>
  <outline>
    <contour>
      <point x="150" y="496" type="curve" smooth="yes"/>
      <point x="186" y="496"/>
      <point x="220" y="507"/>
      <point x="226" y="544" type="curve"/>
      <point x="209" y="545" type="line"/>
      <point x="212" y="510"/>
      <point x="234" y="496"/>
      <point x="262" y="496" type="curve" smooth="yes"/>
      <point x="299" y="496"/>
      <point x="319" y="518"/>
      <point x="319" y="568" type="curve" smooth="yes"/>
      <point x="319" y="594"/>
      <point x="314" y="624"/>
      <point x="306" y="657" type="curve"/>
      <point x="276" y="650" type="line"/>
      <point x="283" y="618"/>
      <point x="287" y="592"/>
      <point x="287" y="568" type="curve" smooth="yes"/>
      <point x="287" y="543"/>
      <point x="280" y="533"/>
      <point x="261" y="533" type="curve" smooth="yes"/>
      <point x="244" y="533"/>
      <point x="237" y="541"/>
      <point x="235" y="563" type="curve" smooth="yes"/>
      <point x="234" y="577"/>
      <point x="234" y="598"/>
      <point x="233" y="625" type="curve"/>
      <point x="203" y="623" type="line"/>
      <point x="203" y="596"/>
      <point x="203" y="579"/>
      <point x="201" y="564" type="curve" smooth="yes"/>
      <point x="198" y="542"/>
      <point x="183" y="533"/>
      <point x="152" y="533" type="curve" smooth="yes"/>
      <point x="118" y="533"/>
      <point x="81" y="538"/>
      <point x="28" y="551" type="curve"/>
      <point x="24" y="515" type="line"/>
      <point x="78" y="500"/>
      <point x="115" y="496"/>
    </contour>
  </outline>
</glyph>
<glyph name="alefLamYehabove-ar" format="2">
  <unicode hex="0616"/>
  <anchor x="154" y="432" name="_top"/>
  <anchor x="159" y="805" name="top"/>
  <outline>
    <contour>
      <point x="148" y="485" type="curve" smooth="yes"/>
      <point x="190" y="485"/>
      <point x="245" y="493"/>
      <point x="276" y="502" type="curve"/>
      <point x="276" y="536" type="line"/>
      <point x="244" y="528"/>
      <point x="196" y="520"/>
      <point x="151" y="520" type="curve" smooth="yes"/>
      <point x="80" y="520"/>
      <point x="58" y="528"/>
      <point x="58" y="550" type="curve" smooth="yes"/>
      <point x="58" y="565"/>
      <point x="72" y="573"/>
      <point x="110" y="588" type="curve" smooth="yes"/>
      <point x="159" y="607"/>
      <point x="178" y="623"/>
      <point x="176" y="682" type="curve" smooth="yes"/>
      <point x="172" y="779" type="line"/>
      <point x="140" y="779" type="line"/>
      <point x="144" y="676" type="line" smooth="yes"/>
      <point x="145" y="645"/>
      <point x="134" y="635"/>
      <point x="104" y="622" type="curve" smooth="yes"/>
      <point x="52" y="599"/>
      <point x="24" y="583"/>
      <point x="24" y="547" type="curve" smooth="yes"/>
      <point x="24" y="498"/>
      <point x="73" y="485"/>
    </contour>
    <contour>
      <point x="229" y="584" type="line"/>
      <point x="261" y="585" type="line"/>
      <point x="253" y="779" type="line"/>
      <point x="221" y="779" type="line"/>
    </contour>
  </outline>
</glyph>
<glyph name="zainabove-ar" format="2">
  <unicode hex="0617"/>
  <anchor x="70" y="432" name="_top"/>
  <anchor x="67" y="760" name="top"/>
  <outline>
    <contour>
      <point x="46" y="490" type="curve" smooth="yes"/>
      <point x="103" y="490"/>
      <point x="135" y="527"/>
      <point x="135" y="593" type="curve" smooth="yes"/>
      <point x="135" y="625"/>
      <point x="129" y="655"/>
      <point x="118" y="684" type="curve"/>
      <point x="88" y="673" type="line"/>
      <point x="98" y="645"/>
      <point x="104" y="620"/>
      <point x="104" y="593" type="curve" smooth="yes"/>
      <point x="104" y="545"/>
      <point x="84" y="525"/>
      <point x="44" y="525" type="curve" smooth="yes"/>
      <point x="33" y="525"/>
      <point x="26" y="526"/>
      <point x="16" y="528" type="curve"/>
      <point x="14" y="496" type="line"/>
      <point x="23" y="492"/>
      <point x="35" y="490"/>
    </contour>
    <contour>
      <point x="97" y="708" type="curve" smooth="yes"/>
      <point x="109" y="708"/>
      <point x="116" y="719"/>
      <point x="116" y="731" type="curve" smooth="yes"/>
      <point x="116" y="744"/>
      <point x="109" y="755"/>
      <point x="97" y="755" type="curve" smooth="yes"/>
      <point x="85" y="755"/>
      <point x="78" y="744"/>
      <point x="78" y="731" type="curve" smooth="yes"/>
      <point x="78" y="719"/>
      <point x="85" y="708"/>
    </contour>
  </outline>
</glyph>
<glyph name="fathasmall-ar" format="2">
  <unicode hex="0618"/>
  <anchor x="99" y="464" name="_top"/>
  <anchor x="101" y="590" name="top"/>
  <outline>
    <contour>
      <point x="30" y="487" type="line"/>
      <point x="174" y="526" type="line"/>
      <point x="169" y="567" type="line"/>
      <point x="24" y="526" type="line"/>
    </contour>
  </outline>
</glyph>
<glyph name="dammasmall-ar" format="2">
  <unicode hex="0619"/>
  <anchor x="103" y="460" name="_top"/>
  <anchor x="109" y="742" name="top"/>
  <outline>
    <contour>
      <point x="26" y="480" type="line"/>
      <point x="120" y="492"/>
      <point x="187" y="544"/>
      <point x="187" y="634" type="curve" smooth="yes"/>
      <point x="187" y="689"/>
      <point x="159" y="723"/>
      <point x="120" y="723" type="curve" smooth="yes"/>
      <point x="78" y="723"/>
      <point x="49" y="690"/>
      <point x="49" y="639" type="curve" smooth="yes"/>
      <point x="49" y="592"/>
      <point x="77" y="552"/>
      <point x="111" y="533" type="curve"/>
      <point x="136" y="560" type="line"/>
      <point x="108" y="573"/>
      <point x="84" y="606"/>
      <point x="84" y="639" type="curve" smooth="yes"/>
      <point x="84" y="667"/>
      <point x="98" y="684"/>
      <point x="119" y="684" type="curve" smooth="yes"/>
      <point x="138" y="684"/>
      <point x="153" y="667"/>
      <point x="153" y="632" type="curve" smooth="yes"/>
      <point x="153" y="570"/>
      <point x="110" y="532"/>
      <point x="21" y="518" type="curve"/>
    </contour>
  </outline>
</glyph>
<glyph name="semicolon-ar" format="2">
  <advance width="232"/>
  <unicode hex="061B"/>
  <outline>
    <contour>
      <point x="75" y="251" type="curve"/>
      <point x="142" y="251" type="line"/>
      <point x="150" y="329"/>
      <point x="164" y="415"/>
      <point x="185" y="497" type="curve"/>
      <point x="130" y="497" type="line"/>
      <point x="103" y="418"/>
      <point x="85" y="330"/>
    </contour>
    <contour>
      <point x="112" y="-15" type="curve" smooth="yes"/>
      <point x="138" y="-15"/>
      <point x="159" y="1"/>
      <point x="159" y="41" type="curve" smooth="yes"/>
      <point x="159" y="81"/>
      <point x="138" y="97"/>
      <point x="112" y="97" type="curve" smooth="yes"/>
      <point x="86" y="97"/>
      <point x="65" y="81"/>
      <point x="65" y="41" type="curve" smooth="yes"/>
      <point x="65" y="1"/>
      <point x="86" y="-15"/>
    </contour>
  </outline>
</glyph>
<glyph name="question-ar" format="2">
  <advance width="361"/>
  <unicode hex="061F"/>
  <outline>
    <contour>
      <point x="180" y="204" type="curve"/>
      <point x="239" y="204" type="line"/>
      <point x="240" y="293"/>
      <point x="229" y="336"/>
      <point x="170" y="397" type="curve" smooth="yes"/>
      <point x="120" y="451"/>
      <point x="92" y="476"/>
      <point x="92" y="534" type="curve" smooth="yes"/>
      <point x="92" y="598"/>
      <point x="138" y="638"/>
      <point x="210" y="638" type="curve" smooth="yes"/>
      <point x="254" y="638"/>
      <point x="297" y="623"/>
      <point x="333" y="600" type="curve"/>
      <point x="351" y="668" type="line"/>
      <point x="316" y="692"/>
      <point x="262" y="712"/>
      <point x="209" y="712" type="curve" smooth="yes"/>
      <point x="94" y="712"/>
      <point x="24" y="640"/>
      <point x="24" y="539" type="curve" smooth="yes"/>
      <point x="24" y="457"/>
      <point x="62" y="415"/>
      <point x="122" y="351" type="curve" smooth="yes"/>
      <point x="168" y="303"/>
      <point x="181" y="268"/>
    </contour>
    <contour>
      <point x="206" y="-10" type="curve" smooth="yes"/>
      <point x="234" y="-10"/>
      <point x="253" y="10"/>
      <point x="253" y="46" type="curve" smooth="yes"/>
      <point x="253" y="82"/>
      <point x="234" y="101"/>
      <point x="206" y="101" type="curve" smooth="yes"/>
      <point x="178" y="101"/>
      <point x="160" y="82"/>
      <point x="160" y="46" type="curve" smooth="yes"/>
      <point x="160" y="10"/>
      <point x="178" y="-10"/>
    </contour>
  </outline>
</glyph>
<glyph name="hamza-ar" format="2">
  <advance width="366"/>
  <unicode hex="0621"/>
  <anchor x="190" y="-61" name="bottom"/>
  <anchor x="184" y="478" name="top"/>
  <outline>
    <contour>
      <point x="27" y="-36" type="line"/>
      <point x="124" y="-9"/>
      <point x="266" y="19"/>
      <point x="356" y="39" type="curve"/>
      <point x="349" y="112" type="line"/>
      <point x="297" y="102"/>
      <point x="249" y="91"/>
      <point x="212" y="91" type="curve" smooth="yes"/>
      <point x="148" y="91"/>
      <point x="120" y="145"/>
      <point x="120" y="209" type="curve" smooth="yes"/>
      <point x="120" y="285"/>
      <point x="154" y="323"/>
      <point x="218" y="323" type="curve" smooth="yes"/>
      <point x="251" y="323"/>
      <point x="277" y="315"/>
      <point x="304" y="303" type="curve"/>
      <point x="312" y="370" type="line"/>
      <point x="286" y="386"/>
      <point x="254" y="398"/>
      <point x="213" y="398" type="curve" smooth="yes"/>
      <point x="116" y="398"/>
      <point x="48" y="318"/>
      <point x="48" y="209" type="curve" smooth="yes"/>
      <point x="48" y="108"/>
      <point x="98" y="53"/>
      <point x="158" y="33" type="curve"/>
      <point x="166" y="76" type="line"/>
      <point x="122" y="66"/>
      <point x="69" y="52"/>
      <point x="18" y="37" type="curve"/>
    </contour>
  </outline>
</glyph>
<glyph name="alef-ar" format="2">
  <advance width="223"/>
  <unicode hex="0627"/>
  <anchor x="118" y="-111" name="bottom"/>
  <anchor x="118" y="-16" name="bottom.dot"/>
  <anchor x="105" y="756" name="top"/>
  <outline>
    <contour>
      <point x="83" y="0" type="line"/>
      <point x="155" y="0" type="line"/>
      <point x="139" y="732" type="line"/>
      <point x="67" y="732" type="line"/>
    </contour>
  </outline>
</glyph>
<glyph name="hah-ar" format="2">
  <advance width="572"/>
  <unicode hex="062D"/>
  <anchor x="266" y="-435" name="bottom"/>
  <anchor x="326" y="-36" name="center"/>
  <anchor x="271" y="610" name="top"/>
  <anchor x="269" y="504" name="top.dot"/>
  <outline>
    <contour>
      <point x="319" y="-394" type="curve" smooth="yes"/>
      <point x="400" y="-394"/>
      <point x="478" y="-374"/>
      <point x="523" y="-354" type="curve"/>
      <point x="523" y="-277" type="line"/>
      <point x="474" y="-293"/>
      <point x="410" y="-308"/>
      <point x="329" y="-308" type="curve" smooth="yes"/>
      <point x="189" y="-308"/>
      <point x="102" y="-236"/>
      <point x="102" y="-91" type="curve" smooth="yes"/>
      <point x="102" y="129"/>
      <point x="346" y="248"/>
      <point x="532" y="290" type="curve"/>
      <point x="535" y="367" type="line"/>
      <point x="493" y="365"/>
      <point x="460" y="373"/>
      <point x="426" y="384" type="curve" smooth="yes"/>
      <point x="324" y="411"/>
      <point x="250" y="495"/>
      <point x="152" y="495" type="curve" smooth="yes"/>
      <point x="113" y="495"/>
      <point x="82" y="485"/>
      <point x="55" y="470" type="curve"/>
      <point x="53" y="394" type="line"/>
      <point x="81" y="404"/>
      <point x="106" y="412"/>
      <point x="147" y="412" type="curve" smooth="yes"/>
      <point x="246" y="412"/>
      <point x="323" y="308"/>
      <point x="466" y="305" type="curve"/>
      <point x="457" y="337" type="line"/>
      <point x="258" y="287"/>
      <point x="30" y="153"/>
      <point x="30" y="-103" type="curve" smooth="yes"/>
      <point x="30" y="-286"/>
      <point x="131" y="-394"/>
    </contour>
  </outline>
</glyph>
<glyph name="dal-ar" format="2">
  <advance width="389"/>
  <unicode hex="062F"/>
  <anchor x="171" y="-111" name="bottom"/>
  <anchor x="174" y="-21" name="bottom.dot"/>
  <anchor x="188" y="620" name="top"/>
  <anchor x="188" y="506" name="top.dot"/>
  <outline>
    <contour>
      <point x="153" y="-10" type="curve" smooth="yes"/>
      <point x="278" y="-10"/>
      <point x="352" y="43"/>
      <point x="352" y="152" type="curve" smooth="yes"/>
      <point x="352" y="255"/>
      <point x="299" y="380"/>
      <point x="204" y="517" type="curve"/>
      <point x="147" y="467" type="line"/>
      <point x="229" y="349"/>
      <point x="280" y="231"/>
      <point x="280" y="167" type="curve" smooth="yes"/>
      <point x="280" y="105"/>
      <point x="239" y="76"/>
      <point x="156" y="76" type="curve" smooth="yes"/>
      <point x="114" y="76"/>
      <point x="62" y="87"/>
      <point x="26" y="105" type="curve"/>
      <point x="22" y="25" type="line"/>
      <point x="52" y="5"/>
      <point x="104" y="-10"/>
    </contour>
  </outline>
</glyph>
<glyph name="reh-ar" format="2">
  <advance width="366"/>
  <unicode hex="0631"/>
  <anchor x="104" y="-301" name="bottom"/>
  <anchor x="104" y="-252" name="bottom.dot"/>
  <anchor x="161" y="13" name="center"/>
  <anchor x="194" y="493" name="top"/>
  <anchor x="198" y="354" name="top.dot"/>
  <outline>
    <contour>
      <point x="66" y="-262" type="curve" smooth="yes"/>
      <point x="224" y="-262"/>
      <point x="310" y="-147"/>
      <point x="310" y="47" type="curve" smooth="yes"/>
      <point x="310" y="149"/>
      <point x="273" y="252"/>
      <point x="231" y="342" type="curve"/>
      <point x="168" y="306" type="line"/>
      <point x="208" y="217"/>
      <point x="240" y="122"/>
      <point x="240" y="41" type="curve" smooth="yes"/>
      <point x="240" y="-105"/>
      <point x="179" y="-182"/>
      <point x="58" y="-182" type="curve" smooth="yes"/>
      <point x="14" y="-182"/>
      <point x="-15" y="-174"/>
      <point x="-50" y="-160" type="curve"/>
      <point x="-47" y="-234" type="line"/>
      <point x="-20" y="-252"/>
      <point x="17" y="-262"/>
    </contour>
  </outline>
</glyph>
<glyph name="seen-ar" format="2">
  <advance width="1036"/>
  <unicode hex="0633"/>
  <anchor x="730" y="-111" name="bottom"/>
  <anchor x="730" y="-20" name="bottom.dot"/>
  <anchor x="737" y="483" name="top"/>
  <anchor x="738" y="361" name="top.dot"/>
  <outline>
    <contour>
      <point x="254" y="-237" type="curve" smooth="yes"/>
      <point x="422" y="-237"/>
      <point x="530" y="-117"/>
      <point x="520" y="100" type="curve"/>
      <point x="492" y="98" type="line"/>
      <point x="505" y="29"/>
      <point x="545" y="-10"/>
      <point x="612" y="-10" type="curve" smooth="yes"/>
      <point x="675" y="-10"/>
      <point x="731" y="20"/>
      <point x="748" y="117" type="curve"/>
      <point x="723" y="116" type="line"/>
      <point x="732" y="28"/>
      <point x="777" y="-10"/>
      <point x="852" y="-10" type="curve" smooth="yes"/>
      <point x="940" y="-10"/>
      <point x="990" y="55"/>
      <point x="990" y="174" type="curve" smooth="yes"/>
      <point x="990" y="245"/>
      <point x="977" y="316"/>
      <point x="952" y="403" type="curve"/>
      <point x="891" y="384" type="line"/>
      <point x="912" y="302"/>
      <point x="923" y="239"/>
      <point x="923" y="176" type="curve" smooth="yes"/>
      <point x="923" y="108"/>
      <point x="901" y="76"/>
      <point x="849" y="76" type="curve" smooth="yes"/>
      <point x="794" y="76"/>
      <point x="771" y="98"/>
      <point x="766" y="156" type="curve" smooth="yes"/>
      <point x="763" y="192"/>
      <point x="763" y="251"/>
      <point x="762" y="321" type="curve"/>
      <point x="702" y="316" type="line"/>
      <point x="703" y="246"/>
      <point x="702" y="195"/>
      <point x="696" y="160" type="curve" smooth="yes"/>
      <point x="686" y="102"/>
      <point x="663" y="76"/>
      <point x="609" y="76" type="curve" smooth="yes"/>
      <point x="566" y="76"/>
      <point x="533" y="97"/>
      <point x="522" y="147" type="curve" smooth="yes"/>
      <point x="511" y="185"/>
      <point x="505" y="234"/>
      <point x="492" y="306" type="curve"/>
      <point x="428" y="290" type="line"/>
      <point x="441" y="214"/>
      <point x="455" y="139"/>
      <point x="455" y="76" type="curve" smooth="yes"/>
      <point x="455" y="-59"/>
      <point x="398" y="-151"/>
      <point x="262" y="-151" type="curve" smooth="yes"/>
      <point x="151" y="-151"/>
      <point x="106" y="-85"/>
      <point x="106" y="28" type="curve" smooth="yes"/>
      <point x="106" y="86"/>
      <point x="114" y="137"/>
      <point x="128" y="198" type="curve"/>
      <point x="71" y="213" type="line"/>
      <point x="49" y="140"/>
      <point x="38" y="72"/>
      <point x="38" y="12" type="curve" smooth="yes"/>
      <point x="38" y="-140"/>
      <point x="111" y="-237"/>
    </contour>
  </outline>
</glyph>
<glyph name="sad-ar" format="2">
  <advance width="1076"/>
  <unicode hex="0635"/>
  <anchor x="751" y="-112" name="bottom"/>
  <anchor x="751" y="-20" name="bottom.dot"/>
  <anchor x="566" y="502" name="top"/>
  <anchor x="839" y="462" name="top.dot"/>
  <outline>
    <contour>
      <point x="254" y="-237" type="curve" smooth="yes"/>
      <point x="422" y="-237"/>
      <point x="530" y="-116"/>
      <point x="520" y="100" type="curve"/>
      <point x="493" y="90" type="line"/>
      <point x="523" y="19"/>
      <point x="570" y="-7"/>
      <point x="718" y="-7" type="curve" smooth="yes"/>
      <point x="946" y="-7"/>
      <point x="1039" y="73"/>
      <point x="1039" y="216" type="curve" smooth="yes"/>
      <point x="1039" y="338"/>
      <point x="979" y="439"/>
      <point x="877" y="439" type="curve" smooth="yes"/>
      <point x="747" y="439"/>
      <point x="628" y="273"/>
      <point x="528" y="82" type="curve"/>
      <point x="586" y="55" type="line"/>
      <point x="664" y="198"/>
      <point x="754" y="352"/>
      <point x="864" y="352" type="curve" smooth="yes"/>
      <point x="935" y="352"/>
      <point x="967" y="281"/>
      <point x="967" y="211" type="curve" smooth="yes"/>
      <point x="967" y="129"/>
      <point x="917" y="79"/>
      <point x="724" y="79" type="curve" smooth="yes"/>
      <point x="567" y="79"/>
      <point x="533" y="97"/>
      <point x="520" y="151" type="curve" smooth="yes"/>
      <point x="510" y="191"/>
      <point x="505" y="233"/>
      <point x="492" y="305" type="curve"/>
      <point x="434" y="288" type="line"/>
      <point x="448" y="208"/>
      <point x="461" y="139"/>
      <point x="461" y="76" type="curve" smooth="yes"/>
      <point x="461" y="-59"/>
      <point x="398" y="-151"/>
      <point x="262" y="-151" type="curve" smooth="yes"/>
      <point x="151" y="-151"/>
      <point x="100" y="-85"/>
      <point x="100" y="28" type="curve" smooth="yes"/>
      <point x="100" y="86"/>
      <point x="108" y="137"/>
      <point x="122" y="198" type="curve"/>
      <point x="71" y="213" type="line"/>
      <point x="49" y="140"/>
      <point x="38" y="72"/>
      <point x="38" y="12" type="curve" smooth="yes"/>
      <point x="38" y="-140"/>
      <point x="111" y="-237"/>
    </contour>
  </outline>
</glyph>
<glyph name="tah-ar" format="2">
  <advance width="698"/>
  <unicode hex="0637"/>
  <anchor x="338" y="-112" name="bottom"/>
  <anchor x="338" y="-20" name="bottom.dot"/>
  <anchor x="465" y="566" name="top"/>
  <anchor x="474" y="460" name="top.dot"/>
  <outline>
    <contour>
      <point x="300" y="-7" type="curve" smooth="yes"/>
      <point x="570" y="-7"/>
      <point x="661" y="77"/>
      <point x="661" y="216" type="curve" smooth="yes"/>
      <point x="661" y="335"/>
      <point x="600" y="439"/>
      <point x="498" y="439" type="curve" smooth="yes"/>
      <point x="374" y="439"/>
      <point x="244" y="254"/>
      <point x="143" y="63" type="curve"/>
      <point x="201" y="42" type="line"/>
      <point x="274" y="185"/>
      <point x="375" y="352"/>
      <point x="485" y="352" type="curve" smooth="yes"/>
      <point x="560" y="352"/>
      <point x="589" y="281"/>
      <point x="589" y="211" type="curve" smooth="yes"/>
      <point x="589" y="123"/>
      <point x="525" y="79"/>
      <point x="309" y="79" type="curve" smooth="yes"/>
      <point x="229" y="79"/>
      <point x="125" y="80"/>
      <point x="29" y="89" type="curve"/>
      <point x="24" y="5" type="line"/>
      <point x="107" y="-4"/>
      <point x="208" y="-7"/>
    </contour>
    <contour>
      <point x="206" y="114" type="line"/>
      <point x="264" y="218" type="line"/>
      <point x="250" y="732" type="line"/>
      <point x="190" y="732" type="line"/>
    </contour>
  </outline>
</glyph>
<glyph name="ain-ar" format="2">
  <advance width="454"/>
  <unicode hex="0639"/>
  <anchor x="266" y="-435" name="bottom"/>
  <anchor x="294" y="-89" name="center"/>
  <anchor x="227" y="653" name="top"/>
  <anchor x="227" y="534" name="top.dot"/>
  <outline>
    <contour>
      <point x="276" y="-388" type="curve" smooth="yes"/>
      <point x="344" y="-388"/>
      <point x="420" y="-370"/>
      <point x="469" y="-346" type="curve"/>
      <point x="469" y="-267" type="line"/>
      <point x="414" y="-289"/>
      <point x="345" y="-302"/>
      <point x="282" y="-302" type="curve" smooth="yes"/>
      <point x="164" y="-302"/>
      <point x="93" y="-254"/>
      <point x="93" y="-131" type="curve" smooth="yes"/>
      <point x="93" y="-44"/>
      <point x="134" y="27"/>
      <point x="221" y="76" type="curve" smooth="yes"/>
      <point x="266" y="102"/>
      <point x="345" y="124"/>
      <point x="412" y="143" type="curve"/>
      <point x="406" y="223" type="line"/>
      <point x="348" y="207"/>
      <point x="289" y="188"/>
      <point x="250" y="188" type="curve" smooth="yes"/>
      <point x="182" y="188"/>
      <point x="132" y="229"/>
      <point x="132" y="319" type="curve" smooth="yes"/>
      <point x="132" y="407"/>
      <point x="178" y="458"/>
      <point x="258" y="458" type="curve" smooth="yes"/>
      <point x="297" y="458"/>
      <point x="329" y="448"/>
      <point x="360" y="437" type="curve"/>
      <point x="366" y="515" type="line"/>
      <point x="336" y="533"/>
      <point x="298" y="544"/>
      <point x="253" y="544" type="curve" smooth="yes"/>
      <point x="135" y="544"/>
      <point x="60" y="451"/>
      <point x="60" y="320" type="curve" smooth="yes"/>
      <point x="60" y="198"/>
      <point x="136" y="126"/>
      <point x="210" y="113" type="curve"/>
      <point x="217" y="150" type="line"/>
      <point x="112" y="97"/>
      <point x="21" y="5"/>
      <point x="21" y="-141" type="curve" smooth="yes"/>
      <point x="21" y="-302"/>
      <point x="124" y="-388"/>
    </contour>
  </outline>
</glyph>
<glyph name="kashida-ar" format="2">
  <advance width="230"/>
  <unicode hex="0640"/>
  <outline>
    <contour>
      <point x="0" y="-7" type="line"/>
      <point x="230" y="-7" type="line" smooth="yes"/>
      <point x="254" y="-7"/>
      <point x="268" y="13"/>
      <point x="268" y="36" type="curve" smooth="yes"/>
      <point x="268" y="58"/>
      <point x="258" y="79"/>
      <point x="235" y="79" type="curve" smooth="yes"/>
      <point x="5" y="79" type="line"/>
    </contour>
  </outline>
</glyph>
<glyph name="kaf-ar" format="2">
  <advance width="752"/>
  <unicode hex="0643"/>
  <anchor x="360" y="-111" name="bottom"/>
  <anchor x="361" y="-20" name="bottom.dot"/>
  <anchor x="369" y="632" name="top"/>
  <anchor x="369" y="611" name="top.dot"/>
  <outline>
    <contour>
      <point x="330" y="-15" type="line"/>
      <point x="598" y="-15"/>
      <point x="690" y="75"/>
      <point x="684" y="280" type="curve" smooth="yes"/>
      <point x="670" y="732" type="line"/>
      <point x="598" y="732" type="line"/>
      <point x="613" y="271" type="line" smooth="yes"/>
      <point x="618" y="120"/>
      <point x="534" y="71"/>
      <point x="351" y="71" type="curve"/>
    </contour>
    <contour>
      <point x="268" y="287" type="line"/>
      <point x="375" y="286"/>
      <point x="448" y="318"/>
      <point x="448" y="384" type="curve" smooth="yes"/>
      <point x="448" y="418"/>
      <point x="430" y="438"/>
      <point x="390" y="459" type="curve" smooth="yes"/>
      <point x="353" y="478"/>
      <point x="342" y="486"/>
      <point x="342" y="500" type="curve" smooth="yes"/>
      <point x="342" y="521"/>
      <point x="362" y="539"/>
      <point x="438" y="558" type="curve"/>
      <point x="434" y="614" type="line"/>
      <point x="326" y="587"/>
      <point x="284" y="543"/>
      <point x="284" y="492" type="curve" smooth="yes"/>
      <point x="284" y="456"/>
      <point x="306" y="437"/>
      <point x="349" y="416" type="curve" smooth="yes"/>
      <point x="381" y="400"/>
      <point x="390" y="392"/>
      <point x="390" y="379" type="curve" smooth="yes"/>
      <point x="390" y="357"/>
      <point x="348" y="340"/>
      <point x="263" y="339" type="curve"/>
    </contour>
    <component base="_part.beh.fina" xOffset="-3"/>
  </outline>
</glyph>
<glyph name="lam-ar" format="2">
  <advance width="562"/>
  <unicode hex="0644"/>
  <anchor x="258" y="-272" name="bottom"/>
  <anchor x="258" y="-219" name="bottom.dot"/>
  <anchor x="452" y="418" name="center"/>
  <anchor x="166" y="498" name="top"/>
  <anchor x="444" y="726" name="top.dot"/>
  <outline>
    <contour>
      <point x="252" y="-236" type="curve" smooth="yes"/>
      <point x="406" y="-236"/>
      <point x="501" y="-130"/>
      <point x="494" y="148" type="curve" smooth="yes"/>
      <point x="480" y="732" type="line"/>
      <point x="408" y="732" type="line"/>
      <point x="423" y="147" type="line" smooth="yes"/>
      <point x="429" y="-80"/>
      <point x="371" y="-150"/>
      <point x="258" y="-150" type="curve" smooth="yes"/>
      <point x="154" y="-150"/>
      <point x="100" y="-91"/>
      <point x="100" y="28" type="curve" smooth="yes"/>
      <point x="100" y="92"/>
      <point x="110" y="139"/>
      <point x="123" y="198" type="curve"/>
      <point x="71" y="213" type="line"/>
      <point x="50" y="147"/>
      <point x="38" y="80"/>
      <point x="38" y="12" type="curve" smooth="yes"/>
      <point x="38" y="-146"/>
      <point x="114" y="-236"/>
    </contour>
  </outline>
</glyph>
<glyph name="meem-ar" format="2">
  <advance width="450"/>
  <unicode hex="0645"/>
  <anchor x="254" y="-111" name="bottom"/>
  <anchor x="254" y="-20" name="bottom.dot"/>
  <anchor x="222" y="528" name="top"/>
  <anchor x="224" y="425" name="top.dot"/>
  <outline>
    <contour>
      <point x="48" y="-389" type="curve"/>
      <point x="120" y="-386" type="line"/>
      <point x="113" y="-273"/>
      <point x="103" y="-162"/>
      <point x="103" y="-95" type="curve" smooth="yes"/>
      <point x="103" y="10"/>
      <point x="141" y="51"/>
      <point x="242" y="51" type="curve" smooth="yes"/>
      <point x="297" y="51"/>
      <point x="352" y="43"/>
      <point x="404" y="32" type="curve"/>
      <point x="422" y="112" type="line"/>
      <point x="386" y="275"/>
      <point x="323" y="423"/>
      <point x="222" y="423" type="curve" smooth="yes"/>
      <point x="155" y="423"/>
      <point x="98" y="368"/>
      <point x="66" y="257" type="curve"/>
      <point x="119" y="231" type="line"/>
      <point x="145" y="302"/>
      <point x="169" y="336"/>
      <point x="210" y="336" type="curve" smooth="yes"/>
      <point x="277" y="336"/>
      <point x="323" y="234"/>
      <point x="354" y="100" type="curve"/>
      <point x="386" y="116" type="line"/>
      <point x="345" y="124"/>
      <point x="293" y="134"/>
      <point x="233" y="134" type="curve" smooth="yes"/>
      <point x="104" y="134"/>
      <point x="30" y="66"/>
      <point x="30" y="-88" type="curve" smooth="yes"/>
      <point x="30" y="-169"/>
      <point x="38" y="-262"/>
    </contour>
  </outline>
</glyph>
<glyph name="heh-ar" format="2">
  <advance width="394"/>
  <unicode hex="0647"/>
  <anchor x="191" y="-111" name="bottom"/>
  <anchor x="182" y="612" name="top"/>
  <anchor x="182" y="543" name="top.dot"/>
  <outline>
    <contour>
      <point x="190" y="-4" type="curve" smooth="yes"/>
      <point x="309" y="-4"/>
      <point x="368" y="77"/>
      <point x="368" y="191" type="curve" smooth="yes"/>
      <point x="368" y="319"/>
      <point x="300" y="425"/>
      <point x="160" y="543" type="curve"/>
      <point x="116" y="481" type="line"/>
      <point x="253" y="365"/>
      <point x="302" y="278"/>
      <point x="302" y="194" type="curve" smooth="yes"/>
      <point x="302" y="125"/>
      <point x="272" y="82"/>
      <point x="194" y="82" type="curve" smooth="yes"/>
      <point x="129" y="82"/>
      <point x="93" y="126"/>
      <point x="93" y="191" type="curve" smooth="yes"/>
      <point x="93" y="276"/>
      <point x="143" y="349"/>
      <point x="217" y="429" type="curve"/>
      <point x="176" y="473" type="line"/>
      <point x="85" y="371"/>
      <point x="29" y="284"/>
      <point x="29" y="173" type="curve" smooth="yes"/>
      <point x="29" y="68"/>
      <point x="86" y="-4"/>
    </contour>
  </outline>
</glyph>
<glyph name="waw-ar" format="2">
  <advance width="392"/>
  <unicode hex="0648"/>
  <anchor x="169" y="-296" name="bottom"/>
  <anchor x="201" y="-84" name="center"/>
  <anchor x="196" y="454" name="top"/>
  <anchor x="196" y="384" name="top.dot"/>
  <outline>
    <contour>
      <point x="124" y="-262" type="curve" smooth="yes"/>
      <point x="273" y="-261"/>
      <point x="356" y="-128"/>
      <point x="356" y="70" type="curve" smooth="yes"/>
      <point x="356" y="257"/>
      <point x="299" y="383"/>
      <point x="196" y="383" type="curve" smooth="yes"/>
      <point x="109" y="383"/>
      <point x="46" y="280"/>
      <point x="46" y="155" type="curve" smooth="yes"/>
      <point x="46" y="46"/>
      <point x="94" y="-11"/>
      <point x="197" y="-11" type="curve" smooth="yes"/>
      <point x="245" y="-11"/>
      <point x="294" y="6"/>
      <point x="325" y="27" type="curve"/>
      <point x="325" y="104" type="line"/>
      <point x="286" y="82"/>
      <point x="247" y="71"/>
      <point x="206" y="71" type="curve" smooth="yes"/>
      <point x="130" y="71"/>
      <point x="108" y="101"/>
      <point x="108" y="168" type="curve" smooth="yes"/>
      <point x="108" y="242"/>
      <point x="138" y="304"/>
      <point x="193" y="304" type="curve" smooth="yes"/>
      <point x="258" y="304"/>
      <point x="294" y="231"/>
      <point x="294" y="69" type="curve" smooth="yes"/>
      <point x="294" y="-93"/>
      <point x="241" y="-183"/>
      <point x="117" y="-185" type="curve" smooth="yes"/>
      <point x="78" y="-186"/>
      <point x="40" y="-177"/>
      <point x="8" y="-163" type="curve"/>
      <point x="10" y="-234" type="line"/>
      <point x="38" y="-252"/>
      <point x="80" y="-263"/>
    </contour>
  </outline>
</glyph>
<glyph name="alefMaksura-ar" format="2">
  <advance width="649"/>
  <unicode hex="0649"/>
  <anchor x="281" y="-273" name="bottom"/>
  <anchor x="281" y="-236" name="bottom.dot"/>
  <anchor x="186" y="352" name="top"/>
  <anchor x="109" y="202" name="top.dot"/>
  <outline>
    <contour>
      <point x="273" y="-237" type="curve" smooth="yes"/>
      <point x="474" y="-237"/>
      <point x="593" y="-100"/>
      <point x="593" y="23" type="curve" smooth="yes"/>
      <point x="593" y="99"/>
      <point x="552" y="122"/>
      <point x="452" y="150" type="curve" smooth="yes"/>
      <point x="378" y="171"/>
      <point x="353" y="187"/>
      <point x="353" y="232" type="curve" smooth="yes"/>
      <point x="353" y="299"/>
      <point x="410" y="378"/>
      <point x="503" y="378" type="curve" smooth="yes"/>
      <point x="538" y="378"/>
      <point x="570" y="367"/>
      <point x="601" y="348" type="curve"/>
      <point x="616" y="427" type="line"/>
      <point x="590" y="448"/>
      <point x="552" y="463"/>
      <point x="507" y="463" type="curve" smooth="yes"/>
      <point x="384" y="463"/>
      <point x="289" y="341"/>
      <point x="289" y="218" type="curve" smooth="yes"/>
      <point x="289" y="139"/>
      <point x="329" y="100"/>
      <point x="426" y="73" type="curve" smooth="yes"/>
      <point x="505" y="52"/>
      <point x="521" y="40"/>
      <point x="521" y="5" type="curve" smooth="yes"/>
      <point x="521" y="-66"/>
      <point x="433" y="-151"/>
      <point x="284" y="-151" type="curve" smooth="yes"/>
      <point x="160" y="-151"/>
      <point x="100" y="-101"/>
      <point x="100" y="16" type="curve" smooth="yes"/>
      <point x="100" y="68"/>
      <point x="109" y="127"/>
      <point x="127" y="191" type="curve"/>
      <point x="76" y="207" type="line"/>
      <point x="48" y="128"/>
      <point x="38" y="56"/>
      <point x="38" y="-1" type="curve" smooth="yes"/>
      <point x="38" y="-165"/>
      <point x="127" y="-237"/>
    </contour>
  </outline>
</glyph>
<glyph name="fathatan-ar" format="2">
  <unicode hex="064B"/>
  <anchor x="123" y="464" name="_top"/>
  <anchor x="122" y="686" name="top"/>
  <outline>
    <contour>
      <point x="30" y="584" type="line"/>
      <point x="211" y="633" type="line"/>
      <point x="206" y="676" type="line"/>
      <point x="24" y="626" type="line"/>
    </contour>
    <contour>
      <point x="30" y="471" type="line"/>
      <point x="211" y="520" type="line"/>
      <point x="206" y="562" type="line"/>
      <point x="24" y="512" type="line"/>
    </contour>
  </outline>
</glyph>
<glyph name="dammatan-ar" format="2">
  <unicode hex="064C"/>
  <anchor x="145" y="464" name="_top"/>
  <anchor x="146" y="706" name="top"/>
  <outline>
    <contour>
      <point x="41" y="484" type="line"/>
      <point x="183" y="491"/>
      <point x="260" y="555"/>
      <point x="260" y="644" type="curve" smooth="yes"/>
      <point x="260" y="694"/>
      <point x="238" y="726"/>
      <point x="199" y="726" type="curve" smooth="yes"/>
      <point x="160" y="726"/>
      <point x="133" y="694"/>
      <point x="133" y="645" type="curve" smooth="yes"/>
      <point x="133" y="604"/>
      <point x="156" y="564"/>
      <point x="184" y="546" type="curve"/>
      <point x="206" y="572" type="line"/>
      <point x="182" y="588"/>
      <point x="168" y="617"/>
      <point x="168" y="644" type="curve" smooth="yes"/>
      <point x="168" y="670"/>
      <point x="179" y="685"/>
      <point x="199" y="685" type="curve" smooth="yes"/>
      <point x="217" y="685"/>
      <point x="227" y="667"/>
      <point x="227" y="640" type="curve" smooth="yes"/>
      <point x="227" y="575"/>
      <point x="154" y="535"/>
      <point x="79" y="527" type="curve"/>
      <point x="76" y="511" type="line"/>
      <point x="104" y="514"/>
      <point x="119" y="537"/>
      <point x="119" y="577" type="curve" smooth="yes"/>
      <point x="119" y="620"/>
      <point x="100" y="649"/>
      <point x="69" y="649" type="curve" smooth="yes"/>
      <point x="51" y="649"/>
      <point x="36" y="641"/>
      <point x="24" y="631" type="curve"/>
      <point x="32" y="600" type="line"/>
      <point x="41" y="605"/>
      <point x="50" y="609"/>
      <point x="61" y="609" type="curve" smooth="yes"/>
      <point x="78" y="609"/>
      <point x="85" y="593"/>
      <point x="85" y="571" type="curve" smooth="yes"/>
      <point x="85" y="550"/>
      <point x="78" y="527"/>
      <point x="37" y="522" type="curve"/>
    </contour>
  </outline>
</glyph>
<glyph name="fatha-ar" format="2">
  <unicode hex="064E"/>
  <anchor x="118" y="452" name="_top"/>
  <anchor x="119" y="432" name="_top.dot"/>
  <anchor x="110" y="569" name="top"/>
  <outline>
    <contour>
      <point x="30" y="475" type="line"/>
      <point x="211" y="523" type="line"/>
      <point x="206" y="564" type="line"/>
      <point x="24" y="514" type="line"/>
    </contour>
  </outline>
</glyph>
<glyph name="shadda-ar" format="2">
  <unicode hex="0651"/>
  <anchor x="129" y="464" name="_top"/>
  <anchor x="128" y="669" name="top"/>
  <outline>
    <contour>
      <point x="75" y="481" type="curve" smooth="yes"/>
      <point x="108" y="481"/>
      <point x="133" y="517"/>
      <point x="133" y="569" type="curve"/>
      <point x="117" y="571" type="line"/>
      <point x="118" y="530"/>
      <point x="141" y="510"/>
      <point x="164" y="510" type="curve" smooth="yes"/>
      <point x="205" y="510"/>
      <point x="223" y="547"/>
      <point x="223" y="597" type="curve" smooth="yes"/>
      <point x="223" y="627"/>
      <point x="218" y="652"/>
      <point x="210" y="677" type="curve"/>
      <point x="180" y="666" type="line"/>
      <point x="185" y="643"/>
      <point x="188" y="623"/>
      <point x="188" y="599" type="curve" smooth="yes"/>
      <point x="188" y="568"/>
      <point x="180" y="555"/>
      <point x="162" y="555" type="curve" smooth="yes"/>
      <point x="146" y="555"/>
      <point x="141" y="566"/>
      <point x="141" y="596" type="curve" smooth="yes"/>
      <point x="141" y="649" type="line"/>
      <point x="108" y="638" type="line"/>
      <point x="108" y="600" type="line" smooth="yes"/>
      <point x="108" y="545"/>
      <point x="98" y="527"/>
      <point x="79" y="527" type="curve" smooth="yes"/>
      <point x="62" y="527"/>
      <point x="58" y="540"/>
      <point x="58" y="567" type="curve" smooth="yes"/>
      <point x="58" y="582"/>
      <point x="60" y="598"/>
      <point x="62" y="621" type="curve"/>
      <point x="29" y="611" type="line"/>
      <point x="26" y="591"/>
      <point x="24" y="576"/>
      <point x="24" y="562" type="curve" smooth="yes"/>
      <point x="24" y="513"/>
      <point x="37" y="481"/>
    </contour>
  </outline>
</glyph>
<glyph name="madda-ar" format="2">
  <unicode hex="0653"/>
  <anchor x="130" y="463" name="_top"/>
  <anchor x="130" y="432" name="_top.dot"/>
  <anchor x="133" y="612" name="top"/>
  <outline>
    <contour>
      <point x="179" y="494" type="curve" smooth="yes"/>
      <point x="210" y="494"/>
      <point x="237" y="512"/>
      <point x="261" y="549" type="curve"/>
      <point x="236" y="582" type="line"/>
      <point x="217" y="561"/>
      <point x="202" y="543"/>
      <point x="181" y="543" type="curve" smooth="yes"/>
      <point x="141" y="543"/>
      <point x="111" y="589"/>
      <point x="72" y="589" type="curve" smooth="yes"/>
      <point x="39" y="589"/>
      <point x="16" y="564"/>
      <point x="-3" y="532" type="curve"/>
      <point x="23" y="502" type="line"/>
      <point x="39" y="523"/>
      <point x="50" y="539"/>
      <point x="71" y="539" type="curve" smooth="yes"/>
      <point x="98" y="539"/>
      <point x="132" y="494"/>
    </contour>
  </outline>
</glyph>
<glyph name="noonghunnaabove-ar" format="2">
  <unicode hex="0658"/>
  <anchor x="112" y="463" name="_top"/>
  <anchor x="114" y="694" name="top"/>
  <outline>
    <contour>
      <point x="107" y="486" type="curve" smooth="yes"/>
      <point x="173" y="486"/>
      <point x="208" y="524"/>
      <point x="208" y="603" type="curve" smooth="yes"/>
      <point x="208" y="632"/>
      <point x="204" y="662"/>
      <point x="199" y="686" type="curve"/>
      <point x="166" y="679" type="line"/>
      <point x="170" y="655"/>
      <point x="173" y="627"/>
      <point x="173" y="605" type="curve" smooth="yes"/>
      <point x="173" y="549"/>
      <point x="150" y="527"/>
      <point x="108" y="527" type="curve" smooth="yes"/>
      <point x="69" y="527"/>
      <point x="53" y="549"/>
      <point x="53" y="594" type="curve" smooth="yes"/>
      <point x="53" y="615"/>
      <point x="56" y="635"/>
      <point x="59" y="655" type="curve"/>
      <point x="28" y="660" type="line"/>
      <point x="23" y="638"/>
      <point x="20" y="614"/>
      <point x="20" y="589" type="curve" smooth="yes"/>
      <point x="20" y="522"/>
      <point x="48" y="486"/>
    </contour>
  </outline>
</glyph>
<glyph name="fathaHorizont-ar" format="2">
  <unicode hex="0659"/>
  <anchor x="121" y="485" name="_top"/>
  <anchor x="118" y="653" name="top"/>
  <outline>
    <contour>
      <point x="24" y="566" type="line"/>
      <point x="213" y="566" type="line"/>
      <point x="213" y="604" type="line"/>
      <point x="24" y="603" type="line"/>
    </contour>
  </outline>
</glyph>
<glyph name="fathatwodots-ar" format="2">
  <unicode hex="065E"/>
  <anchor x="116" y="466" name="_top"/>
  <anchor x="119" y="767" name="top"/>
  <outline>
    <contour>
      <point x="27" y="505" type="line"/>
      <point x="200" y="679" type="line"/>
      <point x="200" y="730" type="line"/>
      <point x="27" y="556" type="line"/>
    </contour>
    <contour>
      <point x="168" y="486" type="curve"/>
      <point x="205" y="530" type="line"/>
      <point x="189" y="551"/>
      <point x="180" y="560"/>
      <point x="164" y="575" type="curve"/>
      <point x="127" y="530" type="line"/>
      <point x="145" y="512"/>
      <point x="154" y="502"/>
    </contour>
    <contour>
      <point x="66" y="666" type="curve"/>
      <point x="103" y="710" type="line"/>
      <point x="87" y="731"/>
      <point x="79" y="740"/>
      <point x="62" y="755" type="curve"/>
      <point x="25" y="710" type="line"/>
      <point x="43" y="692"/>
      <point x="52" y="682"/>
    </contour>
  </outline>
</glyph>
<glyph name="zero-ar" format="2">
  <advance width="244"/>
  <unicode hex="0660"/>
  <outline>
    <contour>
      <point x="126" y="156" type="curve"/>
      <point x="182" y="227" type="line"/>
      <point x="162" y="256"/>
      <point x="141" y="283"/>
      <point x="117" y="309" type="curve"/>
      <point x="62" y="235" type="line"/>
      <point x="87" y="207"/>
      <point x="102" y="188"/>
    </contour>
  </outline>
</glyph>
<glyph name="one-ar" format="2">
  <advance width="267"/>
  <unicode hex="0661"/>
  <outline>
    <contour>
      <point x="134" y="-6" type="curve"/>
      <point x="201" y="-2" type="line"/>
      <point x="195" y="213"/>
      <point x="171" y="464"/>
      <point x="123" y="675" type="curve"/>
      <point x="54" y="657" type="line"/>
      <point x="100" y="449"/>
      <point x="126" y="201"/>
    </contour>
  </outline>
</glyph>
<glyph name="two-ar" format="2">
  <advance width="409"/>
  <unicode hex="0662"/>
  <outline>
    <contour>
      <point x="131" y="-7" type="curve"/>
      <point x="201" y="-2" type="line"/>
      <point x="177" y="236"/>
      <point x="121" y="422"/>
      <point x="121" y="507" type="curve" smooth="yes"/>
      <point x="121" y="565"/>
      <point x="149" y="593"/>
      <point x="244" y="593" type="curve" smooth="yes"/>
      <point x="285" y="593"/>
      <point x="334" y="587"/>
      <point x="376" y="577" type="curve"/>
      <point x="381" y="660" type="line"/>
      <point x="338" y="672"/>
      <point x="290" y="679"/>
      <point x="241" y="679" type="curve" smooth="yes"/>
      <point x="111" y="679"/>
      <point x="48" y="625"/>
      <point x="48" y="525" type="curve" smooth="yes"/>
      <point x="48" y="428"/>
      <point x="106" y="223"/>
    </contour>
  </outline>
</glyph>
<glyph name="three-ar" format="2">
  <advance width="530"/>
  <unicode hex="0663"/>
  <outline>
    <contour>
      <point x="120" y="-6" type="curve"/>
      <point x="188" y="-3" type="line"/>
      <point x="180" y="174"/>
      <point x="165" y="363"/>
      <point x="133" y="518" type="curve"/>
      <point x="103" y="465" type="line"/>
      <point x="117" y="423"/>
      <point x="144" y="392"/>
      <point x="196" y="391" type="curve" smooth="yes"/>
      <point x="251" y="390"/>
      <point x="289" y="420"/>
      <point x="301" y="475" type="curve"/>
      <point x="279" y="475" type="line"/>
      <point x="285" y="424"/>
      <point x="316" y="393"/>
      <point x="372" y="394" type="curve" smooth="yes"/>
      <point x="447" y="395"/>
      <point x="488" y="450"/>
      <point x="488" y="550" type="curve" smooth="yes"/>
      <point x="488" y="584"/>
      <point x="483" y="634"/>
      <point x="471" y="686" type="curve"/>
      <point x="415" y="673" type="line"/>
      <point x="423" y="631"/>
      <point x="428" y="596"/>
      <point x="428" y="559" type="curve" smooth="yes"/>
      <point x="428" y="504"/>
      <point x="418" y="471"/>
      <point x="375" y="471" type="curve" smooth="yes"/>
      <point x="337" y="471"/>
      <point x="326" y="488"/>
      <point x="321" y="522" type="curve" smooth="yes"/>
      <point x="317" y="552"/>
      <point x="318" y="603"/>
      <point x="318" y="664" type="curve"/>
      <point x="259" y="665" type="line"/>
      <point x="259" y="598"/>
      <point x="259" y="553"/>
      <point x="255" y="524" type="curve" smooth="yes"/>
      <point x="250" y="490"/>
      <point x="233" y="468"/>
      <point x="193" y="468" type="curve" smooth="yes"/>
      <point x="155" y="468"/>
      <point x="141" y="488"/>
      <point x="133" y="528" type="curve" smooth="yes"/>
      <point x="126" y="562"/>
      <point x="118" y="611"/>
      <point x="106" y="671" type="curve"/>
      <point x="39" y="655" type="line"/>
      <point x="86" y="431"/>
      <point x="110" y="197"/>
    </contour>
  </outline>
</glyph>
<glyph name="four-ar" format="2">
  <advance width="388"/>
  <unicode hex="0664"/>
  <outline>
    <contour>
      <point x="220" y="-8" type="curve" smooth="yes"/>
      <point x="276" y="-8"/>
      <point x="332" y="7"/>
      <point x="372" y="30" type="curve"/>
      <point x="365" y="101" type="line"/>
      <point x="327" y="86"/>
      <point x="277" y="71"/>
      <point x="226" y="71" type="curve" smooth="yes"/>
      <point x="148" y="71"/>
      <point x="117" y="97"/>
      <point x="117" y="151" type="curve" smooth="yes"/>
      <point x="117" y="210"/>
      <point x="184" y="269"/>
      <point x="293" y="310" type="curve"/>
      <point x="289" y="383" type="line"/>
      <point x="185" y="383"/>
      <point x="118" y="409"/>
      <point x="118" y="463" type="curve" smooth="yes"/>
      <point x="118" y="521"/>
      <point x="185" y="573"/>
      <point x="288" y="605" type="curve"/>
      <point x="281" y="681" type="line"/>
      <point x="144" y="634"/>
      <point x="46" y="556"/>
      <point x="46" y="457" type="curve" smooth="yes"/>
      <point x="46" y="374"/>
      <point x="127" y="325"/>
      <point x="234" y="321" type="curve"/>
      <point x="233" y="355" type="line"/>
      <point x="113" y="299"/>
      <point x="46" y="220"/>
      <point x="46" y="140" type="curve" smooth="yes"/>
      <point x="46" y="50"/>
      <point x="99" y="-8"/>
    </contour>
  </outline>
</glyph>
<glyph name="five-ar" format="2">
  <advance width="416"/>
  <unicode hex="0665"/>
  <outline>
    <contour>
      <point x="206" y="0" type="curve" smooth="yes"/>
      <point x="312" y="0"/>
      <point x="376" y="80"/>
      <point x="376" y="236" type="curve" smooth="yes"/>
      <point x="376" y="400"/>
      <point x="312" y="517"/>
      <point x="214" y="517" type="curve" smooth="yes"/>
      <point x="118" y="517"/>
      <point x="40" y="397"/>
      <point x="40" y="225" type="curve" smooth="yes"/>
      <point x="40" y="71"/>
      <point x="105" y="0"/>
    </contour>
    <contour>
      <point x="207" y="80" type="curve" smooth="yes"/>
      <point x="143" y="80"/>
      <point x="106" y="124"/>
      <point x="106" y="231" type="curve" smooth="yes"/>
      <point x="106" y="354"/>
      <point x="147" y="437"/>
      <point x="212" y="437" type="curve" smooth="yes"/>
      <point x="273" y="437"/>
      <point x="310" y="360"/>
      <point x="310" y="235" type="curve" smooth="yes"/>
      <point x="310" y="126"/>
      <point x="272" y="80"/>
    </contour>
  </outline>
</glyph>
<glyph name="six-ar" format="2">
  <advance width="413"/>
  <unicode hex="0666"/>
  <outline>
    <contour>
      <point x="302" y="-4" type="curve"/>
      <point x="371" y="5" type="line"/>
      <point x="346" y="206"/>
      <point x="325" y="433"/>
      <point x="314" y="657" type="curve"/>
      <point x="269" y="654"/>
      <point x="210" y="652"/>
      <point x="167" y="652" type="curve" smooth="yes"/>
      <point x="113" y="652"/>
      <point x="69" y="656"/>
      <point x="22" y="663" type="curve"/>
      <point x="20" y="582" type="line"/>
      <point x="66" y="573"/>
      <point x="116" y="571"/>
      <point x="164" y="571" type="curve" smooth="yes"/>
      <point x="209" y="571"/>
      <point x="254" y="574"/>
      <point x="287" y="578" type="curve"/>
      <point x="252" y="597" type="line"/>
      <point x="259" y="414"/>
      <point x="278" y="195"/>
    </contour>
  </outline>
</glyph>
<glyph name="seven-ar" format="2">
  <advance width="465"/>
  <unicode hex="0667"/>
  <outline>
    <contour>
      <point x="205" y="-4" type="curve"/>
      <point x="268" y="0" type="line"/>
      <point x="321" y="222"/>
      <point x="390" y="475"/>
      <point x="449" y="660" type="curve"/>
      <point x="385" y="681" type="line"/>
      <point x="329" y="497"/>
      <point x="262" y="250"/>
      <point x="224" y="49" type="curve"/>
      <point x="253" y="50" type="line"/>
      <point x="217" y="254"/>
      <point x="139" y="500"/>
      <point x="80" y="679" type="curve"/>
      <point x="16" y="657" type="line"/>
      <point x="79" y="469"/>
      <point x="157" y="218"/>
    </contour>
  </outline>
</glyph>
<glyph name="nine-ar" format="2">
  <advance width="429"/>
  <unicode hex="0669"/>
  <outline>
    <contour>
      <point x="326" y="-3" type="curve"/>
      <point x="395" y="6" type="line"/>
      <point x="380" y="128"/>
      <point x="368" y="250"/>
      <point x="354" y="400" type="curve" smooth="yes"/>
      <point x="337" y="582"/>
      <point x="295" y="686"/>
      <point x="189" y="686" type="curve" smooth="yes"/>
      <point x="96" y="686"/>
      <point x="22" y="584"/>
      <point x="22" y="449" type="curve" smooth="yes"/>
      <point x="22" y="333"/>
      <point x="78" y="273"/>
      <point x="185" y="274" type="curve" smooth="yes"/>
      <point x="231" y="274"/>
      <point x="280" y="285"/>
      <point x="318" y="301" type="curve"/>
      <point x="310" y="375" type="line"/>
      <point x="275" y="363"/>
      <point x="237" y="354"/>
      <point x="193" y="354" type="curve" smooth="yes"/>
      <point x="117" y="354"/>
      <point x="90" y="376"/>
      <point x="90" y="456" type="curve" smooth="yes"/>
      <point x="90" y="531"/>
      <point x="123" y="605"/>
      <point x="185" y="605" type="curve" smooth="yes"/>
      <point x="251" y="605"/>
      <point x="273" y="535"/>
      <point x="285" y="394" type="curve" smooth="yes"/>
      <point x="297" y="247"/>
      <point x="312" y="110"/>
    </contour>
  </outline>
</glyph>
<glyph name="percent-ar" format="2">
  <advance width="417"/>
  <unicode hex="066A"/>
  <outline>
    <contour>
      <point x="92" y="-21" type="line"/>
      <point x="375" y="663" type="line"/>
      <point x="322" y="694" type="line"/>
      <point x="39" y="9" type="line"/>
    </contour>
    <contour>
      <point x="339" y="-15" type="curve"/>
      <point x="390" y="49" type="line"/>
      <point x="375" y="74"/>
      <point x="354" y="101"/>
      <point x="331" y="123" type="curve"/>
      <point x="281" y="55" type="line"/>
      <point x="304" y="31"/>
      <point x="316" y="14"/>
    </contour>
    <contour>
      <point x="90" y="553" type="curve"/>
      <point x="142" y="617" type="line"/>
      <point x="126" y="641"/>
      <point x="105" y="668"/>
      <point x="82" y="691" type="curve"/>
      <point x="32" y="623" type="line"/>
      <point x="55" y="599"/>
      <point x="68" y="582"/>
    </contour>
  </outline>
</glyph>
<glyph name="thousandseparator-ar" format="2">
  <advance width="205"/>
  <unicode hex="066C"/>
  <outline>
    <contour>
      <point x="101" y="0" type="curve" smooth="yes"/>
      <point x="126" y="0"/>
      <point x="142" y="19"/>
      <point x="142" y="46" type="curve" smooth="yes"/>
      <point x="142" y="64"/>
      <point x="135" y="75"/>
      <point x="124" y="87" type="curve" smooth="yes"/>
      <point x="113" y="99"/>
      <point x="105" y="108"/>
      <point x="105" y="125" type="curve" smooth="yes"/>
      <point x="105" y="157"/>
      <point x="119" y="196"/>
      <point x="159" y="251" type="curve"/>
      <point x="126" y="278" type="line"/>
      <point x="78" y="223"/>
      <point x="49" y="155"/>
      <point x="49" y="85" type="curve" smooth="yes"/>
      <point x="49" y="30"/>
      <point x="70" y="0"/>
    </contour>
  </outline>
</glyph>
<glyph name="asterisk-ar" format="2">
  <advance width="411"/>
  <unicode hex="066D"/>
  <outline>
    <contour>
      <point x="80" y="-1" type="line"/>
      <point x="206" y="126" type="line"/>
      <point x="332" y="-1" type="line"/>
      <point x="336" y="3" type="line"/>
      <point x="268" y="189" type="line"/>
      <point x="398" y="279" type="line"/>
      <point x="397" y="287" type="line"/>
      <point x="246" y="275" type="line"/>
      <point x="209" y="458" type="line"/>
      <point x="203" y="458" type="line"/>
      <point x="164" y="274" type="line"/>
      <point x="14" y="287" type="line"/>
      <point x="13" y="279" type="line"/>
      <point x="142" y="188" type="line"/>
      <point x="75" y="3" type="line"/>
    </contour>
  </outline>
</glyph>
<glyph name="dotlessbeh-ar" format="2">
  <advance width="778"/>
  <unicode hex="066E"/>
  <anchor x="384" y="-111" name="bottom"/>
  <anchor x="384" y="-32" name="bottom.dot"/>
  <anchor x="386" y="475" name="top"/>
  <anchor x="386" y="305" name="top.dot"/>
  <outline>
    <contour>
      <point x="330" y="-15" type="line"/>
      <point x="624" y="-15"/>
      <point x="732" y="58"/>
      <point x="732" y="209" type="curve" smooth="yes"/>
      <point x="732" y="272"/>
      <point x="719" y="338"/>
      <point x="700" y="406" type="curve"/>
      <point x="633" y="387" type="line"/>
      <point x="651" y="318"/>
      <point x="660" y="263"/>
      <point x="660" y="213" type="curve" smooth="yes"/>
      <point x="660" y="116"/>
      <point x="584" y="71"/>
      <point x="351" y="71" type="curve"/>
    </contour>
    <component base="_part.beh.fina" xOffset="-3"/>
  </outline>
</glyph>
<glyph name="dotlessqaf-ar" format="2">
  <advance width="644"/>
  <unicode hex="066F"/>
  <anchor x="303" y="-298" name="bottom"/>
  <anchor x="303" y="-244" name="bottom.dot"/>
  <anchor x="303" y="543" name="top"/>
  <anchor x="438" y="393" name="top.dot"/>
  <outline>
    <contour>
      <point x="299" y="-262" type="curve" smooth="yes"/>
      <point x="513" y="-262"/>
      <point x="607" y="-159"/>
      <point x="607" y="71" type="curve" smooth="yes"/>
      <point x="607" y="271"/>
      <point x="545" y="383"/>
      <point x="442" y="383" type="curve" smooth="yes"/>
      <point x="354" y="383"/>
      <point x="291" y="290"/>
      <point x="291" y="165" type="curve" smooth="yes"/>
      <point x="291" y="56"/>
      <point x="338" y="3"/>
      <point x="438" y="3" type="curve" smooth="yes"/>
      <point x="482" y="3"/>
      <point x="540" y="20"/>
      <point x="570" y="42" type="curve"/>
      <point x="570" y="114" type="line"/>
      <point x="531" y="92"/>
      <point x="493" y="79"/>
      <point x="451" y="79" type="curve" smooth="yes"/>
      <point x="375" y="79"/>
      <point x="351" y="109"/>
      <point x="351" y="176" type="curve" smooth="yes"/>
      <point x="351" y="250"/>
      <point x="385" y="304"/>
      <point x="438" y="304" type="curve" smooth="yes"/>
      <point x="506" y="304"/>
      <point x="541" y="235"/>
      <point x="541" y="63" type="curve" smooth="yes"/>
      <point x="541" y="-99"/>
      <point x="481" y="-176"/>
      <point x="309" y="-176" type="curve" smooth="yes"/>
      <point x="162" y="-176"/>
      <point x="100" y="-103"/>
      <point x="100" y="20" type="curve" smooth="yes"/>
      <point x="100" y="86"/>
      <point x="108" y="136"/>
      <point x="122" y="194" type="curve"/>
      <point x="71" y="208" type="line"/>
      <point x="50" y="147"/>
      <point x="38" y="72"/>
      <point x="38" y="-1" type="curve" smooth="yes"/>
      <point x="38" y="-158"/>
      <point x="120" y="-262"/>
    </contour>
  </outline>
</glyph>
<glyph name="dotlessfeh-ar" format="2">
  <advance width="800"/>
  <unicode hex="06A1"/>
  <anchor x="382" y="-111" name="bottom"/>
  <anchor x="586" y="-20" name="bottom.dot"/>
  <anchor x="283" y="591" name="top"/>
  <anchor x="589" y="558" name="top.dot"/>
  <outline>
    <contour>
      <point x="342" y="-15" type="line"/>
      <point x="504" y="-15"/>
      <point x="634" y="2"/>
      <point x="686" y="46" type="curve" smooth="yes"/>
      <point x="738" y="89"/>
      <point x="754" y="147"/>
      <point x="754" y="255" type="curve" smooth="yes"/>
      <point x="754" y="424"/>
      <point x="699" y="547"/>
      <point x="593" y="547" type="curve" smooth="yes"/>
      <point x="503" y="547"/>
      <point x="443" y="454"/>
      <point x="443" y="345" type="curve" smooth="yes"/>
      <point x="443" y="243"/>
      <point x="493" y="187"/>
      <point x="583" y="187" type="curve" smooth="yes"/>
      <point x="636" y="187"/>
      <point x="688" y="202"/>
      <point x="721" y="224" type="curve"/>
      <point x="717" y="289" type="line"/>
      <point x="681" y="270"/>
      <point x="634" y="258"/>
      <point x="592" y="258" type="curve" smooth="yes"/>
      <point x="527" y="258"/>
      <point x="503" y="284"/>
      <point x="503" y="352" type="curve" smooth="yes"/>
      <point x="503" y="416"/>
      <point x="532" y="471"/>
      <point x="590" y="471" type="curve" smooth="yes"/>
      <point x="662" y="471"/>
      <point x="688" y="385"/>
      <point x="688" y="255" type="curve" smooth="yes"/>
      <point x="688" y="172"/>
      <point x="686" y="146"/>
      <point x="658" y="118" type="curve" smooth="yes"/>
      <point x="621" y="81"/>
      <point x="490" y="71"/>
      <point x="351" y="71" type="curve"/>
    </contour>
    <component base="_part.beh.fina" xOffset="-3"/>
  </outline>
</glyph>
<glyph name="keheh-ar" format="2">
  <advance width="722"/>
  <unicode hex="06A9"/>
  <anchor x="338" y="-111" name="bottom"/>
  <anchor x="338" y="-20" name="bottom.dot"/>
  <anchor x="624" y="555" name="center"/>
  <anchor x="231" y="570" name="top"/>
  <anchor x="460" y="586" name="top.dot"/>
  <outline>
    <contour>
      <point x="338" y="-15" type="line"/>
      <point x="560" y="-15"/>
      <point x="641" y="39"/>
      <point x="641" y="166" type="curve" smooth="yes"/>
      <point x="641" y="280"/>
      <point x="575" y="350"/>
      <point x="395" y="485" type="curve"/>
      <point x="380" y="445" type="line"/>
      <point x="706" y="638" type="line"/>
      <point x="705" y="724" type="line"/>
      <point x="354" y="506" type="line"/>
      <point x="342" y="431" type="line"/>
      <point x="522" y="299"/>
      <point x="569" y="233"/>
      <point x="569" y="165" type="curve" smooth="yes"/>
      <point x="569" y="102"/>
      <point x="531" y="71"/>
      <point x="346" y="71" type="curve"/>
    </contour>
    <component base="_part.beh.fina" xOffset="-3"/>
  </outline>
</glyph>
<glyph name="noonghunna-ar" format="2">
  <advance width="554"/>
  <unicode hex="06BA"/>
  <anchor x="265" y="-280" name="bottom"/>
  <anchor x="266" y="-232" name="bottom.dot"/>
  <anchor x="281" y="268" name="top.dot"/>
  <outline>
    <contour>
      <point x="258" y="-237" type="curve" smooth="yes"/>
      <point x="428" y="-237"/>
      <point x="515" y="-128"/>
      <point x="515" y="74" type="curve" smooth="yes"/>
      <point x="515" y="156"/>
      <point x="503" y="217"/>
      <point x="488" y="288" type="curve"/>
      <point x="424" y="271" type="line"/>
      <point x="439" y="195"/>
      <point x="447" y="132"/>
      <point x="447" y="70" type="curve" smooth="yes"/>
      <point x="447" y="-72"/>
      <point x="398" y="-151"/>
      <point x="265" y="-151" type="curve" smooth="yes"/>
      <point x="154" y="-151"/>
      <point x="104" y="-91"/>
      <point x="104" y="28" type="curve" smooth="yes"/>
      <point x="104" y="92"/>
      <point x="112" y="140"/>
      <point x="126" y="198" type="curve"/>
      <point x="71" y="213" type="line"/>
      <point x="50" y="147"/>
      <point x="38" y="80"/>
      <point x="38" y="12" type="curve" smooth="yes"/>
      <point x="38" y="-146"/>
      <point x="115" y="-237"/>
    </contour>
  </outline>
</glyph>
<glyph name="hehDoachashmee-ar" format="2">
  <advance width="635"/>
  <unicode hex="06BE"/>
  <anchor x="316" y="-112" name="bottom"/>
  <anchor x="316" y="635" name="top"/>
  <anchor x="316" y="580" name="top.dot"/>
  <outline>
    <contour>
      <point x="119" y="-7" type="curve" smooth="yes"/>
      <point x="182" y="-7"/>
      <point x="251" y="9"/>
      <point x="310" y="49" type="curve" smooth="yes"/>
      <point x="380" y="96"/>
      <point x="429" y="172"/>
      <point x="429" y="270" type="curve" smooth="yes"/>
      <point x="429" y="395"/>
      <point x="361" y="465"/>
      <point x="292" y="465" type="curve" smooth="yes"/>
      <point x="214" y="465"/>
      <point x="154" y="379"/>
      <point x="154" y="276" type="curve" smooth="yes"/>
      <point x="154" y="106"/>
      <point x="299" y="-7"/>
      <point x="438" y="-7" type="curve" smooth="yes"/>
      <point x="542" y="-7"/>
      <point x="598" y="54"/>
      <point x="598" y="159" type="curve" smooth="yes"/>
      <point x="598" y="294"/>
      <point x="492" y="417"/>
      <point x="221" y="543" type="curve"/>
      <point x="205" y="473" type="line"/>
      <point x="459" y="350"/>
      <point x="536" y="255"/>
      <point x="536" y="164" type="curve" smooth="yes"/>
      <point x="536" y="100"/>
      <point x="501" y="74"/>
      <point x="444" y="74" type="curve" smooth="yes"/>
      <point x="326" y="74"/>
      <point x="214" y="150"/>
      <point x="214" y="281" type="curve" smooth="yes"/>
      <point x="214" y="345"/>
      <point x="238" y="402"/>
      <point x="294" y="402" type="curve" smooth="yes"/>
      <point x="338" y="402"/>
      <point x="367" y="350"/>
      <point x="367" y="274" type="curve" smooth="yes"/>
      <point x="367" y="186"/>
      <point x="326" y="133"/>
      <point x="270" y="108" type="curve" smooth="yes"/>
      <point x="226" y="87"/>
      <point x="173" y="79"/>
      <point x="123" y="79" type="curve" smooth="yes"/>
      <point x="98" y="79"/>
      <point x="65" y="82"/>
      <point x="30" y="89" type="curve"/>
      <point x="24" y="9" type="line"/>
      <point x="55" y="-2"/>
      <point x="86" y="-7"/>
    </contour>
  </outline>
</glyph>
<glyph name="yehbarree-ar" format="2">
  <advance width="760"/>
  <unicode hex="06D2"/>
  <anchor x="335" y="-93" name="bottom"/>
  <anchor x="341" y="579" name="top"/>
  <anchor x="340" y="515" name="top_1"/>
  <outline>
    <contour>
      <point x="383" y="-21" type="curve" smooth="yes"/>
      <point x="528" y="-21"/>
      <point x="649" y="-3"/>
      <point x="718" y="16" type="curve"/>
      <point x="723" y="99" type="line"/>
      <point x="655" y="84"/>
      <point x="543" y="65"/>
      <point x="386" y="65" type="curve" smooth="yes"/>
      <point x="164" y="65"/>
      <point x="106" y="91"/>
      <point x="106" y="143" type="curve" smooth="yes"/>
      <point x="106" y="183"/>
      <point x="164" y="216"/>
      <point x="220" y="279" type="curve" smooth="yes"/>
      <point x="272" y="338"/>
      <point x="300" y="391"/>
      <point x="340" y="391" type="curve" smooth="yes"/>
      <point x="382" y="391"/>
      <point x="396" y="347"/>
      <point x="425" y="247" type="curve"/>
      <point x="487" y="267" type="line"/>
      <point x="450" y="400"/>
      <point x="410" y="477"/>
      <point x="346" y="477" type="curve" smooth="yes"/>
      <point x="274" y="477"/>
      <point x="235" y="402"/>
      <point x="170" y="326" type="curve" smooth="yes"/>
      <point x="113" y="258"/>
      <point x="34" y="219"/>
      <point x="34" y="128" type="curve" smooth="yes"/>
      <point x="34" y="21"/>
      <point x="138" y="-21"/>
    </contour>
  </outline>
</glyph>
<glyph name="fullstop-ar" format="2">
  <advance width="252"/>
  <unicode hex="06D4"/>
  <outline>
    <contour>
      <point x="25" y="0" type="line"/>
      <point x="222" y="0" type="line"/>
      <point x="226" y="52" type="line"/>
      <point x="30" y="52" type="line"/>
    </contour>
  </outline>
</glyph>
<glyph name="threedotsabove-ar" format="2">
  <unicode hex="06DB"/>
  <anchor x="96" y="432" name="_top.dot"/>
  <anchor x="96" y="708" name="top"/>
  <outline>
    <contour>
      <point x="47" y="497" type="curve"/>
      <point x="86" y="541" type="line"/>
      <point x="69" y="562"/>
      <point x="60" y="571"/>
      <point x="44" y="586" type="curve"/>
      <point x="5" y="541" type="line"/>
      <point x="23" y="523"/>
      <point x="33" y="513"/>
    </contour>
    <contour>
      <point x="150" y="497" type="curve"/>
      <point x="188" y="541" type="line"/>
      <point x="172" y="562"/>
      <point x="163" y="571"/>
      <point x="146" y="586" type="curve"/>
      <point x="108" y="541" type="line"/>
      <point x="126" y="523"/>
      <point x="136" y="513"/>
    </contour>
    <contour>
      <point x="99" y="605" type="curve"/>
      <point x="135" y="647" type="line"/>
      <point x="120" y="668"/>
      <point x="111" y="677"/>
      <point x="95" y="691" type="curve"/>
      <point x="58" y="647" type="line"/>
      <point x="77" y="629"/>
      <point x="84" y="620"/>
    </contour>
  </outline>
</glyph>
<glyph name="seenabove-ar" format="2">
  <unicode hex="06DC"/>
  <anchor x="196" y="468" name="_top"/>
  <anchor x="194" y="732" name="top"/>
  <outline>
    <contour>
      <point x="102" y="493" type="curve" smooth="yes"/>
      <point x="158" y="493"/>
      <point x="202" y="528"/>
      <point x="196" y="612" type="curve"/>
      <point x="183" y="609" type="line"/>
      <point x="190" y="579"/>
      <point x="210" y="571"/>
      <point x="230" y="571" type="curve" smooth="yes"/>
      <point x="250" y="571"/>
      <point x="272" y="580"/>
      <point x="277" y="618" type="curve"/>
      <point x="267" y="617" type="line"/>
      <point x="272" y="581"/>
      <point x="292" y="571"/>
      <point x="312" y="571" type="curve" smooth="yes"/>
      <point x="351" y="571"/>
      <point x="368" y="601"/>
      <point x="368" y="646" type="curve" smooth="yes"/>
      <point x="368" y="669"/>
      <point x="364" y="695"/>
      <point x="356" y="723" type="curve"/>
      <point x="327" y="717" type="line"/>
      <point x="333" y="691"/>
      <point x="336" y="670"/>
      <point x="336" y="650" type="curve" smooth="yes"/>
      <point x="336" y="622"/>
      <point x="330" y="611"/>
      <point x="312" y="611" type="curve" smooth="yes"/>
      <point x="297" y="611"/>
      <point x="292" y="619"/>
      <point x="289" y="639" type="curve" smooth="yes"/>
      <point x="287" y="654"/>
      <point x="287" y="671"/>
      <point x="286" y="698" type="curve"/>
      <point x="255" y="696" type="line"/>
      <point x="255" y="670"/>
      <point x="255" y="649"/>
      <point x="252" y="636" type="curve" smooth="yes"/>
      <point x="248" y="618"/>
      <point x="242" y="611"/>
      <point x="228" y="611" type="curve" smooth="yes"/>
      <point x="212" y="611"/>
      <point x="205" y="618"/>
      <point x="201" y="633" type="curve" smooth="yes"/>
      <point x="197" y="647"/>
      <point x="196" y="663"/>
      <point x="191" y="691" type="curve"/>
      <point x="159" y="686" type="line"/>
      <point x="164" y="658"/>
      <point x="167" y="629"/>
      <point x="167" y="603" type="curve" smooth="yes"/>
      <point x="167" y="553"/>
      <point x="147" y="533"/>
      <point x="106" y="533" type="curve" smooth="yes"/>
      <point x="70" y="533"/>
      <point x="56" y="551"/>
      <point x="56" y="586" type="curve" smooth="yes"/>
      <point x="56" y="608"/>
      <point x="59" y="625"/>
      <point x="64" y="648" type="curve"/>
      <point x="37" y="655" type="line"/>
      <point x="27" y="627"/>
      <point x="24" y="602"/>
      <point x="24" y="578" type="curve" smooth="yes"/>
      <point x="24" y="520"/>
      <point x="55" y="493"/>
    </contour>
  </outline>
</glyph>
<glyph name="sukunoval-ar" format="2">
  <unicode hex="06E0"/>
  <anchor x="93" y="472" name="_top"/>
  <anchor x="93" y="745" name="top"/>
  <outline>
    <contour>
      <point x="91" y="495" type="curve" smooth="yes"/>
      <point x="134" y="495"/>
      <point x="161" y="530"/>
      <point x="161" y="614" type="curve" smooth="yes"/>
      <point x="161" y="693"/>
      <point x="135" y="727"/>
      <point x="94" y="727" type="curve" smooth="yes"/>
      <point x="48" y="727"/>
      <point x="24" y="686"/>
      <point x="24" y="609" type="curve" smooth="yes"/>
      <point x="24" y="531"/>
      <point x="45" y="495"/>
    </contour>
    <contour>
      <point x="91" y="526" type="curve" smooth="yes"/>
      <point x="68" y="526"/>
      <point x="56" y="545"/>
      <point x="56" y="612" type="curve" smooth="yes"/>
      <point x="56" y="672"/>
      <point x="67" y="696"/>
      <point x="93" y="696" type="curve" smooth="yes"/>
      <point x="119" y="696"/>
      <point x="128" y="673"/>
      <point x="128" y="614" type="curve" smooth="yes"/>
      <point x="128" y="548"/>
      <point x="116" y="526"/>
    </contour>
  </outline>
</glyph>
<glyph name="hahabove-ar" format="2">
  <unicode hex="06E1"/>
  <anchor x="102" y="461" name="_top"/>
  <anchor x="110" y="704" name="top"/>
  <outline>
    <contour>
      <point x="38" y="507" type="line"/>
      <point x="120" y="507"/>
      <point x="166" y="551"/>
      <point x="188" y="603" type="curve"/>
      <point x="187" y="637" type="line"/>
      <point x="161" y="662"/>
      <point x="136" y="679"/>
      <point x="103" y="679" type="curve" smooth="yes"/>
      <point x="75" y="679"/>
      <point x="54" y="667"/>
      <point x="33" y="649" type="curve"/>
      <point x="43" y="615" type="line"/>
      <point x="62" y="630"/>
      <point x="78" y="639"/>
      <point x="102" y="639" type="curve" smooth="yes"/>
      <point x="128" y="639"/>
      <point x="144" y="626"/>
      <point x="164" y="606" type="curve"/>
      <point x="167" y="631" type="line"/>
      <point x="151" y="582"/>
      <point x="107" y="543"/>
      <point x="32" y="542" type="curve"/>
    </contour>
  </outline>
</glyph>
<glyph name="meemStopabove-ar" format="2">
  <unicode hex="06E2"/>
  <anchor x="86" y="432" name="_top.dot"/>
  <anchor x="89" y="756" name="top"/>
  <outline>
    <contour>
      <point x="30" y="492" type="curve"/>
      <point x="61" y="494" type="line"/>
      <point x="59" y="525"/>
      <point x="58" y="535"/>
      <point x="58" y="557" type="curve" smooth="yes"/>
      <point x="58" y="594"/>
      <point x="63" y="604"/>
      <point x="92" y="604" type="curve" smooth="yes"/>
      <point x="111" y="604"/>
      <point x="131" y="600"/>
      <point x="150" y="597" type="curve"/>
      <point x="159" y="630" type="line"/>
      <point x="145" y="697"/>
      <point x="124" y="734"/>
      <point x="90" y="734" type="curve" smooth="yes"/>
      <point x="67" y="734"/>
      <point x="47" y="714"/>
      <point x="36" y="676" type="curve"/>
      <point x="60" y="665" type="line"/>
      <point x="69" y="688"/>
      <point x="76" y="696"/>
      <point x="87" y="696" type="curve" smooth="yes"/>
      <point x="105" y="696"/>
      <point x="112" y="677"/>
      <point x="128" y="624" type="curve"/>
      <point x="144" y="635" type="line"/>
      <point x="128" y="637"/>
      <point x="106" y="640"/>
      <point x="88" y="640" type="curve" smooth="yes"/>
      <point x="45" y="640"/>
      <point x="26" y="613"/>
      <point x="26" y="563" type="curve" smooth="yes"/>
      <point x="26" y="537"/>
      <point x="27" y="525"/>
    </contour>
  </outline>
</glyph>
<glyph name="maddalong-ar" format="2">
  <unicode hex="06E4"/>
  <anchor x="155" y="445" name="_top"/>
  <anchor x="161" y="617" name="top"/>
  <outline>
    <contour>
      <point x="219" y="510" type="curve" smooth="yes"/>
      <point x="250" y="510"/>
      <point x="279" y="524"/>
      <point x="304" y="560" type="curve"/>
      <point x="280" y="596" type="line"/>
      <point x="259" y="575"/>
      <point x="242" y="562"/>
      <point x="217" y="562" type="curve" smooth="yes"/>
      <point x="167" y="562"/>
      <point x="135" y="616"/>
      <point x="84" y="616" type="curve" smooth="yes"/>
      <point x="51" y="616"/>
      <point x="24" y="593"/>
      <point x="0" y="554" type="curve"/>
      <point x="28" y="523" type="line"/>
      <point x="49" y="549"/>
      <point x="63" y="564"/>
      <point x="83" y="564" type="curve" smooth="yes"/>
      <point x="118" y="564"/>
      <point x="154" y="510"/>
    </contour>
  </outline>
</glyph>
<glyph name="yehabove-ar" format="2">
  <unicode hex="06E7"/>
  <anchor x="137" y="461" name="_top"/>
  <anchor x="142" y="710" name="top"/>
  <outline>
    <contour>
      <point x="138" y="500" type="curve" smooth="yes"/>
      <point x="186" y="500"/>
      <point x="232" y="509"/>
      <point x="258" y="516" type="curve"/>
      <point x="258" y="555" type="line"/>
      <point x="232" y="548"/>
      <point x="182" y="540"/>
      <point x="138" y="540" type="curve" smooth="yes"/>
      <point x="79" y="540"/>
      <point x="57" y="546"/>
      <point x="57" y="563" type="curve" smooth="yes"/>
      <point x="57" y="575"/>
      <point x="70" y="581"/>
      <point x="88" y="605" type="curve" smooth="yes"/>
      <point x="107" y="629"/>
      <point x="116" y="646"/>
      <point x="127" y="646" type="curve" smooth="yes"/>
      <point x="140" y="646"/>
      <point x="145" y="633"/>
      <point x="158" y="599" type="curve"/>
      <point x="188" y="612" type="line"/>
      <point x="171" y="661"/>
      <point x="158" y="688"/>
      <point x="131" y="688" type="curve" smooth="yes"/>
      <point x="102" y="688"/>
      <point x="89" y="661"/>
      <point x="66" y="631" type="curve" smooth="yes"/>
      <point x="46" y="603"/>
      <point x="20" y="588"/>
      <point x="20" y="558" type="curve" smooth="yes"/>
      <point x="20" y="511"/>
      <point x="59" y="500"/>
    </contour>
  </outline>
</glyph>
<glyph name="noonabove-ar" format="2">
  <unicode hex="06E8"/>
  <anchor x="102" y="432" name="_top.dot"/>
  <anchor x="102" y="774" name="top"/>
  <outline>
    <contour>
      <point x="98" y="496" type="curve" smooth="yes"/>
      <point x="161" y="496"/>
      <point x="191" y="539"/>
      <point x="191" y="606" type="curve" smooth="yes"/>
      <point x="191" y="638"/>
      <point x="186" y="664"/>
      <point x="178" y="687" type="curve"/>
      <point x="147" y="679" type="line"/>
      <point x="153" y="654"/>
      <point x="157" y="629"/>
      <point x="157" y="602" type="curve" smooth="yes"/>
      <point x="157" y="560"/>
      <point x="138" y="536"/>
      <point x="101" y="536" type="curve" smooth="yes"/>
      <point x="64" y="536"/>
      <point x="51" y="557"/>
      <point x="51" y="594" type="curve" smooth="yes"/>
      <point x="51" y="614"/>
      <point x="54" y="632"/>
      <point x="58" y="651" type="curve"/>
      <point x="28" y="658" type="line"/>
      <point x="22" y="638"/>
      <point x="18" y="612"/>
      <point x="18" y="586" type="curve" smooth="yes"/>
      <point x="18" y="527"/>
      <point x="46" y="496"/>
    </contour>
    <contour>
      <point x="103" y="697" type="curve"/>
      <point x="126" y="727" type="line"/>
      <point x="117" y="738"/>
      <point x="112" y="746"/>
      <point x="101" y="756" type="curve"/>
      <point x="78" y="726" type="line"/>
      <point x="88" y="714"/>
      <point x="93" y="708"/>
    </contour>
  </outline>
</glyph>
<glyph name="sajdah-ar" format="2">
  <advance width="452"/>
  <unicode hex="06E9"/>
  <outline>
    <contour>
      <point x="46" y="0" type="line"/>
      <point x="406" y="0" type="line"/>
      <point x="406" y="51" type="line"/>
      <point x="370" y="75"/>
      <point x="361" y="99"/>
      <point x="361" y="177" type="curve" smooth="yes"/>
      <point x="360" y="366" type="line"/>
      <point x="400" y="394"/>
      <point x="420" y="424"/>
      <point x="420" y="479" type="curve" smooth="yes"/>
      <point x="420" y="574"/>
      <point x="319" y="620"/>
      <point x="226" y="699" type="curve"/>
      <point x="136" y="623"/>
      <point x="32" y="572"/>
      <point x="32" y="478" type="curve" smooth="yes"/>
      <point x="32" y="423"/>
      <point x="53" y="393"/>
      <point x="93" y="365" type="curve"/>
      <point x="92" y="177" type="line" smooth="yes"/>
      <point x="92" y="99"/>
      <point x="82" y="73"/>
      <point x="46" y="49" type="curve"/>
    </contour>
    <contour>
      <point x="88" y="40" type="line"/>
      <point x="117" y="70"/>
      <point x="124" y="108"/>
      <point x="124" y="182" type="curve" smooth="yes"/>
      <point x="125" y="390" type="line"/>
      <point x="91" y="412"/>
      <point x="70" y="435"/>
      <point x="70" y="476" type="curve" smooth="yes"/>
      <point x="70" y="547"/>
      <point x="144" y="578"/>
      <point x="225" y="651" type="curve"/>
      <point x="306" y="578"/>
      <point x="383" y="544"/>
      <point x="383" y="477" type="curve" smooth="yes"/>
      <point x="383" y="434"/>
      <point x="361" y="412"/>
      <point x="327" y="391" type="curve"/>
      <point x="328" y="182" type="line" smooth="yes"/>
      <point x="328" y="101"/>
      <point x="334" y="68"/>
      <point x="363" y="40" type="curve"/>
    </contour>
  </outline>
</glyph>
<glyph name="rhombusStopabove-ar" format="2">
  <unicode hex="06EB"/>
  <anchor x="100" y="468" name="_top"/>
  <anchor x="99" y="718" name="top"/>
  <outline>
    <contour>
      <point x="98" y="495" type="line"/>
      <point x="181" y="596" type="line"/>
      <point x="99" y="697" type="line"/>
      <point x="18" y="594" type="line"/>
    </contour>
    <contour>
      <point x="98" y="541" type="line"/>
      <point x="55" y="594" type="line"/>
      <point x="99" y="650" type="line"/>
      <point x="143" y="596" type="line"/>
    </contour>
  </outline>
</glyph>
<glyph name="dotStopabove-ar" format="2">
  <unicode hex="06EC"/>
  <anchor x="62" y="458" name="_top"/>
  <anchor x="63" y="645" name="top"/>
  <outline>
    <contour>
      <point x="62" y="515" type="curve" smooth="yes"/>
      <point x="88" y="515"/>
      <point x="106" y="539"/>
      <point x="106" y="570" type="curve" smooth="yes"/>
      <point x="106" y="602"/>
      <point x="88" y="625"/>
      <point x="62" y="625" type="curve" smooth="yes"/>
      <point x="38" y="625"/>
      <point x="19" y="602"/>
      <point x="19" y="570" type="curve" smooth="yes"/>
      <point x="19" y="539"/>
      <point x="38" y="515"/>
    </contour>
  </outline>
</glyph>
<glyph name="four-persian" format="2">
  <advance width="470"/>
  <unicode hex="06F4"/>
  <outline>
    <contour>
      <point x="121" y="-6" type="curve"/>
      <point x="187" y="-2" type="line"/>
      <point x="181" y="151"/>
      <point x="162" y="348"/>
      <point x="133" y="506" type="curve"/>
      <point x="104" y="486" type="line"/>
      <point x="131" y="370"/>
      <point x="203" y="340"/>
      <point x="301" y="340" type="curve" smooth="yes"/>
      <point x="354" y="340"/>
      <point x="405" y="351"/>
      <point x="447" y="369" type="curve"/>
      <point x="441" y="432" type="line"/>
      <point x="412" y="424"/>
      <point x="389" y="418"/>
      <point x="362" y="418" type="curve" smooth="yes"/>
      <point x="310" y="418"/>
      <point x="279" y="461"/>
      <point x="279" y="523" type="curve" smooth="yes"/>
      <point x="279" y="580"/>
      <point x="309" y="613"/>
      <point x="364" y="613" type="curve" smooth="yes"/>
      <point x="385" y="613"/>
      <point x="403" y="608"/>
      <point x="421" y="603" type="curve"/>
      <point x="425" y="667" type="line"/>
      <point x="408" y="675"/>
      <point x="388" y="681"/>
      <point x="356" y="681" type="curve" smooth="yes"/>
      <point x="276" y="681"/>
      <point x="219" y="620"/>
      <point x="219" y="533" type="curve" smooth="yes"/>
      <point x="219" y="439"/>
      <point x="255" y="392"/>
      <point x="309" y="381" type="curve"/>
      <point x="320" y="410" type="line"/>
      <point x="297" y="407"/>
      <point x="295" y="407"/>
      <point x="274" y="408" type="curve" smooth="yes"/>
      <point x="199" y="413"/>
      <point x="157" y="439"/>
      <point x="136" y="524" type="curve" smooth="yes"/>
      <point x="126" y="565"/>
      <point x="116" y="608"/>
      <point x="103" y="675" type="curve"/>
      <point x="35" y="659" type="line"/>
      <point x="81" y="445"/>
      <point x="109" y="205"/>
    </contour>
  </outline>
</glyph>
<glyph name="five-persian" format="2">
  <advance width="476"/>
  <unicode hex="06F5"/>
  <outline>
    <contour>
      <point x="147" y="-7" type="curve" smooth="yes"/>
      <point x="209" y="-7"/>
      <point x="243" y="44"/>
      <point x="244" y="94" type="curve"/>
      <point x="224" y="92" type="line"/>
      <point x="224" y="43"/>
      <point x="267" y="-7"/>
      <point x="322" y="-7" type="curve" smooth="yes"/>
      <point x="399" y="-7"/>
      <point x="436" y="68"/>
      <point x="436" y="172" type="curve" smooth="yes"/>
      <point x="436" y="337"/>
      <point x="351" y="485"/>
      <point x="209" y="647" type="curve"/>
      <point x="161" y="596" type="line"/>
      <point x="296" y="437"/>
      <point x="369" y="310"/>
      <point x="370" y="177" type="curve" smooth="yes"/>
      <point x="371" y="106"/>
      <point x="352" y="71"/>
      <point x="316" y="71" type="curve" smooth="yes"/>
      <point x="284" y="71"/>
      <point x="266" y="93"/>
      <point x="264" y="189" type="curve"/>
      <point x="206" y="187" type="line"/>
      <point x="206" y="100"/>
      <point x="188" y="71"/>
      <point x="156" y="71" type="curve" smooth="yes"/>
      <point x="121" y="71"/>
      <point x="106" y="96"/>
      <point x="106" y="175" type="curve" smooth="yes"/>
      <point x="106" y="310"/>
      <point x="189" y="443"/>
      <point x="263" y="538" type="curve"/>
      <point x="222" y="588" type="line"/>
      <point x="144" y="486"/>
      <point x="40" y="335"/>
      <point x="40" y="168" type="curve" smooth="yes"/>
      <point x="40" y="51"/>
      <point x="79" y="-7"/>
    </contour>
  </outline>
</glyph>
<glyph name="six-persian" format="2">
  <advance width="394"/>
  <unicode hex="06F6"/>
  <outline>
    <contour>
      <point x="88" y="-7" type="line"/>
      <point x="158" y="133"/>
      <point x="260" y="260"/>
      <point x="376" y="341" type="curve"/>
      <point x="345" y="407" type="line"/>
      <point x="305" y="383"/>
      <point x="271" y="366"/>
      <point x="226" y="366" type="curve" smooth="yes"/>
      <point x="149" y="366"/>
      <point x="119" y="410"/>
      <point x="119" y="481" type="curve" smooth="yes"/>
      <point x="119" y="556"/>
      <point x="166" y="603"/>
      <point x="234" y="603" type="curve" smooth="yes"/>
      <point x="268" y="603"/>
      <point x="289" y="598"/>
      <point x="317" y="589" type="curve"/>
      <point x="322" y="660" type="line"/>
      <point x="294" y="672"/>
      <point x="266" y="680"/>
      <point x="230" y="680" type="curve" smooth="yes"/>
      <point x="128" y="680"/>
      <point x="58" y="595"/>
      <point x="58" y="481" type="curve" smooth="yes"/>
      <point x="58" y="375"/>
      <point x="120" y="296"/>
      <point x="209" y="296" type="curve" smooth="yes"/>
      <point x="243" y="296"/>
      <point x="277" y="304"/>
      <point x="304" y="319" type="curve"/>
      <point x="282" y="359" type="line"/>
      <point x="197" y="291"/>
      <point x="101" y="175"/>
      <point x="32" y="29" type="curve"/>
    </contour>
  </outline>
</glyph>
<glyph name="aleflow-ar" format="2">
  <advance width="215"/>
  <unicode hex="08AD"/>
  <anchor x="108" y="-274" name="bottom"/>
  <anchor x="101" y="225" name="top"/>
  <outline>
    <contour>
      <point x="84" y="-211" type="curve"/>
      <point x="145" y="-211" type="line"/>
      <point x="150" y="-86"/>
      <point x="146" y="37"/>
      <point x="132" y="164" type="curve"/>
      <point x="67" y="155" type="line"/>
      <point x="82" y="29"/>
      <point x="88" y="-86"/>
    </contour>
  </outline>
</glyph>
<glyph name="fathaCurly-ar" format="2">
  <unicode hex="08E4"/>
  <anchor x="123" y="468" name="_top"/>
  <anchor x="124" y="681" name="top"/>
  <outline>
    <contour>
      <point x="38" y="484" type="curve"/>
      <point x="70" y="495" type="line"/>
      <point x="66" y="508"/>
      <point x="63" y="519"/>
      <point x="63" y="530" type="curve" smooth="yes"/>
      <point x="63" y="545"/>
      <point x="69" y="553"/>
      <point x="86" y="561" type="curve" smooth="yes"/>
      <point x="112" y="573"/>
      <point x="153" y="585"/>
      <point x="183" y="600" type="curve" smooth="yes"/>
      <point x="207" y="612"/>
      <point x="219" y="626"/>
      <point x="219" y="658" type="curve" smooth="yes"/>
      <point x="219" y="682"/>
      <point x="213" y="705"/>
      <point x="207" y="720" type="curve"/>
      <point x="174" y="711" type="line"/>
      <point x="178" y="696"/>
      <point x="182" y="683"/>
      <point x="182" y="668" type="curve" smooth="yes"/>
      <point x="182" y="653"/>
      <point x="176" y="644"/>
      <point x="159" y="636" type="curve" smooth="yes"/>
      <point x="134" y="624"/>
      <point x="95" y="613"/>
      <point x="65" y="599" type="curve" smooth="yes"/>
      <point x="37" y="586"/>
      <point x="24" y="567"/>
      <point x="24" y="541" type="curve" smooth="yes"/>
      <point x="24" y="523"/>
      <point x="29" y="504"/>
    </contour>
  </outline>
</glyph>
<glyph name="dammaCurly-ar" format="2">
  <unicode hex="08E5"/>
  <anchor x="141" y="464" name="_top"/>
  <anchor x="148" y="761" name="top"/>
  <outline>
    <contour>
      <point x="73" y="489" type="line"/>
      <point x="167" y="507"/>
      <point x="251" y="556"/>
      <point x="251" y="648" type="curve" smooth="yes"/>
      <point x="251" y="699"/>
      <point x="229" y="736"/>
      <point x="186" y="736" type="curve" smooth="yes"/>
      <point x="144" y="736"/>
      <point x="117" y="700"/>
      <point x="117" y="652" type="curve" smooth="yes"/>
      <point x="117" y="607"/>
      <point x="140" y="571"/>
      <point x="176" y="553" type="curve"/>
      <point x="202" y="579" type="line"/>
      <point x="173" y="591"/>
      <point x="152" y="618"/>
      <point x="152" y="651" type="curve" smooth="yes"/>
      <point x="152" y="679"/>
      <point x="164" y="696"/>
      <point x="185" y="696" type="curve" smooth="yes"/>
      <point x="206" y="696"/>
      <point x="216" y="676"/>
      <point x="216" y="647" type="curve" smooth="yes"/>
      <point x="216" y="582"/>
      <point x="149" y="544"/>
      <point x="66" y="529" type="curve"/>
      <point x="82" y="520" type="line"/>
      <point x="72" y="554"/>
      <point x="64" y="588"/>
      <point x="56" y="621" type="curve"/>
      <point x="23" y="612" type="line"/>
      <point x="30" y="578"/>
      <point x="40" y="539"/>
      <point x="50" y="507" type="curve"/>
    </contour>
  </outline>
</glyph>
<glyph name="toneloopabove-ar" format="2">
  <unicode hex="08EC"/>
  <anchor x="114" y="468" name="_top"/>
  <anchor x="115" y="688" name="top"/>
  <outline>
    <contour>
      <point x="92" y="501" type="curve" smooth="yes"/>
      <point x="142" y="501"/>
      <point x="182" y="555"/>
      <point x="226" y="643" type="curve"/>
      <point x="198" y="662" type="line"/>
      <point x="159" y="584"/>
      <point x="127" y="539"/>
      <point x="91" y="539" type="curve" smooth="yes"/>
      <point x="67" y="539"/>
      <point x="58" y="555"/>
      <point x="58" y="581" type="curve" smooth="yes"/>
      <point x="58" y="605"/>
      <point x="69" y="620"/>
      <point x="90" y="620" type="curve" smooth="yes"/>
      <point x="124" y="620"/>
      <point x="150" y="594"/>
      <point x="212" y="525" type="curve"/>
      <point x="235" y="552" type="line"/>
      <point x="170" y="628"/>
      <point x="127" y="659"/>
      <point x="89" y="659" type="curve" smooth="yes"/>
      <point x="48" y="659"/>
      <point x="24" y="624"/>
      <point x="24" y="581" type="curve" smooth="yes"/>
      <point x="24" y="526"/>
      <point x="53" y="501"/>
    </contour>
  </outline>
</glyph>
<glyph name="highwaw-ar" format="2">
  <unicode hex="08F3"/>
  <anchor x="83" y="468" name="_top"/>
  <anchor x="90" y="762" name="top"/>
  <outline>
    <contour>
      <point x="58" y="504" type="curve" smooth="yes"/>
      <point x="118" y="504"/>
      <point x="150" y="546"/>
      <point x="150" y="628" type="curve" smooth="yes"/>
      <point x="150" y="704"/>
      <point x="122" y="739"/>
      <point x="89" y="739" type="curve" smooth="yes"/>
      <point x="55" y="739"/>
      <point x="30" y="703"/>
      <point x="30" y="657" type="curve" smooth="yes"/>
      <point x="30" y="611"/>
      <point x="52" y="595"/>
      <point x="86" y="595" type="curve" smooth="yes"/>
      <point x="105" y="595"/>
      <point x="122" y="600"/>
      <point x="134" y="608" type="curve"/>
      <point x="133" y="638" type="line"/>
      <point x="119" y="632"/>
      <point x="106" y="628"/>
      <point x="90" y="628" type="curve" smooth="yes"/>
      <point x="68" y="628"/>
      <point x="60" y="636"/>
      <point x="60" y="659" type="curve" smooth="yes"/>
      <point x="60" y="686"/>
      <point x="70" y="704"/>
      <point x="87" y="704" type="curve" smooth="yes"/>
      <point x="108" y="704"/>
      <point x="119" y="678"/>
      <point x="119" y="623" type="curve" smooth="yes"/>
      <point x="119" y="562"/>
      <point x="100" y="539"/>
      <point x="56" y="539" type="curve" smooth="yes"/>
      <point x="44" y="539"/>
      <point x="34" y="541"/>
      <point x="24" y="542" type="curve"/>
      <point x="26" y="509" type="line"/>
      <point x="34" y="506"/>
      <point x="46" y="504"/>
    </contour>
  </outline>
</glyph>
<glyph name="fathaRing-ar" format="2">
  <unicode hex="08F4"/>
  <anchor x="99" y="464" name="_top"/>
  <anchor x="100" y="685" name="top"/>
  <outline>
    <contour>
      <point x="101" y="498" type="curve" smooth="yes"/>
      <point x="141" y="498"/>
      <point x="166" y="526"/>
      <point x="166" y="578" type="curve" smooth="yes"/>
      <point x="166" y="636"/>
      <point x="136" y="668"/>
      <point x="101" y="668" type="curve" smooth="yes"/>
      <point x="61" y="668"/>
      <point x="34" y="627"/>
      <point x="34" y="572" type="curve" smooth="yes"/>
      <point x="34" y="524"/>
      <point x="57" y="498"/>
    </contour>
    <contour>
      <point x="102" y="535" type="curve" smooth="yes"/>
      <point x="79" y="535"/>
      <point x="69" y="548"/>
      <point x="69" y="577" type="curve" smooth="yes"/>
      <point x="69" y="610"/>
      <point x="81" y="630"/>
      <point x="101" y="630" type="curve" smooth="yes"/>
      <point x="120" y="630"/>
      <point x="133" y="610"/>
      <point x="133" y="579" type="curve" smooth="yes"/>
      <point x="133" y="548"/>
      <point x="122" y="535"/>
    </contour>
    <contour>
      <point x="5" y="533" type="line"/>
      <point x="196" y="604" type="line"/>
      <point x="196" y="635" type="line"/>
      <point x="5" y="563" type="line"/>
    </contour>
  </outline>
</glyph>
<glyph name="leftarrowheadabove-ar" format="2">
  <unicode hex="08F7"/>
  <anchor x="94" y="467" name="_top"/>
  <anchor x="96" y="687" name="top"/>
  <outline>
    <contour>
      <point x="148" y="489" type="curve"/>
      <point x="163" y="524" type="line"/>
      <point x="126" y="546"/>
      <point x="80" y="574"/>
      <point x="41" y="592" type="curve"/>
      <point x="44" y="571" type="line"/>
      <point x="78" y="591"/>
      <point x="124" y="621"/>
      <point x="162" y="646" type="curve"/>
      <point x="144" y="679" type="line"/>
      <point x="106" y="652"/>
      <point x="60" y="622"/>
      <point x="24" y="600" type="curve"/>
      <point x="26" y="559" type="line"/>
      <point x="65" y="540"/>
      <point x="112" y="511"/>
    </contour>
  </outline>
</glyph>
<glyph name="marksidewaysnoonghunna-ar" format="2">
  <unicode hex="08FF"/>
  <anchor x="73" y="467" name="_top"/>
  <anchor x="76" y="749" name="top"/>
  <outline>
    <contour>
      <point x="38" y="494" type="line"/>
      <point x="100" y="510"/>
      <point x="135" y="570"/>
      <point x="135" y="632" type="curve" smooth="yes"/>
      <point x="135" y="691"/>
      <point x="111" y="723"/>
      <point x="77" y="723" type="curve" smooth="yes"/>
      <point x="44" y="723"/>
      <point x="26" y="693"/>
      <point x="26" y="662" type="curve" smooth="yes"/>
      <point x="26" y="633"/>
      <point x="42" y="609"/>
      <point x="72" y="609" type="curve" smooth="yes"/>
      <point x="87" y="609"/>
      <point x="103" y="615"/>
      <point x="118" y="647" type="curve"/>
      <point x="94" y="652" type="line"/>
      <point x="96" y="593"/>
      <point x="85" y="562"/>
      <point x="24" y="534" type="curve"/>
    </contour>
  </outline>
</glyph>
<glyph name="zerowidthnonjoiner" format="2">
  <unicode hex="200C"/>
  <outline>
    <contour>
      <point x="-11" y="-28" type="line"/>
      <point x="11" y="-28" type="line"/>
      <point x="11" y="639" type="line"/>
      <point x="-11" y="639" type="line"/>
    </contour>
  </outline>
</glyph>
<glyph name="zerowidthjoiner" format="2">
  <unicode hex="200D"/>
  <outline>
    <contour>
      <point x="74" y="532" type="line"/>
      <point x="91" y="553" type="line"/>
      <point x="-62" y="744" type="line"/>
      <point x="-78" y="723" type="line"/>
    </contour>
    <contour>
      <point x="-10" y="-28" type="line"/>
      <point x="13" y="-28" type="line"/>
      <point x="13" y="639" type="line"/>
      <point x="-10" y="639" type="line"/>
    </contour>
    <contour>
      <point x="-71" y="536" type="line"/>
      <point x="82" y="727" type="line"/>
      <point x="65" y="748" type="line"/>
      <point x="-88" y="557" type="line"/>
    </contour>
  </outline>
</glyph>
<glyph name="lefttorightmark" format="2">
  <unicode hex="200E"/>
  <outline>
    <contour>
      <point x="-13" y="-28" type="line"/>
      <point x="10" y="-28" type="line"/>
      <point x="10" y="606" type="line"/>
      <point x="130" y="606" type="line"/>
      <point x="68" y="533" type="line"/>
      <point x="84" y="513" type="line"/>
      <point x="172" y="620" type="line"/>
      <point x="85" y="729" type="line"/>
      <point x="69" y="708" type="line"/>
      <point x="130" y="635" type="line"/>
      <point x="-13" y="635" type="line"/>
    </contour>
  </outline>
</glyph>
<glyph name="righttoleftmark" format="2">
  <unicode hex="200F"/>
  <outline>
    <contour>
      <point x="-10" y="-28" type="line"/>
      <point x="12" y="-28" type="line"/>
      <point x="12" y="635" type="line"/>
      <point x="-130" y="635" type="line"/>
      <point x="-70" y="708" type="line"/>
      <point x="-86" y="729" type="line"/>
      <point x="-173" y="620" type="line"/>
      <point x="-85" y="513" type="line"/>
      <point x="-69" y="533" type="line"/>
      <point x="-130" y="606" type="line"/>
      <point x="-10" y="606" type="line"/>
    </contour>
  </outline>
</glyph>
<glyph name="hyphentwo" format="2">
  <advance width="256"/>
  <unicode hex="2010"/>
  <outline>
    <contour>
      <point x="26" y="233" type="line"/>
      <point x="230" y="233" type="line"/>
      <point x="230" y="307" type="line"/>
      <point x="26" y="307" type="line"/>
    </contour>
  </outline>
</glyph>
<glyph name="nonbreakinghyphen" format="2">
  <advance width="256"/>
  <unicode hex="2011"/>
  <outline>
    <contour>
      <point x="26" y="233" type="line"/>
      <point x="230" y="233" type="line"/>
      <point x="230" y="307" type="line"/>
      <point x="26" y="307" type="line"/>
    </contour>
  </outline>
</glyph>
<glyph name="dottedCircle" format="2">
  <advance width="511"/>
  <unicode hex="25CC"/>
  <anchor x="255" y="-34" name="bottom"/>
  <anchor x="251" y="628" name="top"/>
  <outline>
    <contour>
      <point x="408" y="465" type="curve" smooth="yes"/>
      <point x="418" y="465"/>
      <point x="426" y="475"/>
      <point x="426" y="487" type="curve" smooth="yes"/>
      <point x="426" y="499"/>
      <point x="418" y="508"/>
      <point x="408" y="508" type="curve" smooth="yes"/>
      <point x="399" y="508"/>
      <point x="391" y="499"/>
      <point x="391" y="487" type="curve" smooth="yes"/>
      <point x="391" y="475"/>
      <point x="399" y="465"/>
    </contour>
    <contour>
      <point x="103" y="91" type="curve" smooth="yes"/>
      <point x="112" y="91"/>
      <point x="120" y="100"/>
      <point x="120" y="112" type="curve" smooth="yes"/>
      <point x="120" y="124"/>
      <point x="112" y="134"/>
      <point x="103" y="134" type="curve" smooth="yes"/>
      <point x="94" y="134"/>
      <point x="86" y="124"/>
      <point x="86" y="112" type="curve" smooth="yes"/>
      <point x="86" y="100"/>
      <point x="94" y="91"/>
    </contour>
    <contour>
      <point x="170" y="32" type="curve" smooth="yes"/>
      <point x="179" y="32"/>
      <point x="187" y="41"/>
      <point x="187" y="53" type="curve" smooth="yes"/>
      <point x="187" y="65"/>
      <point x="179" y="75"/>
      <point x="170" y="75" type="curve" smooth="yes"/>
      <point x="161" y="75"/>
      <point x="153" y="65"/>
      <point x="153" y="53" type="curve" smooth="yes"/>
      <point x="153" y="41"/>
      <point x="161" y="32"/>
    </contour>
    <contour>
      <point x="58" y="177" type="curve" smooth="yes"/>
      <point x="66" y="177"/>
      <point x="74" y="186"/>
      <point x="74" y="198" type="curve" smooth="yes"/>
      <point x="74" y="210"/>
      <point x="66" y="220"/>
      <point x="58" y="220" type="curve" smooth="yes"/>
      <point x="48" y="220"/>
      <point x="40" y="210"/>
      <point x="40" y="198" type="curve" smooth="yes"/>
      <point x="40" y="186"/>
      <point x="48" y="177"/>
    </contour>
    <contour>
      <point x="255" y="9" type="curve" smooth="yes"/>
      <point x="265" y="9"/>
      <point x="273" y="18"/>
      <point x="273" y="30" type="curve" smooth="yes"/>
      <point x="273" y="42"/>
      <point x="265" y="52"/>
      <point x="255" y="52" type="curve" smooth="yes"/>
      <point x="246" y="52"/>
      <point x="238" y="42"/>
      <point x="238" y="30" type="curve" smooth="yes"/>
      <point x="238" y="18"/>
      <point x="246" y="9"/>
    </contour>
    <contour>
      <point x="42" y="278" type="curve" smooth="yes"/>
      <point x="50" y="278"/>
      <point x="58" y="287"/>
      <point x="58" y="299" type="curve" smooth="yes"/>
      <point x="58" y="311"/>
      <point x="50" y="321"/>
      <point x="42" y="321" type="curve" smooth="yes"/>
      <point x="32" y="321"/>
      <point x="24" y="311"/>
      <point x="24" y="299" type="curve" smooth="yes"/>
      <point x="24" y="287"/>
      <point x="32" y="278"/>
    </contour>
    <contour>
      <point x="58" y="379" type="curve" smooth="yes"/>
      <point x="66" y="379"/>
      <point x="74" y="389"/>
      <point x="74" y="401" type="curve" smooth="yes"/>
      <point x="74" y="413"/>
      <point x="66" y="422"/>
      <point x="58" y="422" type="curve" smooth="yes"/>
      <point x="48" y="422"/>
      <point x="40" y="413"/>
      <point x="40" y="401" type="curve" smooth="yes"/>
      <point x="40" y="389"/>
      <point x="48" y="379"/>
    </contour>
    <contour>
      <point x="341" y="32" type="curve" smooth="yes"/>
      <point x="350" y="32"/>
      <point x="358" y="41"/>
      <point x="358" y="53" type="curve" smooth="yes"/>
      <point x="358" y="65"/>
      <point x="350" y="75"/>
      <point x="341" y="75" type="curve" smooth="yes"/>
      <point x="332" y="75"/>
      <point x="324" y="65"/>
      <point x="324" y="53" type="curve" smooth="yes"/>
      <point x="324" y="41"/>
      <point x="332" y="32"/>
    </contour>
    <contour>
      <point x="103" y="465" type="curve" smooth="yes"/>
      <point x="112" y="465"/>
      <point x="120" y="475"/>
      <point x="120" y="487" type="curve" smooth="yes"/>
      <point x="120" y="499"/>
      <point x="112" y="508"/>
      <point x="103" y="508" type="curve" smooth="yes"/>
      <point x="94" y="508"/>
      <point x="86" y="499"/>
      <point x="86" y="487" type="curve" smooth="yes"/>
      <point x="86" y="475"/>
      <point x="94" y="465"/>
    </contour>
    <contour>
      <point x="408" y="91" type="curve" smooth="yes"/>
      <point x="418" y="91"/>
      <point x="426" y="100"/>
      <point x="426" y="112" type="curve" smooth="yes"/>
      <point x="426" y="124"/>
      <point x="418" y="134"/>
      <point x="408" y="134" type="curve" smooth="yes"/>
      <point x="399" y="134"/>
      <point x="391" y="124"/>
      <point x="391" y="112" type="curve" smooth="yes"/>
      <point x="391" y="100"/>
      <point x="399" y="91"/>
    </contour>
    <contour>
      <point x="170" y="524" type="curve" smooth="yes"/>
      <point x="179" y="524"/>
      <point x="187" y="534"/>
      <point x="187" y="546" type="curve" smooth="yes"/>
      <point x="187" y="558"/>
      <point x="179" y="567"/>
      <point x="170" y="567" type="curve" smooth="yes"/>
      <point x="161" y="567"/>
      <point x="153" y="558"/>
      <point x="153" y="546" type="curve" smooth="yes"/>
      <point x="153" y="534"/>
      <point x="161" y="524"/>
    </contour>
    <contour>
      <point x="454" y="177" type="curve" smooth="yes"/>
      <point x="463" y="177"/>
      <point x="471" y="186"/>
      <point x="471" y="198" type="curve" smooth="yes"/>
      <point x="471" y="210"/>
      <point x="463" y="220"/>
      <point x="454" y="220" type="curve" smooth="yes"/>
      <point x="445" y="220"/>
      <point x="437" y="210"/>
      <point x="437" y="198" type="curve" smooth="yes"/>
      <point x="437" y="186"/>
      <point x="445" y="177"/>
    </contour>
    <contour>
      <point x="470" y="278" type="curve" smooth="yes"/>
      <point x="479" y="278"/>
      <point x="487" y="288"/>
      <point x="487" y="299" type="curve" smooth="yes"/>
      <point x="487" y="312"/>
      <point x="479" y="321"/>
      <point x="470" y="321" type="curve" smooth="yes"/>
      <point x="461" y="321"/>
      <point x="453" y="312"/>
      <point x="453" y="299" type="curve" smooth="yes"/>
      <point x="453" y="288"/>
      <point x="461" y="278"/>
    </contour>
    <contour>
      <point x="255" y="547" type="curve" smooth="yes"/>
      <point x="265" y="547"/>
      <point x="273" y="557"/>
      <point x="273" y="569" type="curve" smooth="yes"/>
      <point x="273" y="581"/>
      <point x="265" y="590"/>
      <point x="255" y="590" type="curve" smooth="yes"/>
      <point x="246" y="590"/>
      <point x="238" y="581"/>
      <point x="238" y="569" type="curve" smooth="yes"/>
      <point x="238" y="557"/>
      <point x="246" y="547"/>
    </contour>
    <contour>
      <point x="454" y="379" type="curve" smooth="yes"/>
      <point x="463" y="379"/>
      <point x="471" y="389"/>
      <point x="471" y="401" type="curve" smooth="yes"/>
      <point x="471" y="413"/>
      <point x="463" y="422"/>
      <point x="454" y="422" type="curve" smooth="yes"/>
      <point x="445" y="422"/>
      <point x="437" y="413"/>
      <point x="437" y="401" type="curve" smooth="yes"/>
      <point x="437" y="389"/>
      <point x="445" y="379"/>
    </contour>
    <contour>
      <point x="341" y="524" type="curve" smooth="yes"/>
      <point x="350" y="524"/>
      <point x="358" y="534"/>
      <point x="358" y="546" type="curve" smooth="yes"/>
      <point x="358" y="558"/>
      <point x="350" y="567"/>
      <point x="341" y="567" type="curve" smooth="yes"/>
      <point x="332" y="567"/>
      <point x="324" y="558"/>
      <point x="324" y="546" type="curve" smooth="yes"/>
      <point x="324" y="534"/>
      <point x="332" y="524"/>
    </contour>
  </outline>
</glyph>
<glyph name="keheh-ar.fina" format="2">
  <advance width="761"/>
  <unicode hex="FB8F"/>
  <anchor x="322" y="-111" name="bottom"/>
  <anchor x="322" y="-20" name="bottom.dot"/>
  <anchor x="676" y="560" name="center"/>
  <anchor x="262" y="605" name="top"/>
  <anchor x="488" y="586" name="top.dot"/>
  <outline>
    <contour>
      <point x="762" y="-7" type="curve" smooth="yes"/>
      <point x="786" y="-7"/>
      <point x="799" y="13"/>
      <point x="799" y="36" type="curve" smooth="yes"/>
      <point x="799" y="58"/>
      <point x="790" y="79"/>
      <point x="766" y="79" type="curve" smooth="yes"/>
      <point x="701" y="79"/>
      <point x="669" y="119"/>
      <point x="613" y="201" type="curve" smooth="yes"/>
      <point x="416" y="486" type="line"/>
      <point x="403" y="440" type="line"/>
      <point x="732" y="640" type="line"/>
      <point x="731" y="725" type="line"/>
      <point x="380" y="506" type="line"/>
      <point x="368" y="431" type="line"/>
      <point x="435" y="336"/>
      <point x="503" y="234"/>
      <point x="565" y="143" type="curve" smooth="yes"/>
      <point x="626" y="54"/>
      <point x="673" y="-7"/>
    </contour>
    <contour>
      <point x="338" y="-15" type="line"/>
      <point x="492" y="-15"/>
      <point x="558" y="55"/>
      <point x="582" y="171" type="curve"/>
      <point x="537" y="220" type="line"/>
      <point x="516" y="117"/>
      <point x="462" y="71"/>
      <point x="346" y="71" type="curve"/>
    </contour>
    <component base="_part.beh.fina" xOffset="-3"/>
  </outline>
</glyph>
<glyph name="noonghunna-ar.fina" format="2">
  <advance width="608"/>
  <unicode hex="FB9F"/>
  <anchor x="265" y="-280" name="bottom"/>
  <anchor x="266" y="-232" name="bottom.dot"/>
  <anchor x="281" y="270" name="top.dot"/>
  <outline>
    <contour>
      <point x="254" y="-237" type="curve" smooth="yes"/>
      <point x="422" y="-237"/>
      <point x="525" y="-117"/>
      <point x="514" y="99" type="curve"/>
      <point x="487" y="83" type="line"/>
      <point x="502" y="29"/>
      <point x="538" y="-7"/>
      <point x="607" y="-7" type="curve" smooth="yes"/>
      <point x="632" y="-7"/>
      <point x="646" y="13"/>
      <point x="646" y="36" type="curve" smooth="yes"/>
      <point x="646" y="58"/>
      <point x="636" y="79"/>
      <point x="612" y="79" type="curve" smooth="yes"/>
      <point x="564" y="79"/>
      <point x="530" y="95"/>
      <point x="516" y="147" type="curve" smooth="yes"/>
      <point x="506" y="185"/>
      <point x="502" y="214"/>
      <point x="489" y="285" type="curve"/>
      <point x="427" y="271" type="line"/>
      <point x="441" y="191"/>
      <point x="450" y="135"/>
      <point x="450" y="72" type="curve" smooth="yes"/>
      <point x="450" y="-63"/>
      <point x="398" y="-151"/>
      <point x="262" y="-151" type="curve" smooth="yes"/>
      <point x="151" y="-151"/>
      <point x="104" y="-91"/>
      <point x="104" y="28" type="curve" smooth="yes"/>
      <point x="104" y="92"/>
      <point x="112" y="140"/>
      <point x="126" y="198" type="curve"/>
      <point x="71" y="213" type="line"/>
      <point x="50" y="147"/>
      <point x="38" y="80"/>
      <point x="38" y="12" type="curve" smooth="yes"/>
      <point x="38" y="-146"/>
      <point x="112" y="-237"/>
    </contour>
  </outline>
</glyph>
<glyph name="hehgoal-ar.fina" format="2">
  <advance width="494"/>
  <unicode hex="FBA7"/>
  <anchor x="223" y="-111" name="bottom"/>
  <anchor x="225" y="496" name="top"/>
  <anchor x="225" y="364" name="top.dot"/>
  <outline>
    <contour>
      <point x="494" y="-7" type="curve" smooth="yes"/>
      <point x="518" y="-7"/>
      <point x="532" y="13"/>
      <point x="532" y="36" type="curve" smooth="yes"/>
      <point x="532" y="58"/>
      <point x="522" y="79"/>
      <point x="498" y="79" type="curve" smooth="yes"/>
      <point x="446" y="79"/>
      <point x="423" y="122"/>
      <point x="370" y="209" type="curve" smooth="yes"/>
      <point x="317" y="293"/>
      <point x="279" y="330"/>
      <point x="223" y="330" type="curve" smooth="yes"/>
      <point x="150" y="330"/>
      <point x="84" y="251"/>
      <point x="26" y="131" type="curve"/>
      <point x="77" y="94" type="line"/>
      <point x="133" y="190"/>
      <point x="165" y="241"/>
      <point x="216" y="241" type="curve" smooth="yes"/>
      <point x="259" y="241"/>
      <point x="278" y="211"/>
      <point x="322" y="139" type="curve" smooth="yes"/>
      <point x="377" y="51"/>
      <point x="422" y="-7"/>
    </contour>
  </outline>
</glyph>
<glyph name="hehgoal-ar.medi" format="2">
  <advance width="416"/>
  <unicode hex="FBA9"/>
  <anchor x="246" y="-358" name="bottom"/>
  <anchor x="227" y="337" name="top"/>
  <outline>
    <contour>
      <point x="240" y="-307" type="curve"/>
      <point x="286" y="-260" type="line"/>
      <point x="282" y="-235"/>
      <point x="278" y="-199"/>
      <point x="278" y="-163" type="curve" smooth="yes"/>
      <point x="278" y="-56"/>
      <point x="316" y="-7"/>
      <point x="416" y="-7" type="curve" smooth="yes"/>
      <point x="441" y="-7"/>
      <point x="454" y="13"/>
      <point x="454" y="36" type="curve" smooth="yes"/>
      <point x="454" y="58"/>
      <point x="441" y="79"/>
      <point x="417" y="79" type="curve" smooth="yes"/>
      <point x="286" y="79"/>
      <point x="218" y="-1"/>
      <point x="218" y="-148" type="curve" smooth="yes"/>
      <point x="218" y="-185"/>
      <point x="223" y="-211"/>
      <point x="229" y="-241" type="curve"/>
      <point x="253" y="-224" type="line"/>
      <point x="171" y="-177"/>
      <point x="142" y="-97"/>
      <point x="142" y="22" type="curve" smooth="yes"/>
      <point x="142" y="74"/>
      <point x="149" y="139"/>
      <point x="161" y="206" type="curve"/>
      <point x="103" y="219" type="line"/>
      <point x="83" y="109"/>
      <point x="59" y="79"/>
      <point x="2" y="79" type="curve"/>
      <point x="-3" y="-7" type="line"/>
      <point x="59" y="-7"/>
      <point x="89" y="22"/>
      <point x="111" y="72" type="curve"/>
      <point x="89" y="106" type="line"/>
      <point x="83" y="71"/>
      <point x="78" y="41"/>
      <point x="78" y="3" type="curve" smooth="yes"/>
      <point x="78" y="-143"/>
      <point x="134" y="-251"/>
    </contour>
  </outline>
</glyph>
<glyph name="hehDoachashmee-ar.fina" format="2">
  <advance width="522"/>
  <unicode hex="FBAB"/>
  <anchor x="323" y="-309" name="bottom"/>
  <anchor x="323" y="538" name="top"/>
  <anchor x="323" y="474" name="top.dot"/>
  <outline>
    <contour>
      <point x="326" y="-257" type="curve" smooth="yes"/>
      <point x="410" y="-257"/>
      <point x="461" y="-185"/>
      <point x="461" y="-93" type="curve" smooth="yes"/>
      <point x="461" y="-40"/>
      <point x="442" y="15"/>
      <point x="402" y="42" type="curve"/>
      <point x="390" y="14" type="line"/>
      <point x="427" y="-4"/>
      <point x="476" y="-7"/>
      <point x="522" y="-7" type="curve" smooth="yes"/>
      <point x="546" y="-7"/>
      <point x="560" y="13"/>
      <point x="560" y="36" type="curve" smooth="yes"/>
      <point x="560" y="58"/>
      <point x="550" y="79"/>
      <point x="527" y="79" type="curve" smooth="yes"/>
      <point x="449" y="79"/>
      <point x="379" y="83"/>
      <point x="323" y="100" type="curve"/>
      <point x="302" y="31" type="line"/>
      <point x="384" y="15"/>
      <point x="398" y="-58"/>
      <point x="398" y="-94" type="curve" smooth="yes"/>
      <point x="398" y="-144"/>
      <point x="372" y="-171"/>
      <point x="329" y="-171" type="curve" smooth="yes"/>
      <point x="256" y="-171"/>
      <point x="216" y="-102"/>
      <point x="216" y="54" type="curve" smooth="yes"/>
      <point x="216" y="222"/>
      <point x="286" y="348"/>
      <point x="330" y="348" type="curve" smooth="yes"/>
      <point x="362" y="348"/>
      <point x="385" y="304"/>
      <point x="385" y="235" type="curve" smooth="yes"/>
      <point x="385" y="183"/>
      <point x="366" y="143"/>
      <point x="326" y="119" type="curve" smooth="yes"/>
      <point x="280" y="92"/>
      <point x="217" y="79"/>
      <point x="135" y="79" type="curve" smooth="yes"/>
      <point x="104" y="79"/>
      <point x="65" y="82"/>
      <point x="30" y="89" type="curve"/>
      <point x="24" y="9" type="line"/>
      <point x="58" y="-2"/>
      <point x="94" y="-7"/>
      <point x="131" y="-7" type="curve" smooth="yes"/>
      <point x="224" y="-7"/>
      <point x="295" y="14"/>
      <point x="354" y="53" type="curve" smooth="yes"/>
      <point x="411" y="90"/>
      <point x="447" y="153"/>
      <point x="447" y="245" type="curve" smooth="yes"/>
      <point x="447" y="349"/>
      <point x="398" y="434"/>
      <point x="339" y="434" type="curve" smooth="yes"/>
      <point x="259" y="434"/>
      <point x="154" y="267"/>
      <point x="154" y="44" type="curve" smooth="yes"/>
      <point x="154" y="-149"/>
      <point x="228" y="-257"/>
    </contour>
  </outline>
</glyph>
<glyph name="yehbarree-ar.fina" format="2">
  <advance width="524"/>
  <unicode hex="FBAF"/>
  <anchor x="284" y="-341" name="bottom"/>
  <anchor x="174" y="127" name="top"/>
  <outline>
    <contour>
      <point x="282" y="-298" type="curve" smooth="yes"/>
      <point x="376" y="-298"/>
      <point x="458" y="-288"/>
      <point x="520" y="-275" type="curve"/>
      <point x="525" y="-192" type="line"/>
      <point x="462" y="-203"/>
      <point x="394" y="-212"/>
      <point x="291" y="-212" type="curve" smooth="yes"/>
      <point x="157" y="-212"/>
      <point x="103" y="-184"/>
      <point x="103" y="-119" type="curve" smooth="yes"/>
      <point x="103" y="-54"/>
      <point x="152" y="-7"/>
      <point x="273" y="-7" type="curve" smooth="yes"/>
      <point x="336" y="-7"/>
      <point x="430" y="-7"/>
      <point x="525" y="-7" type="curve" smooth="yes"/>
      <point x="550" y="-7"/>
      <point x="562" y="13"/>
      <point x="562" y="36" type="curve" smooth="yes"/>
      <point x="562" y="58"/>
      <point x="553" y="79"/>
      <point x="530" y="79" type="curve" smooth="yes"/>
      <point x="439" y="79"/>
      <point x="354" y="79"/>
      <point x="287" y="79" type="curve" smooth="yes"/>
      <point x="122" y="79"/>
      <point x="31" y="6"/>
      <point x="31" y="-123" type="curve" smooth="yes"/>
      <point x="31" y="-242"/>
      <point x="107" y="-298"/>
    </contour>
  </outline>
</glyph>
<glyph name="uniFBBC" format="2">
  <unicode hex="FBBC"/>
  <anchor x="86" y="0" name="_top"/>
  <outline>
    <contour>
      <point x="118" y="-209" type="line"/>
      <point x="158" y="-209" type="line"/>
      <point x="153" y="-31" type="line"/>
      <point x="113" y="-31" type="line"/>
    </contour>
    <contour>
      <point x="25" y="-209" type="line"/>
      <point x="65" y="-209" type="line"/>
      <point x="61" y="-31" type="line"/>
      <point x="20" y="-31" type="line"/>
    </contour>
  </outline>
</glyph>
<glyph name="kaf_alefMaksura-ar" format="2">
  <advance width="844"/>
  <unicode hex="FC3D"/>
  <anchor x="286" y="-244" name="bottom.dot"/>
  <anchor x="676" y="-111" name="bottom_1"/>
  <anchor x="286" y="-287" name="bottom_2"/>
  <anchor x="109" y="198" name="top.dot_2"/>
  <anchor x="626" y="679" name="top_1"/>
  <anchor x="292" y="293" name="top_2"/>
  <outline>
    <contour>
      <point x="287" y="-245" type="curve" smooth="yes"/>
      <point x="479" y="-245"/>
      <point x="593" y="-134"/>
      <point x="593" y="-31" type="curve" smooth="yes"/>
      <point x="593" y="1"/>
      <point x="580" y="34"/>
      <point x="555" y="55" type="curve"/>
      <point x="539" y="22" type="line"/>
      <point x="554" y="15"/>
      <point x="580" y="10"/>
      <point x="604" y="10" type="curve" smooth="yes"/>
      <point x="708" y="10"/>
      <point x="762" y="67"/>
      <point x="762" y="167" type="curve" smooth="yes"/>
      <point x="762" y="271"/>
      <point x="700" y="351"/>
      <point x="521" y="483" type="curve"/>
      <point x="503" y="444" type="line"/>
      <point x="828" y="637" type="line"/>
      <point x="828" y="724" type="line"/>
      <point x="477" y="506" type="line"/>
      <point x="465" y="431" type="line"/>
      <point x="645" y="299"/>
      <point x="690" y="234"/>
      <point x="690" y="168" type="curve" smooth="yes"/>
      <point x="690" y="118"/>
      <point x="666" y="93"/>
      <point x="594" y="93" type="curve" smooth="yes"/>
      <point x="546" y="93"/>
      <point x="507" y="103"/>
      <point x="451" y="128" type="curve"/>
      <point x="427" y="57" type="line"/>
      <point x="509" y="22"/>
      <point x="531" y="7"/>
      <point x="531" y="-24" type="curve" smooth="yes"/>
      <point x="531" y="-88"/>
      <point x="454" y="-159"/>
      <point x="298" y="-159" type="curve" smooth="yes"/>
      <point x="160" y="-159"/>
      <point x="100" y="-101"/>
      <point x="100" y="8" type="curve" smooth="yes"/>
      <point x="100" y="60"/>
      <point x="108" y="109"/>
      <point x="127" y="181" type="curve"/>
      <point x="75" y="195" type="line"/>
      <point x="49" y="116"/>
      <point x="38" y="51"/>
      <point x="38" y="-8" type="curve" smooth="yes"/>
      <point x="38" y="-175"/>
      <point x="139" y="-245"/>
    </contour>
  </outline>
</glyph>
<glyph name="kaf_alefMaksura-ar.fina" format="2">
  <advance width="884"/>
  <unicode hex="FC83"/>
  <anchor x="286" y="-244" name="bottom.dot"/>
  <anchor x="698" y="-111" name="bottom_1"/>
  <anchor x="286" y="-287" name="bottom_2"/>
  <anchor x="109" y="198" name="top.dot_2"/>
  <anchor x="642" y="679" name="top_1"/>
  <anchor x="292" y="293" name="top_2"/>
  <outline>
    <contour>
      <point x="884" y="-7" type="curve" smooth="yes"/>
      <point x="908" y="-7"/>
      <point x="922" y="13"/>
      <point x="922" y="36" type="curve" smooth="yes"/>
      <point x="922" y="58"/>
      <point x="912" y="79"/>
      <point x="888" y="79" type="curve" smooth="yes"/>
      <point x="823" y="79"/>
      <point x="792" y="120"/>
      <point x="737" y="201" type="curve" smooth="yes"/>
      <point x="541" y="486" type="line"/>
      <point x="527" y="439" type="line"/>
      <point x="852" y="637" type="line"/>
      <point x="851" y="724" type="line"/>
      <point x="504" y="506" type="line"/>
      <point x="492" y="431" type="line"/>
      <point x="559" y="336"/>
      <point x="626" y="234"/>
      <point x="687" y="143" type="curve" smooth="yes"/>
      <point x="747" y="54"/>
      <point x="795" y="-7"/>
    </contour>
    <contour>
      <point x="287" y="-245" type="curve" smooth="yes"/>
      <point x="479" y="-245"/>
      <point x="593" y="-137"/>
      <point x="593" y="-31" type="curve" smooth="yes"/>
      <point x="593" y="6"/>
      <point x="581" y="38"/>
      <point x="538" y="64" type="curve"/>
      <point x="522" y="38" type="line"/>
      <point x="533" y="32"/>
      <point x="559" y="20"/>
      <point x="582" y="20" type="curve" smooth="yes"/>
      <point x="640" y="20"/>
      <point x="695" y="55"/>
      <point x="705" y="170" type="curve"/>
      <point x="660" y="217" type="line"/>
      <point x="650" y="122"/>
      <point x="614" y="98"/>
      <point x="560" y="98" type="curve" smooth="yes"/>
      <point x="525" y="98"/>
      <point x="498" y="107"/>
      <point x="451" y="128" type="curve"/>
      <point x="427" y="57" type="line"/>
      <point x="509" y="22"/>
      <point x="531" y="7"/>
      <point x="531" y="-24" type="curve" smooth="yes"/>
      <point x="531" y="-88"/>
      <point x="454" y="-159"/>
      <point x="298" y="-159" type="curve" smooth="yes"/>
      <point x="160" y="-159"/>
      <point x="100" y="-101"/>
      <point x="100" y="8" type="curve" smooth="yes"/>
      <point x="100" y="60"/>
      <point x="108" y="109"/>
      <point x="127" y="181" type="curve"/>
      <point x="75" y="195" type="line"/>
      <point x="49" y="116"/>
      <point x="38" y="51"/>
      <point x="38" y="-8" type="curve" smooth="yes"/>
      <point x="38" y="-175"/>
      <point x="139" y="-245"/>
    </contour>
  </outline>
</glyph>
<glyph name="sad_alefMaksura-ar" format="2">
  <advance width="1259"/>
  <unicode hex="FD05"/>
  <anchor x="281" y="-244" name="bottom.dot_2"/>
  <anchor x="938" y="-112" name="bottom_1"/>
  <anchor x="281" y="-281" name="bottom_2"/>
  <anchor x="1018" y="462" name="top.dot_1"/>
  <anchor x="109" y="194" name="top.dot_2"/>
  <anchor x="983" y="559" name="top_1"/>
  <anchor x="218" y="372" name="top_2"/>
  <outline>
    <contour>
      <point x="273" y="-245" type="curve" smooth="yes"/>
      <point x="474" y="-245"/>
      <point x="584" y="-144"/>
      <point x="584" y="-30" type="curve" smooth="yes"/>
      <point x="584" y="44"/>
      <point x="551" y="72"/>
      <point x="452" y="105" type="curve" smooth="yes"/>
      <point x="384" y="126"/>
      <point x="359" y="141"/>
      <point x="359" y="186" type="curve" smooth="yes"/>
      <point x="359" y="248"/>
      <point x="415" y="305"/>
      <point x="495" y="305" type="curve" smooth="yes"/>
      <point x="562" y="305"/>
      <point x="588" y="268"/>
      <point x="623" y="177" type="curve" smooth="yes"/>
      <point x="682" y="24"/>
      <point x="744" y="-7"/>
      <point x="910" y="-7" type="curve" smooth="yes"/>
      <point x="1129" y="-7"/>
      <point x="1222" y="73"/>
      <point x="1222" y="216" type="curve" smooth="yes"/>
      <point x="1222" y="338"/>
      <point x="1161" y="439"/>
      <point x="1059" y="439" type="curve" smooth="yes"/>
      <point x="931" y="439"/>
      <point x="814" y="279"/>
      <point x="715" y="90" type="curve"/>
      <point x="772" y="63" type="line"/>
      <point x="849" y="205"/>
      <point x="939" y="352"/>
      <point x="1047" y="352" type="curve" smooth="yes"/>
      <point x="1119" y="352"/>
      <point x="1150" y="281"/>
      <point x="1150" y="211" type="curve" smooth="yes"/>
      <point x="1150" y="129"/>
      <point x="1099" y="79"/>
      <point x="910" y="79" type="curve" smooth="yes"/>
      <point x="746" y="79"/>
      <point x="722" y="117"/>
      <point x="682" y="222" type="curve" smooth="yes"/>
      <point x="637" y="340"/>
      <point x="595" y="389"/>
      <point x="507" y="389" type="curve" smooth="yes"/>
      <point x="394" y="389"/>
      <point x="295" y="291"/>
      <point x="295" y="172" type="curve" smooth="yes"/>
      <point x="295" y="97"/>
      <point x="336" y="61"/>
      <point x="426" y="32" type="curve" smooth="yes"/>
      <point x="498" y="9"/>
      <point x="512" y="-4"/>
      <point x="512" y="-39" type="curve" smooth="yes"/>
      <point x="512" y="-103"/>
      <point x="430" y="-159"/>
      <point x="284" y="-159" type="curve" smooth="yes"/>
      <point x="160" y="-159"/>
      <point x="100" y="-109"/>
      <point x="100" y="8" type="curve" smooth="yes"/>
      <point x="100" y="60"/>
      <point x="109" y="119"/>
      <point x="127" y="184" type="curve"/>
      <point x="76" y="199" type="line"/>
      <point x="48" y="120"/>
      <point x="38" y="48"/>
      <point x="38" y="-8" type="curve" smooth="yes"/>
      <point x="38" y="-173"/>
      <point x="127" y="-245"/>
    </contour>
  </outline>
</glyph>
<glyph name="seen_reh-ar" format="2">
  <advance width="1040"/>
  <unicode hex="FD0E"/>
  <anchor x="738" y="-111" name="bottom_1"/>
  <anchor x="104" y="-301" name="bottom_2"/>
  <anchor x="738" y="359" name="top.dot_1"/>
  <anchor x="226" y="297" name="top.dot_2"/>
  <anchor x="736" y="475" name="top_1"/>
  <anchor x="222" y="445" name="top_2"/>
  <outline>
    <contour>
      <point x="66" y="-262" type="curve" smooth="yes"/>
      <point x="218" y="-262"/>
      <point x="309" y="-168"/>
      <point x="309" y="25" type="curve" smooth="yes"/>
      <point x="309" y="77"/>
      <point x="302" y="144"/>
      <point x="290" y="196" type="curve"/>
      <point x="268" y="167" type="line"/>
      <point x="346" y="173"/>
      <point x="421" y="190"/>
      <point x="494" y="223" type="curve"/>
      <point x="467" y="241" type="line"/>
      <point x="467" y="220"/>
      <point x="466" y="195"/>
      <point x="466" y="169" type="curve" smooth="yes"/>
      <point x="466" y="49"/>
      <point x="502" y="-10"/>
      <point x="606" y="-10" type="curve" smooth="yes"/>
      <point x="677" y="-10"/>
      <point x="732" y="20"/>
      <point x="753" y="118" type="curve"/>
      <point x="729" y="117" type="line"/>
      <point x="737" y="30"/>
      <point x="782" y="-10"/>
      <point x="855" y="-10" type="curve" smooth="yes"/>
      <point x="949" y="-10"/>
      <point x="994" y="55"/>
      <point x="994" y="174" type="curve" smooth="yes"/>
      <point x="994" y="245"/>
      <point x="982" y="318"/>
      <point x="958" y="403" type="curve"/>
      <point x="896" y="384" type="line"/>
      <point x="917" y="304"/>
      <point x="928" y="241"/>
      <point x="928" y="178" type="curve" smooth="yes"/>
      <point x="928" y="110"/>
      <point x="906" y="76"/>
      <point x="852" y="76" type="curve" smooth="yes"/>
      <point x="796" y="76"/>
      <point x="777" y="101"/>
      <point x="772" y="159" type="curve" smooth="yes"/>
      <point x="769" y="194"/>
      <point x="769" y="252"/>
      <point x="768" y="322" type="curve"/>
      <point x="706" y="316" type="line"/>
      <point x="711" y="111"/>
      <point x="682" y="76"/>
      <point x="602" y="76" type="curve" smooth="yes"/>
      <point x="535" y="76"/>
      <point x="521" y="112"/>
      <point x="521" y="208" type="curve" smooth="yes"/>
      <point x="521" y="236"/>
      <point x="521" y="264"/>
      <point x="522" y="299" type="curve"/>
      <point x="474" y="298" type="line"/>
      <point x="407" y="267"/>
      <point x="326" y="249"/>
      <point x="254" y="245" type="curve"/>
      <point x="221" y="183" type="line"/>
      <point x="232" y="138"/>
      <point x="241" y="83"/>
      <point x="241" y="36" type="curve" smooth="yes"/>
      <point x="241" y="-110"/>
      <point x="179" y="-182"/>
      <point x="58" y="-182" type="curve" smooth="yes"/>
      <point x="14" y="-182"/>
      <point x="-15" y="-174"/>
      <point x="-50" y="-160" type="curve"/>
      <point x="-47" y="-234" type="line"/>
      <point x="-20" y="-252"/>
      <point x="17" y="-262"/>
    </contour>
  </outline>
</glyph>
<glyph name="sad_reh-ar" format="2">
  <advance width="1080"/>
  <unicode hex="FD0F"/>
  <anchor x="759" y="-112" name="bottom_1"/>
  <anchor x="104" y="-301" name="bottom_2"/>
  <anchor x="840" y="462" name="top.dot_1"/>
  <anchor x="226" y="297" name="top.dot_2"/>
  <anchor x="806" y="559" name="top_1"/>
  <anchor x="222" y="445" name="top_2"/>
  <outline>
    <contour>
      <point x="66" y="-262" type="curve" smooth="yes"/>
      <point x="221" y="-262"/>
      <point x="306" y="-154"/>
      <point x="306" y="39" type="curve" smooth="yes"/>
      <point x="306" y="90"/>
      <point x="299" y="143"/>
      <point x="289" y="191" type="curve"/>
      <point x="268" y="167" type="line"/>
      <point x="346" y="173"/>
      <point x="421" y="191"/>
      <point x="494" y="224" type="curve"/>
      <point x="469" y="233" type="line"/>
      <point x="474" y="28"/>
      <point x="521" y="-7"/>
      <point x="730" y="-7" type="curve" smooth="yes"/>
      <point x="950" y="-7"/>
      <point x="1043" y="73"/>
      <point x="1043" y="216" type="curve" smooth="yes"/>
      <point x="1043" y="338"/>
      <point x="983" y="439"/>
      <point x="881" y="439" type="curve" smooth="yes"/>
      <point x="751" y="439"/>
      <point x="632" y="273"/>
      <point x="532" y="82" type="curve"/>
      <point x="589" y="55" type="line"/>
      <point x="667" y="198"/>
      <point x="758" y="352"/>
      <point x="868" y="352" type="curve" smooth="yes"/>
      <point x="939" y="352"/>
      <point x="971" y="281"/>
      <point x="971" y="211" type="curve" smooth="yes"/>
      <point x="971" y="129"/>
      <point x="922" y="79"/>
      <point x="733" y="79" type="curve" smooth="yes"/>
      <point x="561" y="79"/>
      <point x="538" y="103"/>
      <point x="524" y="168" type="curve" smooth="yes"/>
      <point x="518" y="204"/>
      <point x="516" y="246"/>
      <point x="515" y="299" type="curve"/>
      <point x="470" y="298" type="line"/>
      <point x="404" y="267"/>
      <point x="326" y="249"/>
      <point x="254" y="245" type="curve"/>
      <point x="225" y="183" type="line"/>
      <point x="236" y="138"/>
      <point x="245" y="93"/>
      <point x="245" y="46" type="curve" smooth="yes"/>
      <point x="245" y="-100"/>
      <point x="179" y="-182"/>
      <point x="58" y="-182" type="curve" smooth="yes"/>
      <point x="14" y="-182"/>
      <point x="-15" y="-174"/>
      <point x="-50" y="-160" type="curve"/>
      <point x="-47" y="-234" type="line"/>
      <point x="-20" y="-252"/>
      <point x="17" y="-262"/>
    </contour>
  </outline>
</glyph>
<glyph name="seen_alefMaksura-ar.fina" format="2">
  <advance width="1285"/>
  <unicode hex="FD17"/>
  <anchor x="281" y="-244" name="bottom.dot_2"/>
  <anchor x="920" y="-111" name="bottom_1"/>
  <anchor x="281" y="-281" name="bottom_2"/>
  <anchor x="920" y="359" name="top.dot_1"/>
  <anchor x="109" y="194" name="top.dot_2"/>
  <anchor x="918" y="475" name="top_1"/>
  <anchor x="218" y="372" name="top_2"/>
  <outline>
    <contour>
      <point x="273" y="-245" type="curve" smooth="yes"/>
      <point x="474" y="-245"/>
      <point x="589" y="-144"/>
      <point x="589" y="-30" type="curve" smooth="yes"/>
      <point x="589" y="44"/>
      <point x="551" y="72"/>
      <point x="452" y="105" type="curve" smooth="yes"/>
      <point x="384" y="126"/>
      <point x="359" y="141"/>
      <point x="359" y="186" type="curve" smooth="yes"/>
      <point x="359" y="248"/>
      <point x="415" y="305"/>
      <point x="495" y="305" type="curve" smooth="yes"/>
      <point x="562" y="305"/>
      <point x="592" y="268"/>
      <point x="625" y="177" type="curve" smooth="yes"/>
      <point x="675" y="37"/>
      <point x="715" y="-10"/>
      <point x="798" y="-10" type="curve" smooth="yes"/>
      <point x="861" y="-10"/>
      <point x="913" y="21"/>
      <point x="932" y="118" type="curve"/>
      <point x="916" y="117" type="line"/>
      <point x="925" y="30"/>
      <point x="965" y="-10"/>
      <point x="1038" y="-10" type="curve" smooth="yes"/>
      <point x="1097" y="-10"/>
      <point x="1154" y="26"/>
      <point x="1163" y="116" type="curve"/>
      <point x="1141" y="114" type="line"/>
      <point x="1157" y="29"/>
      <point x="1209" y="-7"/>
      <point x="1285" y="-7" type="curve" smooth="yes"/>
      <point x="1310" y="-7"/>
      <point x="1323" y="13"/>
      <point x="1323" y="36" type="curve" smooth="yes"/>
      <point x="1323" y="58"/>
      <point x="1314" y="79"/>
      <point x="1290" y="79" type="curve" smooth="yes"/>
      <point x="1234" y="79"/>
      <point x="1205" y="90"/>
      <point x="1188" y="146" type="curve" smooth="yes"/>
      <point x="1175" y="188"/>
      <point x="1168" y="277"/>
      <point x="1160" y="374" type="curve"/>
      <point x="1098" y="366" type="line"/>
      <point x="1104" y="280"/>
      <point x="1109" y="226"/>
      <point x="1109" y="175" type="curve" smooth="yes"/>
      <point x="1109" y="112"/>
      <point x="1085" y="76"/>
      <point x="1034" y="76" type="curve" smooth="yes"/>
      <point x="978" y="76"/>
      <point x="959" y="101"/>
      <point x="954" y="159" type="curve" smooth="yes"/>
      <point x="951" y="194"/>
      <point x="952" y="252"/>
      <point x="949" y="322" type="curve"/>
      <point x="889" y="316" type="line"/>
      <point x="896" y="115"/>
      <point x="858" y="76"/>
      <point x="797" y="76" type="curve" smooth="yes"/>
      <point x="744" y="76"/>
      <point x="723" y="112"/>
      <point x="684" y="222" type="curve" smooth="yes"/>
      <point x="644" y="339"/>
      <point x="595" y="389"/>
      <point x="507" y="389" type="curve" smooth="yes"/>
      <point x="394" y="389"/>
      <point x="295" y="291"/>
      <point x="295" y="172" type="curve" smooth="yes"/>
      <point x="295" y="97"/>
      <point x="336" y="61"/>
      <point x="426" y="32" type="curve" smooth="yes"/>
      <point x="502" y="9"/>
      <point x="517" y="-4"/>
      <point x="517" y="-39" type="curve" smooth="yes"/>
      <point x="517" y="-103"/>
      <point x="430" y="-159"/>
      <point x="284" y="-159" type="curve" smooth="yes"/>
      <point x="160" y="-159"/>
      <point x="100" y="-109"/>
      <point x="100" y="8" type="curve" smooth="yes"/>
      <point x="100" y="60"/>
      <point x="109" y="119"/>
      <point x="127" y="184" type="curve"/>
      <point x="76" y="199" type="line"/>
      <point x="48" y="120"/>
      <point x="38" y="48"/>
      <point x="38" y="-8" type="curve" smooth="yes"/>
      <point x="38" y="-173"/>
      <point x="127" y="-245"/>
    </contour>
  </outline>
</glyph>
<glyph name="seen_reh-ar.fina" format="2">
  <advance width="1104"/>
  <unicode hex="FD2A"/>
  <anchor x="738" y="-111" name="bottom_1"/>
  <anchor x="104" y="-301" name="bottom_2"/>
  <anchor x="738" y="359" name="top.dot_1"/>
  <anchor x="226" y="297" name="top.dot_2"/>
  <anchor x="736" y="475" name="top_1"/>
  <anchor x="222" y="445" name="top_2"/>
  <outline>
    <contour>
      <point x="66" y="-262" type="curve" smooth="yes"/>
      <point x="218" y="-262"/>
      <point x="309" y="-168"/>
      <point x="309" y="25" type="curve" smooth="yes"/>
      <point x="309" y="77"/>
      <point x="302" y="144"/>
      <point x="290" y="196" type="curve"/>
      <point x="268" y="167" type="line"/>
      <point x="346" y="173"/>
      <point x="421" y="190"/>
      <point x="494" y="223" type="curve"/>
      <point x="467" y="241" type="line"/>
      <point x="467" y="220"/>
      <point x="466" y="195"/>
      <point x="466" y="169" type="curve" smooth="yes"/>
      <point x="466" y="49"/>
      <point x="502" y="-10"/>
      <point x="606" y="-10" type="curve" smooth="yes"/>
      <point x="671" y="-10"/>
      <point x="732" y="20"/>
      <point x="753" y="118" type="curve"/>
      <point x="730" y="117" type="line"/>
      <point x="738" y="30"/>
      <point x="782" y="-10"/>
      <point x="855" y="-10" type="curve" smooth="yes"/>
      <point x="915" y="-10"/>
      <point x="973" y="26"/>
      <point x="983" y="116" type="curve"/>
      <point x="958" y="114" type="line"/>
      <point x="974" y="29"/>
      <point x="1027" y="-7"/>
      <point x="1103" y="-7" type="curve" smooth="yes"/>
      <point x="1128" y="-7"/>
      <point x="1142" y="13"/>
      <point x="1142" y="36" type="curve" smooth="yes"/>
      <point x="1142" y="58"/>
      <point x="1132" y="79"/>
      <point x="1108" y="79" type="curve" smooth="yes"/>
      <point x="1051" y="79"/>
      <point x="1021" y="90"/>
      <point x="1005" y="146" type="curve" smooth="yes"/>
      <point x="993" y="188"/>
      <point x="987" y="277"/>
      <point x="978" y="374" type="curve"/>
      <point x="916" y="364" type="line"/>
      <point x="923" y="278"/>
      <point x="927" y="226"/>
      <point x="927" y="175" type="curve" smooth="yes"/>
      <point x="927" y="112"/>
      <point x="903" y="76"/>
      <point x="852" y="76" type="curve" smooth="yes"/>
      <point x="796" y="76"/>
      <point x="777" y="101"/>
      <point x="772" y="159" type="curve" smooth="yes"/>
      <point x="769" y="194"/>
      <point x="769" y="252"/>
      <point x="768" y="322" type="curve"/>
      <point x="706" y="316" type="line"/>
      <point x="711" y="111"/>
      <point x="676" y="76"/>
      <point x="602" y="76" type="curve" smooth="yes"/>
      <point x="535" y="76"/>
      <point x="521" y="112"/>
      <point x="521" y="208" type="curve" smooth="yes"/>
      <point x="521" y="236"/>
      <point x="521" y="264"/>
      <point x="522" y="299" type="curve"/>
      <point x="474" y="298" type="line"/>
      <point x="407" y="267"/>
      <point x="326" y="249"/>
      <point x="254" y="245" type="curve"/>
      <point x="221" y="183" type="line"/>
      <point x="232" y="138"/>
      <point x="241" y="83"/>
      <point x="241" y="36" type="curve" smooth="yes"/>
      <point x="241" y="-110"/>
      <point x="179" y="-182"/>
      <point x="58" y="-182" type="curve" smooth="yes"/>
      <point x="14" y="-182"/>
      <point x="-15" y="-174"/>
      <point x="-50" y="-160" type="curve"/>
      <point x="-47" y="-234" type="line"/>
      <point x="-20" y="-252"/>
      <point x="17" y="-262"/>
    </contour>
  </outline>
</glyph>
<glyph name="parenleft-ar" format="2">
  <advance width="373"/>
  <unicode hex="FD3E"/>
  <outline>
    <contour>
      <point x="254" y="-233" type="curve"/>
      <point x="314" y="-233" type="line"/>
      <point x="259" y="-143"/>
      <point x="227" y="-37"/>
      <point x="214" y="77" type="curve"/>
      <point x="230" y="86"/>
      <point x="244" y="108"/>
      <point x="244" y="131" type="curve" smooth="yes"/>
      <point x="244" y="139"/>
      <point x="243" y="147"/>
      <point x="242" y="153" type="curve"/>
      <point x="246" y="150"/>
      <point x="253" y="150"/>
      <point x="259" y="150" type="curve" smooth="yes"/>
      <point x="295" y="150"/>
      <point x="324" y="185"/>
      <point x="324" y="235" type="curve" smooth="yes"/>
      <point x="324" y="285"/>
      <point x="295" y="320"/>
      <point x="259" y="320" type="curve" smooth="yes"/>
      <point x="253" y="320"/>
      <point x="247" y="319"/>
      <point x="242" y="317" type="curve"/>
      <point x="244" y="323"/>
      <point x="245" y="331"/>
      <point x="245" y="339" type="curve" smooth="yes"/>
      <point x="245" y="363"/>
      <point x="231" y="386"/>
      <point x="213" y="394" type="curve"/>
      <point x="226" y="511"/>
      <point x="260" y="619"/>
      <point x="314" y="708" type="curve"/>
      <point x="254" y="708" type="line"/>
      <point x="195" y="621"/>
      <point x="163" y="515"/>
      <point x="150" y="402" type="curve"/>
      <point x="125" y="396"/>
      <point x="108" y="370"/>
      <point x="108" y="339" type="curve" smooth="yes"/>
      <point x="108" y="331"/>
      <point x="109" y="324"/>
      <point x="110" y="318" type="curve"/>
      <point x="106" y="320"/>
      <point x="99" y="321"/>
      <point x="93" y="321" type="curve" smooth="yes"/>
      <point x="57" y="321"/>
      <point x="28" y="286"/>
      <point x="28" y="235" type="curve" smooth="yes"/>
      <point x="28" y="185"/>
      <point x="57" y="151"/>
      <point x="93" y="151" type="curve" smooth="yes"/>
      <point x="99" y="151"/>
      <point x="105" y="151"/>
      <point x="110" y="153" type="curve"/>
      <point x="108" y="147"/>
      <point x="107" y="139"/>
      <point x="107" y="131" type="curve" smooth="yes"/>
      <point x="107" y="100"/>
      <point x="125" y="73"/>
      <point x="150" y="68" type="curve"/>
      <point x="164" y="-43"/>
      <point x="195" y="-146"/>
    </contour>
    <contour>
      <point x="94" y="177" type="curve" smooth="yes"/>
      <point x="66" y="177"/>
      <point x="49" y="205"/>
      <point x="49" y="235" type="curve" smooth="yes"/>
      <point x="49" y="266"/>
      <point x="65" y="294"/>
      <point x="94" y="294" type="curve" smooth="yes"/>
      <point x="104" y="294"/>
      <point x="114" y="288"/>
      <point x="121" y="281" type="curve"/>
      <point x="113" y="267"/>
      <point x="108" y="251"/>
      <point x="108" y="233" type="curve" smooth="yes"/>
      <point x="108" y="216"/>
      <point x="112" y="201"/>
      <point x="118" y="188" type="curve"/>
      <point x="112" y="182"/>
      <point x="103" y="177"/>
    </contour>
    <contour>
      <point x="176" y="77" type="curve" smooth="yes"/>
      <point x="151" y="77"/>
      <point x="129" y="98"/>
      <point x="129" y="132" type="curve" smooth="yes"/>
      <point x="129" y="145"/>
      <point x="133" y="155"/>
      <point x="138" y="164" type="curve"/>
      <point x="148" y="155"/>
      <point x="161" y="150"/>
      <point x="174" y="150" type="curve" smooth="yes"/>
      <point x="188" y="150"/>
      <point x="201" y="156"/>
      <point x="212" y="166" type="curve"/>
      <point x="218" y="157"/>
      <point x="222" y="146"/>
      <point x="222" y="133" type="curve" smooth="yes"/>
      <point x="222" y="97"/>
      <point x="199" y="77"/>
    </contour>
    <contour>
      <point x="174" y="180" type="curve" smooth="yes"/>
      <point x="147" y="180"/>
      <point x="130" y="203"/>
      <point x="130" y="234" type="curve" smooth="yes"/>
      <point x="130" y="266"/>
      <point x="149" y="288"/>
      <point x="174" y="288" type="curve" smooth="yes"/>
      <point x="197" y="288"/>
      <point x="216" y="266"/>
      <point x="216" y="233" type="curve" smooth="yes"/>
      <point x="216" y="204"/>
      <point x="200" y="180"/>
    </contour>
    <contour>
      <point x="258" y="176" type="curve" smooth="yes"/>
      <point x="247" y="176"/>
      <point x="238" y="182"/>
      <point x="230" y="191" type="curve"/>
      <point x="236" y="203"/>
      <point x="240" y="217"/>
      <point x="240" y="233" type="curve" smooth="yes"/>
      <point x="240" y="250"/>
      <point x="236" y="265"/>
      <point x="229" y="278" type="curve"/>
      <point x="237" y="287"/>
      <point x="246" y="293"/>
      <point x="258" y="293" type="curve" smooth="yes"/>
      <point x="286" y="293"/>
      <point x="303" y="265"/>
      <point x="303" y="235" type="curve" smooth="yes"/>
      <point x="303" y="205"/>
      <point x="286" y="176"/>
    </contour>
    <contour>
      <point x="210" y="302" type="curve"/>
      <point x="200" y="311"/>
      <point x="187" y="316"/>
      <point x="174" y="316" type="curve" smooth="yes"/>
      <point x="162" y="316"/>
      <point x="150" y="312"/>
      <point x="140" y="304" type="curve"/>
      <point x="134" y="313"/>
      <point x="129" y="324"/>
      <point x="129" y="338" type="curve" smooth="yes"/>
      <point x="129" y="373"/>
      <point x="152" y="394"/>
      <point x="176" y="394" type="curve" smooth="yes"/>
      <point x="200" y="394"/>
      <point x="222" y="374"/>
      <point x="222" y="338" type="curve" smooth="yes"/>
      <point x="222" y="323"/>
      <point x="218" y="311"/>
    </contour>
  </outline>
</glyph>
<glyph name="sad_lam_yeh-ar" format="2">
  <advance width="1280"/>
  <unicode hex="FDF0"/>
  <outline>
    <contour>
      <point x="414" y="-298" type="curve" smooth="yes"/>
      <point x="547" y="-298"/>
      <point x="725" y="-288"/>
      <point x="870" y="-275" type="curve"/>
      <point x="875" y="-192" type="line"/>
      <point x="729" y="-203"/>
      <point x="566" y="-212"/>
      <point x="423" y="-212" type="curve" smooth="yes"/>
      <point x="194" y="-212"/>
      <point x="110" y="-191"/>
      <point x="110" y="-113" type="curve" smooth="yes"/>
      <point x="110" y="-49"/>
      <point x="146" y="-16"/>
      <point x="280" y="-7" type="curve" smooth="yes"/>
      <point x="377" y="-2"/>
      <point x="428" y="35"/>
      <point x="448" y="116" type="curve"/>
      <point x="417" y="119" type="line"/>
      <point x="429" y="24"/>
      <point x="482" y="-7"/>
      <point x="552" y="-7" type="curve" smooth="yes"/>
      <point x="637" y="-7"/>
      <point x="681" y="33"/>
      <point x="703" y="124" type="curve"/>
      <point x="675" y="123" type="line"/>
      <point x="697" y="26"/>
      <point x="760" y="-7"/>
      <point x="932" y="-7" type="curve" smooth="yes"/>
      <point x="1150" y="-7"/>
      <point x="1243" y="73"/>
      <point x="1243" y="216" type="curve" smooth="yes"/>
      <point x="1243" y="338"/>
      <point x="1182" y="439"/>
      <point x="1081" y="439" type="curve" smooth="yes"/>
      <point x="950" y="439"/>
      <point x="831" y="273"/>
      <point x="732" y="82" type="curve"/>
      <point x="788" y="55" type="line"/>
      <point x="867" y="198"/>
      <point x="958" y="352"/>
      <point x="1067" y="352" type="curve" smooth="yes"/>
      <point x="1138" y="352"/>
      <point x="1171" y="281"/>
      <point x="1171" y="211" type="curve" smooth="yes"/>
      <point x="1171" y="129"/>
      <point x="1121" y="79"/>
      <point x="937" y="79" type="curve" smooth="yes"/>
      <point x="776" y="79"/>
      <point x="742" y="95"/>
      <point x="727" y="147" type="curve" smooth="yes"/>
      <point x="716" y="184"/>
      <point x="720" y="229"/>
      <point x="720" y="306" type="curve"/>
      <point x="660" y="303" type="line"/>
      <point x="657" y="114"/>
      <point x="624" y="79"/>
      <point x="552" y="79" type="curve" smooth="yes"/>
      <point x="488" y="79"/>
      <point x="468" y="105"/>
      <point x="465" y="214" type="curve" smooth="yes"/>
      <point x="451" y="732" type="line"/>
      <point x="383" y="732" type="line"/>
      <point x="395" y="216" type="line" smooth="yes"/>
      <point x="397" y="120"/>
      <point x="369" y="83"/>
      <point x="289" y="79" type="curve" smooth="yes"/>
      <point x="109" y="71"/>
      <point x="38" y="7"/>
      <point x="38" y="-118" type="curve" smooth="yes"/>
      <point x="38" y="-255"/>
      <point x="153" y="-298"/>
    </contour>
  </outline>
</glyph>
<glyph name="qaf_lam_yeh-ar" format="2">
  <advance width="962"/>
  <unicode hex="FDF1"/>
  <outline>
    <contour>
      <point x="413" y="-298" type="curve" smooth="yes"/>
      <point x="545" y="-298"/>
      <point x="723" y="-288"/>
      <point x="869" y="-275" type="curve"/>
      <point x="874" y="-192" type="line"/>
      <point x="727" y="-203"/>
      <point x="564" y="-212"/>
      <point x="422" y="-212" type="curve" smooth="yes"/>
      <point x="188" y="-212"/>
      <point x="109" y="-191"/>
      <point x="109" y="-113" type="curve" smooth="yes"/>
      <point x="109" y="-44"/>
      <point x="145" y="-16"/>
      <point x="278" y="-7" type="curve" smooth="yes"/>
      <point x="375" y="-2"/>
      <point x="426" y="35"/>
      <point x="446" y="116" type="curve"/>
      <point x="418" y="119" type="line"/>
      <point x="430" y="24"/>
      <point x="486" y="-7"/>
      <point x="562" y="-7" type="curve" smooth="yes"/>
      <point x="721" y="-7"/>
      <point x="806" y="0"/>
      <point x="857" y="43" type="curve" smooth="yes"/>
      <point x="908" y="86"/>
      <point x="925" y="154"/>
      <point x="925" y="261" type="curve" smooth="yes"/>
      <point x="925" y="430"/>
      <point x="869" y="547"/>
      <point x="763" y="547" type="curve" smooth="yes"/>
      <point x="674" y="547"/>
      <point x="613" y="454"/>
      <point x="613" y="345" type="curve" smooth="yes"/>
      <point x="613" y="243"/>
      <point x="664" y="187"/>
      <point x="754" y="187" type="curve" smooth="yes"/>
      <point x="806" y="187"/>
      <point x="858" y="202"/>
      <point x="891" y="224" type="curve"/>
      <point x="887" y="290" type="line"/>
      <point x="850" y="270"/>
      <point x="805" y="258"/>
      <point x="762" y="258" type="curve" smooth="yes"/>
      <point x="697" y="258"/>
      <point x="673" y="284"/>
      <point x="673" y="352" type="curve" smooth="yes"/>
      <point x="673" y="416"/>
      <point x="702" y="471"/>
      <point x="760" y="471" type="curve" smooth="yes"/>
      <point x="833" y="471"/>
      <point x="859" y="385"/>
      <point x="859" y="261" type="curve" smooth="yes"/>
      <point x="859" y="178"/>
      <point x="858" y="146"/>
      <point x="830" y="118" type="curve" smooth="yes"/>
      <point x="793" y="82"/>
      <point x="706" y="79"/>
      <point x="562" y="79" type="curve" smooth="yes"/>
      <point x="495" y="79"/>
      <point x="467" y="105"/>
      <point x="464" y="214" type="curve" smooth="yes"/>
      <point x="451" y="732" type="line"/>
      <point x="379" y="732" type="line"/>
      <point x="391" y="216" type="line" smooth="yes"/>
      <point x="393" y="120"/>
      <point x="367" y="83"/>
      <point x="287" y="79" type="curve" smooth="yes"/>
      <point x="107" y="71"/>
      <point x="37" y="7"/>
      <point x="37" y="-118" type="curve" smooth="yes"/>
      <point x="37" y="-255"/>
      <point x="151" y="-298"/>
    </contour>
    <contour>
      <point x="708" y="615" type="curve"/>
      <point x="761" y="675" type="line"/>
      <point x="738" y="702"/>
      <point x="726" y="715"/>
      <point x="704" y="736" type="curve"/>
      <point x="651" y="674" type="line"/>
      <point x="674" y="652"/>
      <point x="687" y="638"/>
    </contour>
    <contour>
      <point x="813" y="615" type="curve"/>
      <point x="866" y="675" type="line"/>
      <point x="843" y="702"/>
      <point x="831" y="715"/>
      <point x="809" y="736" type="curve"/>
      <point x="756" y="674" type="line"/>
      <point x="779" y="652"/>
      <point x="792" y="638"/>
    </contour>
  </outline>
</glyph>
<glyph name="allahlong-ar" format="2">
  <advance width="890"/>
  <unicode hex="FDFA"/>
  <outline>
    <contour>
      <point x="362" y="307" type="curve" smooth="yes"/>
      <point x="433" y="307"/>
      <point x="473" y="340"/>
      <point x="473" y="384" type="curve" smooth="yes"/>
      <point x="473" y="405"/>
      <point x="465" y="417"/>
      <point x="449" y="428" type="curve"/>
      <point x="448" y="417" type="line"/>
      <point x="490" y="420"/>
      <point x="512" y="444"/>
      <point x="517" y="472" type="curve"/>
      <point x="504" y="468" type="line"/>
      <point x="509" y="434"/>
      <point x="538" y="420"/>
      <point x="578" y="420" type="curve" smooth="yes"/>
      <point x="630" y="420"/>
      <point x="648" y="441"/>
      <point x="658" y="471" type="curve"/>
      <point x="649" y="471" type="line"/>
      <point x="655" y="432"/>
      <point x="679" y="420"/>
      <point x="742" y="420" type="curve" smooth="yes"/>
      <point x="821" y="420"/>
      <point x="854" y="449"/>
      <point x="854" y="501" type="curve" smooth="yes"/>
      <point x="854" y="545"/>
      <point x="832" y="581"/>
      <point x="795" y="581" type="curve" smooth="yes"/>
      <point x="748" y="581"/>
      <point x="706" y="523"/>
      <point x="670" y="453" type="curve"/>
      <point x="695" y="444" type="line"/>
      <point x="724" y="496"/>
      <point x="754" y="547"/>
      <point x="794" y="547" type="curve" smooth="yes"/>
      <point x="819" y="547"/>
      <point x="824" y="524"/>
      <point x="824" y="499" type="curve" smooth="yes"/>
      <point x="824" y="469"/>
      <point x="810" y="454"/>
      <point x="742" y="454" type="curve" smooth="yes"/>
      <point x="687" y="454"/>
      <point x="678" y="461"/>
      <point x="671" y="477" type="curve" smooth="yes"/>
      <point x="666" y="489"/>
      <point x="667" y="505"/>
      <point x="667" y="533" type="curve"/>
      <point x="641" y="532" type="line"/>
      <point x="640" y="471"/>
      <point x="629" y="454"/>
      <point x="579" y="454" type="curve" smooth="yes"/>
      <point x="539" y="454"/>
      <point x="525" y="464"/>
      <point x="524" y="500" type="curve" smooth="yes"/>
      <point x="519" y="703" type="line"/>
      <point x="489" y="703" type="line"/>
      <point x="493" y="500" type="line" smooth="yes"/>
      <point x="494" y="459"/>
      <point x="469" y="445"/>
      <point x="421" y="448" type="curve"/>
      <point x="415" y="418" type="line"/>
      <point x="441" y="412"/>
      <point x="446" y="401"/>
      <point x="446" y="388" type="curve" smooth="yes"/>
      <point x="446" y="364"/>
      <point x="423" y="342"/>
      <point x="366" y="342" type="curve" smooth="yes"/>
      <point x="317" y="342"/>
      <point x="300" y="358"/>
      <point x="300" y="399" type="curve" smooth="yes"/>
      <point x="300" y="413"/>
      <point x="301" y="426"/>
      <point x="305" y="443" type="curve"/>
      <point x="282" y="448" type="line"/>
      <point x="275" y="427"/>
      <point x="273" y="409"/>
      <point x="273" y="393" type="curve" smooth="yes"/>
      <point x="273" y="332"/>
      <point x="309" y="307"/>
    </contour>
    <contour>
      <point x="402" y="477" type="line"/>
      <point x="432" y="477" type="line"/>
      <point x="427" y="728" type="line"/>
      <point x="397" y="728" type="line"/>
    </contour>
    <contour>
      <point x="196" y="420" type="curve" smooth="yes"/>
      <point x="230" y="420"/>
      <point x="248" y="433"/>
      <point x="253" y="465" type="curve"/>
      <point x="243" y="464" type="line"/>
      <point x="248" y="431"/>
      <point x="266" y="420"/>
      <point x="293" y="420" type="curve" smooth="yes"/>
      <point x="333" y="420"/>
      <point x="356" y="445"/>
      <point x="354" y="503" type="curve" smooth="yes"/>
      <point x="349" y="652" type="line"/>
      <point x="319" y="652" type="line"/>
      <point x="323" y="502" type="line" smooth="yes"/>
      <point x="324" y="464"/>
      <point x="318" y="454"/>
      <point x="293" y="454" type="curve" smooth="yes"/>
      <point x="267" y="454"/>
      <point x="263" y="463"/>
      <point x="262" y="495" type="curve" smooth="yes"/>
      <point x="257" y="651" type="line"/>
      <point x="227" y="651" type="line"/>
      <point x="231" y="495" type="line" smooth="yes"/>
      <point x="232" y="463"/>
      <point x="224" y="454"/>
      <point x="199" y="454" type="curve" smooth="yes"/>
      <point x="176" y="454"/>
      <point x="170" y="461"/>
      <point x="169" y="492" type="curve" smooth="yes"/>
      <point x="165" y="631" type="line"/>
      <point x="135" y="631" type="line"/>
      <point x="140" y="479" type="line" smooth="yes"/>
      <point x="141" y="441"/>
      <point x="162" y="420"/>
    </contour>
    <contour>
      <point x="108" y="452" type="curve" smooth="yes"/>
      <point x="128" y="452"/>
      <point x="141" y="457"/>
      <point x="154" y="462" type="curve"/>
      <point x="152" y="492" type="line"/>
      <point x="142" y="487"/>
      <point x="130" y="482"/>
      <point x="110" y="482" type="curve" smooth="yes"/>
      <point x="86" y="482"/>
      <point x="78" y="492"/>
      <point x="78" y="510" type="curve" smooth="yes"/>
      <point x="78" y="544"/>
      <point x="112" y="563"/>
      <point x="149" y="576" type="curve"/>
      <point x="147" y="604" type="line"/>
      <point x="98" y="588"/>
      <point x="48" y="556"/>
      <point x="48" y="506" type="curve" smooth="yes"/>
      <point x="48" y="468"/>
      <point x="71" y="452"/>
    </contour>
    <contour>
      <point x="326" y="176" type="curve" smooth="yes"/>
      <point x="434" y="176"/>
      <point x="477" y="192"/>
      <point x="490" y="230" type="curve"/>
      <point x="481" y="230" type="line"/>
      <point x="484" y="196"/>
      <point x="500" y="179"/>
      <point x="538" y="179" type="curve" smooth="yes"/>
      <point x="571" y="179"/>
      <point x="596" y="194"/>
      <point x="602" y="227" type="curve"/>
      <point x="593" y="227" type="line"/>
      <point x="597" y="196"/>
      <point x="616" y="179"/>
      <point x="667" y="179" type="curve" smooth="yes"/>
      <point x="721" y="179"/>
      <point x="795" y="187"/>
      <point x="844" y="210" type="curve"/>
      <point x="838" y="242" type="line"/>
      <point x="815" y="231"/>
      <point x="793" y="229"/>
      <point x="781" y="229" type="curve" smooth="yes"/>
      <point x="756" y="229"/>
      <point x="743" y="246"/>
      <point x="743" y="278" type="curve" smooth="yes"/>
      <point x="743" y="309"/>
      <point x="757" y="323"/>
      <point x="785" y="323" type="curve" smooth="yes"/>
      <point x="798" y="323"/>
      <point x="809" y="320"/>
      <point x="822" y="315" type="curve"/>
      <point x="824" y="347" type="line"/>
      <point x="813" y="353"/>
      <point x="798" y="358"/>
      <point x="782" y="358" type="curve" smooth="yes"/>
      <point x="740" y="358"/>
      <point x="712" y="325"/>
      <point x="712" y="277" type="curve" smooth="yes"/>
      <point x="712" y="234"/>
      <point x="737" y="213"/>
      <point x="754" y="209" type="curve"/>
      <point x="757" y="220" type="line"/>
      <point x="732" y="217"/>
      <point x="713" y="214"/>
      <point x="672" y="214" type="curve" smooth="yes"/>
      <point x="621" y="214"/>
      <point x="611" y="223"/>
      <point x="610" y="266" type="curve" smooth="yes"/>
      <point x="604" y="562" type="line"/>
      <point x="574" y="562" type="line"/>
      <point x="579" y="262" type="line" smooth="yes"/>
      <point x="580" y="225"/>
      <point x="570" y="214"/>
      <point x="539" y="214" type="curve" smooth="yes"/>
      <point x="514" y="214"/>
      <point x="506" y="225"/>
      <point x="505" y="242" type="curve" smooth="yes"/>
      <point x="504" y="258"/>
      <point x="504" y="275"/>
      <point x="504" y="298" type="curve"/>
      <point x="475" y="296" type="line"/>
      <point x="475" y="270"/>
      <point x="473" y="251"/>
      <point x="466" y="240" type="curve" smooth="yes"/>
      <point x="454" y="221"/>
      <point x="423" y="211"/>
      <point x="328" y="211" type="curve" smooth="yes"/>
      <point x="266" y="211"/>
      <point x="230" y="213"/>
      <point x="206" y="219" type="curve" smooth="yes"/>
      <point x="176" y="228"/>
      <point x="177" y="243"/>
      <point x="176" y="278" type="curve" smooth="yes"/>
      <point x="171" y="395" type="line"/>
      <point x="141" y="395" type="line"/>
      <point x="146" y="263" type="line" smooth="yes"/>
      <point x="148" y="221"/>
      <point x="158" y="199"/>
      <point x="194" y="187" type="curve" smooth="yes"/>
      <point x="220" y="178"/>
      <point x="262" y="176"/>
    </contour>
    <contour>
      <point x="113" y="213" type="curve" smooth="yes"/>
      <point x="133" y="213"/>
      <point x="145" y="218"/>
      <point x="158" y="222" type="curve"/>
      <point x="157" y="253" type="line"/>
      <point x="146" y="248"/>
      <point x="134" y="243"/>
      <point x="115" y="243" type="curve" smooth="yes"/>
      <point x="90" y="243"/>
      <point x="80" y="253"/>
      <point x="80" y="272" type="curve" smooth="yes"/>
      <point x="80" y="305"/>
      <point x="115" y="326"/>
      <point x="152" y="338" type="curve"/>
      <point x="151" y="368" type="line"/>
      <point x="102" y="350"/>
      <point x="50" y="318"/>
      <point x="50" y="268" type="curve" smooth="yes"/>
      <point x="50" y="230"/>
      <point x="75" y="213"/>
    </contour>
    <contour>
      <point x="761" y="-125" type="curve" smooth="yes"/>
      <point x="814" y="-123"/>
      <point x="847" y="-86"/>
      <point x="847" y="-4" type="curve" smooth="yes"/>
      <point x="847" y="63"/>
      <point x="824" y="111"/>
      <point x="786" y="111" type="curve" smooth="yes"/>
      <point x="754" y="111"/>
      <point x="732" y="77"/>
      <point x="732" y="27" type="curve" smooth="yes"/>
      <point x="732" y="-16"/>
      <point x="750" y="-34"/>
      <point x="786" y="-34" type="curve" smooth="yes"/>
      <point x="804" y="-34"/>
      <point x="822" y="-28"/>
      <point x="834" y="-19" type="curve"/>
      <point x="834" y="11" type="line"/>
      <point x="820" y="3"/>
      <point x="805" y="-1"/>
      <point x="790" y="-1" type="curve" smooth="yes"/>
      <point x="765" y="-1"/>
      <point x="758" y="9"/>
      <point x="758" y="32" type="curve" smooth="yes"/>
      <point x="758" y="60"/>
      <point x="766" y="79"/>
      <point x="785" y="79" type="curve" smooth="yes"/>
      <point x="810" y="79"/>
      <point x="820" y="44"/>
      <point x="820" y="-5" type="curve" smooth="yes"/>
      <point x="820" y="-64"/>
      <point x="802" y="-92"/>
      <point x="759" y="-94" type="curve" smooth="yes"/>
      <point x="745" y="-95"/>
      <point x="730" y="-93"/>
      <point x="718" y="-88" type="curve"/>
      <point x="719" y="-118" type="line"/>
      <point x="729" y="-123"/>
      <point x="746" y="-126"/>
    </contour>
    <contour>
      <point x="166" y="-80" type="curve" smooth="yes"/>
      <point x="198" y="-80"/>
      <point x="217" y="-58"/>
      <point x="217" y="-19" type="curve" smooth="yes"/>
      <point x="217" y="19"/>
      <point x="203" y="58"/>
      <point x="178" y="73" type="curve"/>
      <point x="178" y="52" type="line"/>
      <point x="218" y="54"/>
      <point x="249" y="66"/>
      <point x="257" y="100" type="curve"/>
      <point x="245" y="108" type="line"/>
      <point x="245" y="64"/>
      <point x="248" y="36"/>
      <point x="255" y="11" type="curve" smooth="yes"/>
      <point x="265" y="-26"/>
      <point x="302" y="-46"/>
      <point x="380" y="-46" type="curve" smooth="yes"/>
      <point x="454" y="-46"/>
      <point x="489" y="-29"/>
      <point x="502" y="6" type="curve"/>
      <point x="494" y="6" type="line"/>
      <point x="496" y="-36"/>
      <point x="518" y="-48"/>
      <point x="545" y="-48" type="curve" smooth="yes"/>
      <point x="571" y="-48"/>
      <point x="590" y="-31"/>
      <point x="597" y="4" type="curve"/>
      <point x="591" y="5" type="line"/>
      <point x="594" y="-27"/>
      <point x="609" y="-48"/>
      <point x="637" y="-48" type="curve" smooth="yes"/>
      <point x="668" y="-48"/>
      <point x="690" y="-23"/>
      <point x="690" y="19" type="curve" smooth="yes"/>
      <point x="690" y="47"/>
      <point x="685" y="68"/>
      <point x="676" y="100" type="curve"/>
      <point x="646" y="93" type="line"/>
      <point x="654" y="62"/>
      <point x="658" y="45"/>
      <point x="658" y="22" type="curve" smooth="yes"/>
      <point x="658" y="-3"/>
      <point x="653" y="-13"/>
      <point x="634" y="-13" type="curve" smooth="yes"/>
      <point x="617" y="-13"/>
      <point x="613" y="-3"/>
      <point x="610" y="16" type="curve" smooth="yes"/>
      <point x="608" y="31"/>
      <point x="608" y="48"/>
      <point x="608" y="74" type="curve"/>
      <point x="578" y="71" type="line"/>
      <point x="579" y="-3"/>
      <point x="565" y="-13"/>
      <point x="544" y="-13" type="curve" smooth="yes"/>
      <point x="526" y="-13"/>
      <point x="519" y="-4"/>
      <point x="518" y="15" type="curve" smooth="yes"/>
      <point x="517" y="31"/>
      <point x="518" y="45"/>
      <point x="519" y="62" type="curve"/>
      <point x="490" y="62" type="line"/>
      <point x="484" y="-1"/>
      <point x="453" y="-12"/>
      <point x="381" y="-12" type="curve" smooth="yes"/>
      <point x="289" y="-12"/>
      <point x="280" y="13"/>
      <point x="278" y="69" type="curve" smooth="yes"/>
      <point x="268" y="325" type="line"/>
      <point x="236" y="325" type="line"/>
      <point x="242" y="140" type="line" smooth="yes"/>
      <point x="243" y="97"/>
      <point x="218" y="83"/>
      <point x="162" y="83" type="curve" smooth="yes"/>
      <point x="123" y="83"/>
      <point x="94" y="51"/>
      <point x="94" y="-1" type="curve" smooth="yes"/>
      <point x="94" y="-46"/>
      <point x="126" y="-80"/>
    </contour>
    <contour>
      <point x="163" y="-45" type="curve" smooth="yes"/>
      <point x="137" y="-45"/>
      <point x="123" y="-27"/>
      <point x="123" y="3" type="curve" smooth="yes"/>
      <point x="123" y="32"/>
      <point x="131" y="50"/>
      <point x="152" y="50" type="curve" smooth="yes"/>
      <point x="173" y="50"/>
      <point x="187" y="22"/>
      <point x="187" y="-12" type="curve" smooth="yes"/>
      <point x="187" y="-35"/>
      <point x="180" y="-45"/>
    </contour>
    <contour>
      <point x="40" y="-131" type="line"/>
      <point x="96" y="-111"/>
      <point x="114" y="-62"/>
      <point x="117" y="-21" type="curve"/>
      <point x="94" y="-1" type="line"/>
      <point x="94" y="-35"/>
      <point x="82" y="-82"/>
      <point x="29" y="-104" type="curve"/>
    </contour>
    <contour>
      <point x="697" y="624" type="line"/>
      <point x="834" y="674" type="line"/>
      <point x="834" y="695" type="line"/>
      <point x="697" y="646" type="line"/>
    </contour>
    <contour>
      <point x="547" y="643" type="line"/>
      <point x="684" y="692" type="line"/>
      <point x="684" y="713" type="line"/>
      <point x="547" y="664" type="line"/>
    </contour>
    <contour>
      <point x="221" y="676" type="curve" smooth="yes"/>
      <point x="233" y="676"/>
      <point x="242" y="688"/>
      <point x="243" y="708" type="curve"/>
      <point x="236" y="707" type="line"/>
      <point x="237" y="691"/>
      <point x="245" y="686"/>
      <point x="253" y="686" type="curve" smooth="yes"/>
      <point x="267" y="686"/>
      <point x="275" y="699"/>
      <point x="275" y="718" type="curve" smooth="yes"/>
      <point x="275" y="728"/>
      <point x="274" y="738"/>
      <point x="271" y="748" type="curve"/>
      <point x="257" y="744" type="line"/>
      <point x="259" y="736"/>
      <point x="260" y="729"/>
      <point x="260" y="720" type="curve" smooth="yes"/>
      <point x="260" y="710"/>
      <point x="259" y="705"/>
      <point x="253" y="705" type="curve" smooth="yes"/>
      <point x="248" y="705"/>
      <point x="246" y="708"/>
      <point x="246" y="719" type="curve" smooth="yes"/>
      <point x="246" y="737" type="line"/>
      <point x="232" y="734" type="line"/>
      <point x="232" y="718" type="line" smooth="yes"/>
      <point x="232" y="698"/>
      <point x="228" y="693"/>
      <point x="222" y="693" type="curve" smooth="yes"/>
      <point x="217" y="693"/>
      <point x="216" y="697"/>
      <point x="216" y="705" type="curve" smooth="yes"/>
      <point x="216" y="712"/>
      <point x="217" y="719"/>
      <point x="218" y="727" type="curve"/>
      <point x="203" y="724" type="line"/>
      <point x="202" y="717"/>
      <point x="201" y="709"/>
      <point x="201" y="704" type="curve" smooth="yes"/>
      <point x="201" y="685"/>
      <point x="207" y="676"/>
    </contour>
    <contour>
      <point x="361" y="86" type="curve"/>
      <point x="377" y="109" type="line"/>
      <point x="371" y="118"/>
      <point x="367" y="124"/>
      <point x="359" y="131" type="curve"/>
      <point x="343" y="109" type="line"/>
      <point x="350" y="101"/>
      <point x="354" y="96"/>
    </contour>
    <contour>
      <point x="408" y="86" type="curve"/>
      <point x="425" y="109" type="line"/>
      <point x="418" y="118"/>
      <point x="414" y="123"/>
      <point x="406" y="131" type="curve"/>
      <point x="390" y="109" type="line"/>
      <point x="398" y="100"/>
      <point x="402" y="95"/>
    </contour>
  </outline>
</glyph>
<glyph name="jallajalalouhou-ar" format="2">
  <advance width="988"/>
  <unicode hex="FDFB"/>
  <outline>
    <contour>
      <point x="346" y="-78" type="curve" smooth="yes"/>
      <point x="461" y="-78"/>
      <point x="586" y="-47"/>
      <point x="604" y="66" type="curve"/>
      <point x="586" y="67" type="line"/>
      <point x="594" y="19"/>
      <point x="630" y="-3"/>
      <point x="677" y="-3" type="curve" smooth="yes"/>
      <point x="794" y="-3"/>
      <point x="845" y="99"/>
      <point x="950" y="127" type="curve"/>
      <point x="951" y="168" type="line"/>
      <point x="928" y="167"/>
      <point x="912" y="170"/>
      <point x="892" y="176" type="curve" smooth="yes"/>
      <point x="831" y="192"/>
      <point x="793" y="237"/>
      <point x="738" y="237" type="curve" smooth="yes"/>
      <point x="716" y="237"/>
      <point x="701" y="231"/>
      <point x="686" y="224" type="curve"/>
      <point x="684" y="181" type="line"/>
      <point x="699" y="188"/>
      <point x="714" y="191"/>
      <point x="734" y="191" type="curve" smooth="yes"/>
      <point x="789" y="191"/>
      <point x="827" y="136"/>
      <point x="909" y="133" type="curve"/>
      <point x="909" y="150" type="line"/>
      <point x="809" y="110"/>
      <point x="765" y="45"/>
      <point x="682" y="45" type="curve" smooth="yes"/>
      <point x="638" y="45"/>
      <point x="614" y="64"/>
      <point x="611" y="124" type="curve" smooth="yes"/>
      <point x="591" y="559" type="line"/>
      <point x="551" y="559" type="line"/>
      <point x="569" y="120" type="line" smooth="yes"/>
      <point x="574" y="4"/>
      <point x="482" y="-30"/>
      <point x="347" y="-30" type="curve" smooth="yes"/>
      <point x="254" y="-30"/>
      <point x="160" y="-10"/>
      <point x="76" y="28" type="curve"/>
      <point x="71" y="-19" type="line"/>
      <point x="156" y="-58"/>
      <point x="252" y="-78"/>
    </contour>
    <contour>
      <point x="597" y="189" type="curve" smooth="yes"/>
      <point x="734" y="189"/>
      <point x="801" y="290"/>
      <point x="909" y="317" type="curve"/>
      <point x="910" y="359" type="line"/>
      <point x="887" y="358"/>
      <point x="870" y="361"/>
      <point x="850" y="367" type="curve" smooth="yes"/>
      <point x="794" y="382"/>
      <point x="752" y="428"/>
      <point x="697" y="428" type="curve" smooth="yes"/>
      <point x="678" y="428"/>
      <point x="660" y="424"/>
      <point x="646" y="415" type="curve"/>
      <point x="643" y="373" type="line"/>
      <point x="659" y="378"/>
      <point x="674" y="382"/>
      <point x="694" y="382" type="curve" smooth="yes"/>
      <point x="751" y="382"/>
      <point x="789" y="324"/>
      <point x="869" y="324" type="curve"/>
      <point x="869" y="341" type="line"/>
      <point x="753" y="296"/>
      <point x="699" y="237"/>
      <point x="591" y="237" type="curve" smooth="yes"/>
      <point x="535" y="237"/>
      <point x="503" y="257"/>
      <point x="499" y="344" type="curve" smooth="yes"/>
      <point x="488" y="582" type="line"/>
      <point x="448" y="582" type="line"/>
      <point x="456" y="367" type="line"/>
      <point x="464" y="315" type="line" smooth="yes"/>
      <point x="480" y="213"/>
      <point x="523" y="189"/>
    </contour>
    <contour>
      <point x="257" y="72" type="line"/>
      <point x="274" y="73"/>
      <point x="294" y="76"/>
      <point x="312" y="81" type="curve" smooth="yes"/>
      <point x="408" y="105"/>
      <point x="487" y="175"/>
      <point x="488" y="334" type="curve"/>
      <point x="456" y="367" type="line"/>
      <point x="459" y="248"/>
      <point x="415" y="157"/>
      <point x="312" y="126" type="curve" smooth="yes"/>
      <point x="292" y="120"/>
      <point x="270" y="116"/>
      <point x="250" y="114" type="curve"/>
    </contour>
    <contour>
      <point x="438" y="214" type="curve"/>
      <point x="466" y="239" type="line"/>
      <point x="408" y="340"/>
      <point x="339" y="443"/>
      <point x="273" y="529" type="curve"/>
      <point x="241" y="502" type="line"/>
      <point x="306" y="417"/>
      <point x="377" y="312"/>
    </contour>
    <contour>
      <point x="262" y="173" type="curve" smooth="yes"/>
      <point x="335" y="173"/>
      <point x="374" y="208"/>
      <point x="371" y="303" type="curve" smooth="yes"/>
      <point x="361" y="577" type="line"/>
      <point x="321" y="577" type="line"/>
      <point x="330" y="306" type="line" smooth="yes"/>
      <point x="332" y="240"/>
      <point x="315" y="220"/>
      <point x="268" y="220" type="curve" smooth="yes"/>
      <point x="225" y="220"/>
      <point x="214" y="233"/>
      <point x="212" y="285" type="curve" smooth="yes"/>
      <point x="204" y="490" type="line"/>
      <point x="164" y="490" type="line"/>
      <point x="173" y="255" type="line" smooth="yes"/>
      <point x="175" y="200"/>
      <point x="206" y="173"/>
    </contour>
    <contour>
      <point x="120" y="219" type="curve" smooth="yes"/>
      <point x="150" y="219"/>
      <point x="171" y="226"/>
      <point x="190" y="233" type="curve"/>
      <point x="188" y="276" type="line"/>
      <point x="172" y="268"/>
      <point x="154" y="261"/>
      <point x="124" y="261" type="curve" smooth="yes"/>
      <point x="86" y="261"/>
      <point x="67" y="275"/>
      <point x="67" y="306" type="curve" smooth="yes"/>
      <point x="67" y="355"/>
      <point x="124" y="394"/>
      <point x="182" y="412" type="curve"/>
      <point x="180" y="453" type="line"/>
      <point x="105" y="427"/>
      <point x="27" y="378"/>
      <point x="27" y="300" type="curve" smooth="yes"/>
      <point x="27" y="247"/>
      <point x="62" y="219"/>
    </contour>
    <contour>
      <point x="751" y="475" type="line"/>
      <point x="928" y="541" type="line"/>
      <point x="928" y="567" type="line"/>
      <point x="751" y="502" type="line"/>
    </contour>
    <contour>
      <point x="639" y="514" type="line"/>
      <point x="816" y="580" type="line"/>
      <point x="816" y="607" type="line"/>
      <point x="639" y="540" type="line"/>
    </contour>
    <contour>
      <point x="821" y="-82" type="curve"/>
      <point x="848" y="-48" type="line"/>
      <point x="838" y="-33"/>
      <point x="831" y="-25"/>
      <point x="819" y="-13" type="curve"/>
      <point x="793" y="-48" type="line"/>
      <point x="804" y="-61"/>
      <point x="810" y="-68"/>
    </contour>
    <contour>
      <point x="933" y="-16" type="curve"/>
      <point x="961" y="18" type="line"/>
      <point x="950" y="33"/>
      <point x="943" y="42"/>
      <point x="932" y="53" type="curve"/>
      <point x="905" y="19" type="line"/>
      <point x="915" y="7"/>
      <point x="923" y="-2"/>
    </contour>
  </outline>
</glyph>
<glyph name="rial" format="2">
  <advance width="1312"/>
  <unicode hex="FDFC"/>
  <outline>
    <contour>
      <point x="1012" y="-262" type="curve" smooth="yes"/>
      <point x="1170" y="-262"/>
      <point x="1256" y="-135"/>
      <point x="1256" y="59" type="curve" smooth="yes"/>
      <point x="1256" y="161"/>
      <point x="1224" y="252"/>
      <point x="1178" y="342" type="curve"/>
      <point x="1117" y="306" type="line"/>
      <point x="1161" y="217"/>
      <point x="1190" y="134"/>
      <point x="1190" y="53" type="curve" smooth="yes"/>
      <point x="1190" y="-93"/>
      <point x="1126" y="-182"/>
      <point x="1006" y="-182" type="curve" smooth="yes"/>
      <point x="962" y="-182"/>
      <point x="932" y="-176"/>
      <point x="898" y="-164" type="curve"/>
      <point x="900" y="-238" type="line"/>
      <point x="927" y="-254"/>
      <point x="963" y="-262"/>
    </contour>
    <contour>
      <point x="799" y="-7" type="curve" smooth="yes"/>
      <point x="915" y="-7"/>
      <point x="978" y="41"/>
      <point x="978" y="185" type="curve" smooth="yes"/>
      <point x="978" y="258"/>
      <point x="966" y="330"/>
      <point x="949" y="399" type="curve"/>
      <point x="887" y="378" type="line"/>
      <point x="902" y="310"/>
      <point x="913" y="248"/>
      <point x="913" y="189" type="curve" smooth="yes"/>
      <point x="913" y="105"/>
      <point x="878" y="79"/>
      <point x="804" y="79" type="curve" smooth="yes"/>
      <point x="726" y="79"/>
      <point x="702" y="116"/>
      <point x="698" y="225" type="curve" smooth="yes"/>
      <point x="681" y="732" type="line"/>
      <point x="611" y="732" type="line"/>
      <point x="629" y="198" type="line" smooth="yes"/>
      <point x="633" y="71"/>
      <point x="680" y="-7"/>
    </contour>
    <contour>
      <point x="252" y="-236" type="curve" smooth="yes"/>
      <point x="406" y="-236"/>
      <point x="509" y="-140"/>
      <point x="501" y="148" type="curve" smooth="yes"/>
      <point x="484" y="732" type="line"/>
      <point x="414" y="732" type="line"/>
      <point x="432" y="147" type="line" smooth="yes"/>
      <point x="439" y="-80"/>
      <point x="371" y="-150"/>
      <point x="258" y="-150" type="curve" smooth="yes"/>
      <point x="154" y="-150"/>
      <point x="99" y="-91"/>
      <point x="99" y="28" type="curve" smooth="yes"/>
      <point x="99" y="92"/>
      <point x="109" y="139"/>
      <point x="122" y="198" type="curve"/>
      <point x="71" y="213" type="line"/>
      <point x="50" y="147"/>
      <point x="38" y="80"/>
      <point x="38" y="12" type="curve" smooth="yes"/>
      <point x="38" y="-146"/>
      <point x="114" y="-236"/>
    </contour>
    <contour>
      <point x="735.285" y="-193.829" type="curve"/>
      <point x="781.794" y="-136.869" type="line"/>
      <point x="761.611" y="-111.237"/>
      <point x="751.08" y="-98.896"/>
      <point x="731.775" y="-78.96" type="curve"/>
      <point x="685.265" y="-137.819" type="line"/>
      <point x="705.448" y="-158.704"/>
      <point x="716.856" y="-171.994"/>
    </contour>
    <contour>
      <point x="845.285" y="-193.829" type="curve"/>
      <point x="891.794" y="-136.869" type="line"/>
      <point x="871.611" y="-111.237"/>
      <point x="861.08" y="-98.896"/>
      <point x="841.775" y="-78.96" type="curve"/>
      <point x="795.265" y="-137.819" type="line"/>
      <point x="815.448" y="-158.704"/>
      <point x="826.856" y="-171.994"/>
    </contour>
  </outline>
</glyph>
